<?xml version="1.0" encoding="UTF-8"?>
<svg id="Class_Icons" data-name="Class Icons" xmlns="http://www.w3.org/2000/svg" viewBox="0 0 100 100">
  <defs>
    <style>
      .cls-1 {
        fill: #00040c;
      }
    </style>
  </defs>
  <path id="Bard" class="cls-1" d="M47.82.92C48.56.64,49.24.22,50,0c.75.22,1.44.64,2.18.92.88.3,1.37,1.15,2.05,1.74.4.28.3.8.34,1.22.87.27,1.4-.33,1.83-.98.2.4.44.81.53,1.26-.24.56-.57,1.08-.9,1.59-.48-.17-.56-.62-.41-1.06-.34-.04-.69-.04-1.03-.02.01.58.03,1.15.07,1.73.57,0,1.15.05,1.71-.03.33-.27.49-.68.84-.94.16.51.74,1.09.32,1.61-.24.41-.45.83-.72,1.22-.48-.17-.56-.61-.41-1.06-.57-.05-1.15-.05-1.72-.02.01.68.03,1.35.08,2.03.73.2.91-.63,1.39-.97.16.51.74,1.09.32,1.61-.24.41-.45.83-.72,1.22-.48-.17-.56-.62-.41-1.06-.19,0-.37-.02-.56-.03,0,.68.03,1.36.07,2.04.82.27,1.23-.44,1.65-.98.2.4.45.81.53,1.26-.25.56-.57,1.08-.9,1.59-.48-.17-.56-.62-.4-1.06-.29-.02-.57-.03-.86-.03-.04.56.19,1.19-.15,1.7-.64,1.04-1.26,2.11-1.9,3.15-.24.38-.12.84-.12,1.26.42,12.09.84,24.19,1.25,36.28,0,.52.4.9.65,1.32,1.67,2.63,3.4,5.21,5.04,7.86,1.3,3.52,2.59,7.05,3.86,10.59.54,2.87,1.06,5.76,1.52,8.65-.25,2.54-.55,5.09-.9,7.63-1.04,2.13-2.2,4.2-3.26,6.32-.2.5-.77.61-1.19.85-.7.31-1.35.8-2.13.88-1.5.22-3,.52-4.5.7-2.01.02-4.01.02-6.02,0-1.48-.17-2.95-.48-4.42-.69-.84-.08-1.53-.59-2.28-.93-.38-.22-.89-.32-1.09-.75-.89-1.75-1.82-3.48-2.72-5.22-.27-.54-.64-1.05-.67-1.67-.24-2.41-.63-4.81-.8-7.22.48-2.85.97-5.71,1.52-8.55,1.26-3.54,2.55-7.07,3.86-10.59,1.62-2.63,3.34-5.19,5-7.8.28-.47.72-.89.7-1.48.41-12.35.86-24.7,1.26-37.04-.52-1.22-1.35-2.32-2-3.49-.39-.51-.16-1.17-.19-1.76-.29,0-.57,0-.86.03.16.45.08.89-.4,1.06-.33-.51-.65-1.04-.9-1.59.08-.44.32-.83.49-1.24.49.49.84,1.26,1.69.96.04-.68.06-1.36.07-2.04-.19,0-.37.02-.56.03.15.45.08.89-.41,1.06-.33-.51-.65-1.04-.9-1.59.08-.44.32-.83.49-1.24.48.34.66,1.17,1.39.97.05-.68.07-1.35.08-2.03-.57-.03-1.15-.03-1.72.02.16.44.07.89-.41,1.06-.33-.51-.65-1.04-.9-1.59.08-.44.32-.83.49-1.24.34.25.51.67.84.94.57.08,1.14.03,1.71.03.04-.58.06-1.15.07-1.73-.34-.03-.69-.02-1.03.01.16.44.08.89-.4,1.06-.34-.51-.65-1.04-.9-1.59.08-.44.32-.83.49-1.24.34.25.51.67.84.93.34.08.68.03,1.02.03.04-.42-.06-.94.34-1.22.68-.58,1.17-1.43,2.05-1.74M49.36,71.62c-1.66.19-3.19,1.22-4,2.68-1.47,2.47-.46,5.99,2.09,7.3,1.86,1.05,4.34.8,5.96-.59,2.05-1.64,2.53-4.84,1.05-7.01-1.07-1.68-3.13-2.64-5.1-2.38M39.75,78.37c.02,1.32-.04,2.77.71,3.93,1.33,1.7,3.34,2.91,4.11,5.01.13.95.15,2.03-.39,2.88-.54.84-1.71.85-2.56.59-.04-.28,0-.61-.15-.86-.51-.26-1.39-.09-1.47.57.21.8.98,1.53,1.86,1.39,1.5.08,3.15-.76,3.54-2.29.1-1.37.11-2.87-.72-4.04-1.06-1.43-2.76-2.23-3.74-3.73-1.34-2-1.06-4.77.4-6.55.02.16.05.32.07.48.2-.39.39-.79.54-1.2-1.3.79-2.26,2.26-2.18,3.82M58.26,74.55c.15.41.34.81.54,1.2.02-.16.05-.32.07-.48.84,1.12,1.28,2.44,1.19,3.88.15,1.09-.25,2.05-.92,2.84-1,1.42-2.66,2.2-3.66,3.62-.8,1.16-.78,2.64-.68,3.98.39,1.53,2.04,2.38,3.54,2.29.9.15,1.73-.63,1.87-1.47-.19-.59-.9-.69-1.42-.53-.23.23-.15.61-.2.9-.97.32-2.32.18-2.74-.9-.4-1.11-.48-2.49.23-3.49.96-1.62,2.58-2.66,3.7-4.14.72-1.19.65-2.64.67-3.97.04-1.53-.91-2.95-2.18-3.72M44.48,94.28c-.01.77-.01,1.54,0,2.31,3.64.01,7.29.01,10.93,0,.01-.77.01-1.54,0-2.31-3.64-.01-7.29-.01-10.93,0"/>
</svg>