<?xml version="1.0" encoding="UTF-8"?>
<svg id="Class_Icons" data-name="Class Icons" xmlns="http://www.w3.org/2000/svg" viewBox="0 0 100 100">
  <defs>
    <style>
      .cls-1 {
        fill: #00040c;
      }
    </style>
  </defs>
  <g id="Monk">
    <path class="cls-1" d="M48.91.66c2.13-.21,4.26-.42,6.38-.66.4,3.8.05,7.66.17,11.48-.16,4.35-.61,8.69-.93,13.03-2.49.7-5.01,1.3-7.5,2.02,2.84-.12,5.67-.37,8.5-.57.3-.66.63-1.34.66-2.08.26-6.88.59-13.76.86-20.64,1.71.37,3.53.48,5.07,1.38,1.2.64,2.43,1.21,3.62,1.84.68.34.49,1.23.55,1.85-.09,2.74-.17,5.49-.35,8.22-.53,3.38-1.07,6.75-1.66,10.12-1.72.12-3.45.04-5.17.13,2.13.46,4.29.8,6.43,1.17.65-5.21,1.49-10.39,2.19-15.59,2.41.18,4.48,1.46,6.56,2.55.07,4.45.54,8.9.19,13.34-.18,3.49-.4,6.98-.58,10.47-.04,1.1-.04,2.23-.42,3.28-.9,2.68-1.65,5.41-2.59,8.07-.97,1.19-2.44,1.87-3.52,2.94-.16.19-.11.47-.12.7.85,11.88,1.7,23.77,2.54,35.65.12,1.06-.73,1.83-1.17,2.71-.36.62-.7,1.31-1.36,1.66-3.18,1.81-6.35,3.62-9.52,5.44-.88.68-1.99.81-3.06.74-1.63-.09-3.36.39-4.89-.34-4.01-1.64-8.08-3.11-12.06-4.79-.96-1.16-2.17-2.5-1.95-4.13.28-12.36.48-24.72.73-37.09.13-.85-.76-1.22-1.29-1.68-3.02-2.22-5.55-5-8.32-7.5-.37-.37-.88-.71-.9-1.29-.19-6.05-.41-12.11-.62-18.16-.04-.88.45-1.65.77-2.44.22-.51.44-1.17,1.1-1.21,4.83-1.01,9.63-2.13,14.49-2.96.45,2,.99,4.02,1.2,6.05-1.83,2.66-4.46,4.78-5.89,7.72,2.44-2.05,4.67-4.35,7.05-6.47.3-.31.78-.61.68-1.11-.27-1.85-.54-3.7-.82-5.54-.21-1.18,1.06-1.83,1.87-2.4-.1-4.67-.25-9.34-.37-14.01,1.11-.69,2.05-1.84,3.43-1.92M72.64,28.83c-1.59.99-3.47.19-5.17.05,1.8.68,3.62,1.31,5.46,1.86.17-1.93.4-3.87.43-5.81-.33,1.28-.29,2.65-.72,3.9M45.37,39.6c2.12,1.73,4.23,3.46,6.36,5.17.29.24.6.52.61.92.3,3.45.38,6.92.77,10.36.68-3.27,1.05-6.6,1.64-9.89.04-.32.25-.58.52-.75,1.93-1.29,3.93-2.49,5.81-3.86-2.15.69-4.27,1.5-6.39,2.27-.49.15-1.08.53-1.56.16-2.41-1.67-4.81-3.36-7.23-5.03-.17.22-.35.44-.52.66"/>
    <path class="cls-1" d="M40.6,4.62c1.23-.28,2.52-.02,3.78-.06.03,3.87-.04,7.73-.1,11.6-.68.54-1.46.95-2.33.59-3.04.37-6.06.91-9.09,1.31.37-3.36.87-6.7,1.39-10.04.04-.53.6-.69,1-.89,1.8-.8,3.55-1.71,5.36-2.51"/>
  </g>
</svg>