<?xml version="1.0" encoding="UTF-8"?>
<svg id="Class_Icons" data-name="Class Icons" xmlns="http://www.w3.org/2000/svg" viewBox="0 0 100 100">
  <defs>
    <style>
      .cls-1 {
        fill: #00040c;
      }
    </style>
  </defs>
  <g id="Sorcerer">
    <path class="cls-1" d="M49.71,0c.24,0,2.87,17.45,4.54,22.77,1.3,4.14,2.57,8.29,3.92,12.41,1.46,4.49,3.42,8.7,5.39,12.99,3.66,7.98,5.9,16.77,7.1,25.43.96,6.97-2.54,15.83-7.37,20.79-5.18,5.31-13.36,7.06-20.3,4.34-6.79-2.66-11.04-9.55-12.76-16.37-.85-3.35-1.32-6.87-.84-10.3.46-3.34,1.15-7.77,2.53-12.34,1.31-4.33,2.63-7.59,4.35-11.33,1.88-4.1,3.99-8.16,5.38-12.46,1.91-5.88,3.77-11.74,4.84-17.84.55-3.13,3.37-15.24,3.24-18.1.27,0,.12,2.59,0,0M48.5,66.28c-.14,2.35-1.71,1.86-2.91,4.9-.44-1.56.88-4.83-.17-6.69-.48,2-1.67,3.05-1.93,3.47-1.18,1.87-1.85,3.49-1.83,5.61,0,1.24.49,2.26.98,3.37.47,1.08.47,2.23.5,3.41-.37-1-.94-1.46-2.34-1.49-.83-.16-.85-1.58-.48-2.39-1.16.24-1.23,2.95-1.13,3.61.27,1.91,1.4,3.05,2.52,4.51.98,1.28,1.51,2.76,3,3.58,1.74.95,3.4,1.54,5.21,1.08.42-.11.49.42,2.1.48.92.03,1.39-.76,1.56-1.77,1.36-.38,3.56-1.17,4.62-2.12,2.11-1.89,1.54-7.42.19-9.05.45,2.06-1.14,1.94-.53,3.32.19,1.26-1.9.61-2.73,1.13-.78.84-.58,1.38-1.11,2.34-.65-1.41.39-2.69.93-3.92.7-1.59,1.31-2.86,1.17-4.66-.12-1.59-.43-2.93-1.43-4.19-1.02-1.28-1.3-2.9-1.23-4.08-1.59.44.44,6.96-1.35,8.87-1.63-1.72-.26-6.78-.35-8.36-.15-2.63-.46-4.52-1.63-6.89-.54-1.1-1.13-2.15-1.44-3.38s-.59-3.47-.21-4.02c-1.44,2.07-.85,5.77-.41,6.98.44,1.21.53,4.3.41,6.34"/>
  </g>
</svg>