<?xml version="1.0" encoding="UTF-8"?>
<svg id="Class_Icons" data-name="Class Icons" xmlns="http://www.w3.org/2000/svg" viewBox="0 0 100 100">
  <defs>
    <style>
      .cls-1 {
        fill: #00040c;
      }
    </style>
  </defs>
  <g id="Wizard">
    <path class="cls-1" d="M38.56,97.68c.09.11.18.21.27.32-.33.26-.63.17-.94.02-1.79-.83-3.57-1.69-5.38-2.48-3.91-1.72-7.83-3.42-11.74-5.12-.24-.1-.47-.21-.75-.35.11-.14.2-.25.29-.35.49-.55.98-1.11,1.48-1.65.31-.34.64-.67.98-.99.65-.6,1.17-1.28,1.52-2.1.73-1.71,1.49-3.4,2.21-5.12.13-.31.29-.48.63-.51.37-.03.74-.07,1.1-.16,1.77-.44,3.08-1.48,3.93-3.09.32-.6.6-1.22.92-1.89.24.06.45.1.65.17,1.72.58,3.45,1.09,5.26,1.35.27.04.45-.02.57-.22.31-.49.79-.77,1.29-1.02.18-.09.38-.17.53-.3.13-.11.29-.31.27-.44-.12-.75.26-1.31.68-1.86.3-.4.61-.79.88-1.21.17-.27.39-.37.68-.41.55-.08,1.1-.15,1.65-.26.38-.07.76-.17,1.11-.32,1.83-.81,3.64-1.64,5.47-2.45.38-.17.63-.41.84-.76.77-1.26,1.53-2.54,2.35-3.76.68-1.01,1.47-1.94,2.18-2.94.59-.83,1.11-1.7,1.7-2.53.62-.87,1.28-1.72,1.93-2.57.18-.24.4-.44.55-.69.35-.57.87-.87,1.49-1.07.54-.18,1.07-.4,1.61-.6.45-.17.42-.13.74.19.48.48.48.91.17,1.51-.7,1.32-1.34,2.68-1.96,4.05-.26.57-.38,1.19-.56,1.8-.1.35-.19.7-.2,1.09.08-.08.17-.16.24-.25.48-.65.97-1.3,1.44-1.97.23-.33.43-.69.6-1.06.59-1.32,1.14-2.65,1.73-3.97.13-.3.15-.56.02-.85-.03-.07-.04-.14-.08-.21-.25-.49-.22-.95-.01-1.48.42-1.08.79-2.19,1.12-3.31.23-.79.74-1.4,1.16-2.07.53-.84,1.14-1.65,1.64-2.51.72-1.23,1.66-2.24,2.88-3.14.3.26.61.53.91.79-.24.75-.64,1.38-.7,2.14.29-.45.58-.89.87-1.34.5-.78.95-1.6,1.51-2.32.43-.54,1.01-.97,1.53-1.43.07-.06.25-.07.36-.03.34.13.68.29,1.08.47-.54,1.3-1.27,2.48-1.85,3.73-.58,1.25-1.19,2.49-1.72,3.81.14-.1.3-.18.42-.29.8-.79,1.62-1.57,2.38-2.41.4-.44.78-.16,1.17-.09.34.06.34.36.38.65.07.5-.02.94-.3,1.36-1.21,1.82-2.19,3.77-2.91,5.84-.62,1.78-1.21,3.58-1.97,5.3-1.03,2.33-2.2,4.59-3.33,6.88-.7,1.43-1.45,2.83-2.14,4.27-.25.53-.4,1.11-.54,1.69-.08.31-.22.54-.44.75-.38.38-.75.77-1.15,1.12-.17.15-.4.27-.62.33-.57.17-1.14.31-1.72.43-.77.16-1.48.43-2.16.83-1.67.99-3.36,1.94-5.02,2.95-.69.42-1.35.9-1.98,1.42-.81.66-1.7,1.18-2.65,1.59-.17.07-.33.16-.53.26.08.19.16.36.24.54-.33.33-.96.08-1.12.7.46.07.69.75,1.38.42-.02.16-.02.22-.04.28-.18.46-.03.83.3,1.16.24.23.37.47.06.78-.02-.08-.03-.14-.04-.2-.04-.27-.24-.36-.47-.4-.28-.04-.33.19-.39.38-.37,1.32-.93,2.57-1.48,3.82-.15.33-.35.6-.64.81-.8.6-1.42,1.35-1.9,2.22-.9,1.67-1.65,3.39-1.94,5.28-.12.78-.24,1.57-.26,2.36-.01.6.13,1.21.22,1.81.07.5-.03.73-.51.86-.51.13-1.04.22-1.56.31-.16.03-.33,0-.49-.04-1.51-.47-2.96-1.06-4.32-1.87-.3-.18-.62-.31-.94-.46-.02.02-.05.04-.07.06Z"/>
    <path class="cls-1" d="M53.88,50.51c.14.22.26.39.34.57.06.13.37.33-.04.43.04.12.07.24.11.36q-.39.29-.06.97c-.1.16-.19.32-.3.52-.46-.23-.87-.6-1.13-1.09-.32-.59-.54-1.23-.52-1.91.06-1.99.38-3.93.98-5.83.2-.62.57-1.12.95-1.62.35-.47.51-.98.67-1.55.39-1.42.3-2.86.35-4.3.02-.51-.08-.99-.31-1.45-.48-.95-1.05-1.82-1.98-2.41-.5-.32-.93-.73-1.43-1.05-.48-.31-1-.55-1.5-.83-.24-.13-.5-.26-.68-.46-.43-.48-.97-.8-1.54-1.07-.42-.2-.84-.39-1.26-.58-.79-.37-1.35-.96-1.73-1.73-.32-.65-.66-1.28-.94-1.95-.17-.42-.31-.89-.33-1.34-.08-1.55-.17-3.11-.12-4.66.06-1.77.56-3.42,1.7-4.83.43-.53.75-1.15,1.36-1.52.24-.14.47-.29.7-.44.34-.22.73-.39,1.02-.67.36-.35.79-.5,1.23-.67,1.35-.54,2.78-.64,4.2-.71.92-.05,1.85.03,2.78.08.64.03,1.24.23,1.77.59.71.47,1.4.97,2.07,1.48.49.38.87.86,1.08,1.45.31.87.59,1.74.89,2.61.05.14.14.27.17.41.06.3.16.61.14.91-.04.59-.15,1.17-.21,1.75-.11,1-.28,1.98-.76,2.87-.24.45-.54.87-.82,1.31-.03.05-.08.08-.1.13-.36.9-1.18,1.27-1.96,1.7-.08.04-.18.11-.26.09-.36-.1-.59.14-.86.28-.24.13-.52.37-.76-.03-.03-.05-.17-.04-.26-.04-.2,0-.41.03-.61.04-1.38.04-2.57-.41-3.54-1.4-.16-.16-.31-.32-.49-.45-.65-.49-.95-1.16-1.02-1.95-.16-1.77.38-3.24,1.78-4.38.31-.25.65-.36,1.03-.36.44,0,.89.02,1.33.08.5.06.71.46.81.88.13.5.14,1.02.02,1.53-.03.13-.14.24-.26.44-.31-.5-.72-.77-1.22-.88-.31-.07-.66-.28-.93.05-.34.4-.91.69-.76,1.38.06.28.02.59.05.88.05.55.77,1.01,1.3.85.08-.03.19-.07.26-.05.47.14.87-.05,1.29-.21.68-.25,1.35-.51,2.02-.76.05-.02.11-.06.16-.06.63.05.88-.42,1.08-.86.15-.33.22-.71.24-1.08.04-.65.05-1.3,0-1.94-.11-1.51-.64-2.26-1.95-2.64-.39-.11-.79-.22-1.19-.23-1.09-.03-2.19,0-3.28.01-1.49.03-2.76.61-3.86,1.59-.34.31-.74.57-.87,1.05,0,.02-.02.04-.03.05-.89.77-.82,1.79-.7,2.81.05.4.15.8.17,1.2.05.99.38,1.91.62,2.85.2.78.65,1.44,1.16,2.06.43.51.87.99,1.47,1.33.84.47,1.65.99,2.43,1.55.71.5,1.39,1.04,1.93,1.74.42.56.91,1.06,1.37,1.6.11.13.21.26.27.42.44,1.17,1.03,2.29,1.03,3.6,0,1.44.07,2.89.07,4.33,0,.49-.18.98-.22,1.48-.06.78-.45,1.42-.8,2.09-.09.17-.27.3-.4.45-.7.84-1.4,1.68-2.09,2.53-.33.41-.53.84-.16,1.36.13.19.15.45.21.68.09.35.03.44-.38.58Z"/>
    <path class="cls-1" d="M55.63,61.11c-1.1,1.62-2.19,3.25-3.3,4.86-.13.18-.34.34-.54.44-.92.42-1.88.79-2.79,1.23-.71.34-1.41.73-2.07,1.17-.6.4-1.2.69-1.92.79-.58.08-1.15.22-1.81.36.08-.21.12-.34.18-.46.34-.68.68-1.36,1.03-2.03.09-.18.22-.34.36-.48.8-.77,1.6-1.54,2.41-2.29.17-.16.38-.29.6-.38.99-.4,1.99-.81,3-1.16,1.47-.51,2.86-1.21,4.24-1.91.17-.09.35-.17.53-.25.02.04.05.07.07.11Z"/>
    <path class="cls-1" d="M53.05,3.44c-.44-.6-.45-2.69-.01-3.44.61.08.6.08.71.69.13.7.16,1.39,0,2.09-.13.57-.11.57-.7.67Z"/>
    <path class="cls-1" d="M38.06,13.96c0,.51-.2.63-.54.46-.47-.24-1.01-.4-1.16-1.01-.02-.09-.08-.19-.06-.26.05-.17.09-.37.21-.47.07-.05.31.05.43.13.28.2.56.42.8.67.16.16.24.38.3.48Z"/>
    <path class="cls-1" d="M42.28,3.3c.67.38,1.16.87,1.33,1.59.06.25.14.6-.21.77-1.03-.76-1.45-1.62-1.11-2.36Z"/>
    <path class="cls-1" d="M64.03,3.17c.62.68.2,1.71-.85,2.09-.29-.8.1-1.76.85-2.09Z"/>
    <path class="cls-1" d="M68.42,12.31c-.24-.64-.12-.98.39-1.18.27-.11.56-.15.83-.22.34.52.29.84-.19,1.07-.32.15-.68.22-1.02.33Z"/>
  </g>
</svg>