<?xml version="1.0" encoding="UTF-8"?>
<svg id="Class_Icons" data-name="Class Icons" xmlns="http://www.w3.org/2000/svg" viewBox="0 0 100 100">
  <defs>
    <style>
      .cls-1 {
        fill: #00040c;
      }
    </style>
  </defs>
  <path id="Rogue" class="cls-1" d="M48.89.27c1.03-.36,2.13-.36,3.16-.02.17,1.61.3,3.22.42,4.84.17,1.05-1.25,1.37-1.39,2.28.65,1.28,1.97,2.33,1.63,3.93,1.47-.15,3,.07,4.42-.35,3.69-2.18,7.38-4.38,11.07-6.58.73-.39,1.58-.38,2.37-.55.82-.11,1.74-.5,2.49.03,2.84,1.16,5.74,2.19,8.62,3.29,2.98.92,6,1.73,8.99,2.62-.93.78-2.01,1.35-2.87,2.21-2.36,2.3-4.74,4.58-7.09,6.88-.6.62-1.51.67-2.29.89-1.74.47-3.49.89-5.22,1.4-3.64,1.34-7.27,2.7-10.9,4.05-1.15.25-2.47.22-3.46-.48-1.85-1.03-3.59-2.37-5.73-2.76.02.91.11,1.82.06,2.72-.39,3.92-.9,7.83-1.23,11.76.93-.07,1.86-.2,2.8-.29,1.79-.15,3.39-1.1,5.15-1.41-.53,1.67-1.45,3.19-2.23,4.75-.66-.56-1.15-1.3-1.85-1.81-.77-.17-1.56.13-2.31.29.12,1.21.25,2.43.38,3.64.03.64.78,1.02.66,1.68-.25,1.76-.09,3.54-.22,5.31-.46,13.92-1.03,27.84-1.53,41.77-.54,3.22-1.17,6.44-1.82,9.65-.73-3.18-1.35-6.39-1.95-9.6-.56-12.18-1.14-24.37-1.72-36.55-.14-3.63-.24-7.26-.51-10.88,1.09-1.43.71-3.35,1-5.03-.72-.1-1.43-.31-2.16-.28-.82.45-1.29,1.31-1.99,1.91-.75-1.57-1.72-3.06-2.26-4.71,1.54.24,2.95.97,4.47,1.25,1.16.14,2.32.26,3.49.32-.38-3.74-.87-7.48-1.31-11.22-.21-1.2.04-2.41.01-3.62-2.41.48-4.54,1.67-6.59,2.96-1.28.95-3.07.99-4.49.34-3.39-1.27-6.79-2.53-10.19-3.79-2.13-.6-4.27-1.15-6.41-1.69-1.02-.24-1.57-1.21-2.33-1.84-2.89-2.63-5.43-5.67-8.72-7.83,1.88-.54,3.77-1.09,5.66-1.63,4.03-1.06,7.86-2.73,11.76-4.19.89-.65,1.97-.23,2.95-.08.76.14,1.57.16,2.24.58,3.25,1.95,6.52,3.87,9.77,5.81.67.4,1.33.92,2.14.91,1.5.04,3,.15,4.5.2.03-.55-.03-1.11.11-1.64.37-.89,1.17-1.52,1.51-2.42-.36-.85-1.62-1.2-1.46-2.26.15-1.59.21-3.18.4-4.76M31.11,13.1c-1.27.65-2.61,1.17-3.85,1.88,2.99,1.05,6.01,1.98,9,3.03,1.01.38,2.09.07,3.12-.04-2.41-1.62-4.92-3.1-7.36-4.68-.27-.17-.6-.38-.91-.18M68.58,12.95c-2.64,1.68-5.32,3.29-7.92,5.03,1.08.1,2.21.42,3.26,0,2.93-1.07,5.95-1.91,8.86-3.02-1.38-.71-2.8-1.33-4.2-2"/>
</svg>