<?xml version="1.0" encoding="UTF-8"?>
<svg id="Class_Icons" data-name="Class Icons" xmlns="http://www.w3.org/2000/svg" viewBox="0 0 100 100">
  <defs>
    <style>
      .cls-1 {
        fill: #00040c;
      }
    </style>
  </defs>
  <path id="Druid" class="cls-1" d="M37.15,77.64c-.53.26-1,.05-1.49-.15-1.6-.65-3.05-1.55-4.39-2.64-.26-.21-.58-.33-.87-.52-.17-.11-.34-.23-.46-.38-.64-.75-.58-1.09.26-1.58.06-.04.12-.08.27-.19-.55-.37-1.08-.55-1.68-.53-.31.01-.63.03-.94-.02-.74-.11-1.5-.19-2.22-.4-1.01-.29-1.96-.73-2.45-1.75-.12-.24-.21-.54-.17-.8.11-.88.41-1.66,1.36-1.99.31-.11.61-.27,1.03-.46-.4-.36-.72-.68-1.07-.96-.78-.63-1.6-1.19-2.34-1.86-1.01-.91-1.65-2.06-2.01-3.38-.2-.72-.32-1.44-.09-2.18.11-.36.25-.71.43-1.04.06-.12.25-.21.4-.23.43-.06.87-.1,1.3-.1.45,0,.67-.15.59-.56-.39-1.95.02-3.83.46-5.72.25-1.07.55-2.12,1.13-3.06.28-.44.67-.69,1.19-.81,1.47-.31,2.34.57,3.16,1.54.29.34.45.8.67,1.19.4.71.81,1.42,1.2,2.13.17.31.28.66.44.98.09.18.2.35.33.5.34.39.57.37.83-.05.09-.15.17-.31.26-.47.57-1.02,1.47-1.09,2.25-.19.49.57.67,1.27.85,1.96.22.86.4,1.73.18,2.65-.2.85-.29,1.73-.4,2.59-.03.2,0,.44.08.62.18.42.34.45.75.24.3-.15.59-.34.9-.46.83-.32,1.7.14,1.89,1,.33,1.46-.02,2.76-.99,3.9-.21.24-.44.47-.62.73-.11.15-.15.36-.22.53.76-.15,1.43-.28,2.1-.43.37-.08.52.05.62.42.15.54.04,1.04-.1,1.53-.35,1.19-.95,2.23-2,2.96-.11.08-.21.19-.3.29-.33.38-.27.7.21.79.41.07.47.31.48.62,0,.28-.02.56,0,.83.03.6.12,1.21.46,1.71.62.93.3,1.81-.09,2.73.16.13.34.29.51.44-.27.48.07.86.33,1.08.98.83,1.92,1.76,3.34,2.03,0-.84.02-1.67,0-2.5-.02-.92-.1-1.83-.12-2.75-.05-2.17-.07-4.35-.12-6.52-.01-.5-.13-1-.11-1.49.1-1.8-.04-3.6-.04-5.4,0-2.91.1-5.81.16-8.72,0-.15.03-.33.11-.45.37-.49.74-.98,1.16-1.43.21-.23.52-.39.89-.66-.04-.93-.06-2-.13-3.07-.03-.43-.33-.72-.69-.93-.81-.48-1.6-.98-2.43-1.41-1.4-.73-2.75-1.53-3.98-2.52-1.12-.9-2.24-1.8-3.27-2.8-1.27-1.25-2.27-2.71-3.11-4.29-.93-1.74-1.52-3.59-1.98-5.48-.41-1.68-.38-3.41-.33-5.14.08-2.63.52-5.19,1.5-7.64.95-2.38,2.18-4.6,3.79-6.61,1.74-2.17,3.7-4.09,5.98-5.69,1.29-.9,2.64-1.68,4.04-2.4,1.67-.86,3.45-1.41,5.23-1.92,1.2-.35,2.46-.47,3.7-.65C54.79,0,56.83-.05,58.87.04c2.67.11,5.33.35,7.96.85,1.32.25,2.65.57,3.93.98.82.26,1.57.74,2.35,1.13.8.4,1.58.82,2.39,1.2,1.3.61,2.41,1.46,3.37,2.53.43.48.91.9,1.37,1.35-.01.05-.02.09-.03.14-.4-.02-.8.01-1.18-.07-1.3-.3-2.58-.65-3.88-.96-1.2-.29-2.41-.54-3.62-.81-1.43-.32-2.63-.47-4.08-.69-1.04-.16-2.54-.2-3.48-.19-.27.07-1.13.08-1.65.11-1.68.11-3.27.17-4.94.35-1.3.14-2.59.44-3.87.73-1.14.25-2.3.5-3.4.89-1.32.47-2.64.98-3.87,1.67-1.52.85-2.98,1.79-4.27,2.95-1.22,1.1-2.27,2.36-3.19,3.74-1.23,1.85-2.18,3.83-2.81,5.96-.38,1.27-.6,2.58-.65,3.88-.04,1.1.13,2.23.37,3.32.61,2.78,1.94,5.23,3.76,7.39.73.86,1.65,1.57,2.53,2.29,1.2.99,2.46,1.91,3.68,2.89.27.22.52.31.87.27.52-.05,1.04-.03,1.56-.03.57,0,.81.24,1.04.76.3.68.22,1.36.15,2.05-.11,1.07-.19,2.15-.29,3.22-.08.91-.18,1.83-.25,2.64.43.39.85.68,1.13,1.07.23.32.4.75.41,1.14.02.94-.06,1.88-.13,2.82-.08,1.01-.23,2-.03,3.03.13.67,0,1.39,0,2.09,0,1.28.03,2.56.05,3.83,0,.3.03.6.02.9-.03.8-.09,1.6-.11,2.4-.05,2.2-.09,4.41-.12,6.61,0,.29.04.56.17.85.15.34.08.78.06,1.18-.03.78-.11,1.55-.11,2.32,0,1.1.07,2.2.12,3.3.02.5.1.99.1,1.49,0,.78-.08,1.55-.07,2.33.01.91.08,1.82.13,2.87.59-.48,1.15-.83,1.58-1.3.62-.69,1.27-1.38,1.61-2.29.05-.14.22-.24.28-.38.06-.15.09-.34.04-.48-.27-.74-.21-1.41.22-2.1.37-.6.47-1.3.41-2.02-.02-.18,0-.35.01-.53,0-.29.11-.46.44-.54.53-.13.58-.41.22-.81-.08-.09-.16-.18-.26-.25-1.22-.87-1.86-2.09-2.14-3.53,0-.04-.03-.08-.03-.12-.17-1,.14-1.36,1.13-1.23.52.07,1.03.27,1.57.42.21-.26-.03-.44-.18-.64-.41-.56-.9-1.08-1.23-1.69-.48-.9-.6-1.89-.33-2.9.25-.94,1.29-1.41,2.37-.79.09.05.15.15.24.18.23.07.55.24.7.15.28-.17.44-.5.33-.88-.1-.36-.21-.73-.26-1.1-.1-.69-.22-1.38-.24-2.08-.04-1.3.27-2.53.87-3.68.15-.28.42-.54.69-.72.81-.51,1.31-.36,1.77.46.1.17.18.35.29.52.28.46.53.48.86.05.21-.28.37-.61.54-.93.21-.4.39-.83.6-1.23.45-.82.9-1.64,1.37-2.45.52-.91,1.4-1.4,2.32-1.8.57-.24,1.79.25,2.12.87.36.68.73,1.39.92,2.13.34,1.33.61,2.68.78,4.04.1.81,0,1.66-.06,2.48-.05.6.02.71.65.68.2,0,.4,0,.59.02.96.08,1.23.38,1.46,1.32.21.88.07,1.71-.19,2.53-.26.81-.6,1.61-1.2,2.23-.62.64-1.3,1.24-1.97,1.82-.51.44-1.05.85-1.59,1.26-.19.15-.4.26-.6.39.04.07.08.14.12.21.32.14.63.31.96.42.87.3,1.18,1.03,1.33,1.83.14.78-.27,1.36-.85,1.8-.74.56-1.53.96-2.52.96-.54,0-1.08.26-1.62.37-.21.04-.43.04-.64,0-.65-.12-1.19.17-1.88.46.29.19.47.32.66.43.34.19.41.44.26.8-.24.6-.71.94-1.24,1.25-.24.14-.49.26-.7.44-1.35,1.11-2.87,1.93-4.49,2.59-.66.27-.88.18-1.44-.4-.46.71-.93,1.44-1.35,2.09-.22.06-.41.06-.5.15-.83.81-1.65,1.63-2.47,2.46-.25.25-.34.53-.3.92.09.86.07,1.71.48,2.55.23.47.14,1.15.06,1.72-.14.94-.2,1.88-.57,2.79-.58,1.39-1.6,2.09-3.1,2-.47-.03-.91-.02-1.39.13-.55.17-1.21.12-1.79.01-.28-.05-.55-.44-.71-.74-.29-.56-.63-1.07-1.25-1.27-.9-.29-1.44-1.04-2.11-1.61-.12-.1-.15-.36-.15-.54.03-1.12,0-2.25.15-3.36.13-.94.27-1.96,1.37-2.39.41-.62.95-1.22.99-1.99.07-1.23.04-2.47.06-3.7,0-.4.02-.8.08-1.19.09-.66,0-.77-.54-1.15-.5-.35-.93-.79-1.39-1.2-.06-.05-.1-.13-.17-.17-1.08-.59-1.72-1.67-2.69-2.37-.19-.14-.33-.34-.55-.58ZM55.33,84.53c-.06-.04-.09-.08-.14-.09-.01,0-.07.05-.07.08,0,.04.04.08.06.13.04-.03.08-.06.15-.12Z"/>
</svg>