<?xml version="1.0" encoding="UTF-8"?>
<svg id="Class_Icons" data-name="Class Icons" xmlns="http://www.w3.org/2000/svg" viewBox="0 0 100 100">
  <defs>
    <style>
      .cls-1 {
        fill: #00040c;
      }
    </style>
  </defs>
  <path id="Barbarian" class="cls-1" d="M28.76,8.16C30.81,5.26,33.06,2.5,35.57,0c-.02,1.53-.36,3.05-.26,4.58.31,1.8.2,3.7.98,5.38.28.65.39,1.46,1.04,1.86.92.63,1.71,1.47,2.7,1.99,1.29.43,2.53,1.11,3.92,1.08.18.69.32,1.4.51,2.09.35.06.71.12,1.06.18.1-1.09.13-2.19.26-3.28.93-.2,1.31-1.13,1.87-1.79.73-.84.71-2.03,1.04-3.05.92-.04,1.84-.04,2.76,0,.33,1.02.3,2.2,1.04,3.05.55.67.94,1.6,1.87,1.79.13,1.09.15,2.19.26,3.28.35-.06.71-.12,1.06-.18.19-.69.33-1.4.51-2.09.67-.03,1.34-.09,1.96-.36,1.01-.43,2.16-.61,2.98-1.4.93-.86,2.32-1.39,2.57-2.78.79-1.58.81-3.36,1.04-5.08.3-1.75-.17-3.51-.18-5.27,2.88,2.86,5.38,6.07,7.69,9.42.74,1.47,1.52,2.93,2.2,4.43.59,2.17,1.08,4.36,1.62,6.54.24,1.6.35,3.23.52,4.84-1.72.67-3.49,1.22-5.21,1.89,1.76.35,3.52.66,5.27,1.03-.18,1.96-.29,3.92-.54,5.87-.66,2.37-1.29,4.75-2.01,7.1-1.11,2.09-2.22,4.18-3.42,6.22-2.04,2.31-3.93,4.77-6.1,6.95-.14-1.65.73-3.2.47-4.84-.17-1.27-.14-2.56-.41-3.81-.45-1.19-.85-2.41-1.37-3.56-.69-1.01-1.43-2-2.17-2.98-1.35-.98-3.1-.69-4.66-.71-.22-.41-.45-.81-.69-1.21-.66,1.19-1.48,2.33-1.82,3.67-.3.74-1.15,1.18-1.3,1.98.06,4.68.16,9.37.21,14.05-.1,1.01,1.01,1.42,1.55,2.09-.32.66-.96,1.2-.96,1.99-.07,1.58-.26,3.16-.23,4.75-.05,10.33-.09,20.67-.14,31-.03.57.44.95.73,1.38-.4.11-.83.15-1.21.35-.38.39-.49.99-.9,1.35-.93.28-1.93.28-2.88.09-.76-.09-.75-1.09-1.29-1.48-.36-.16-.76-.21-1.14-.31.28-.43.76-.82.73-1.38-.05-9.62-.09-19.23-.13-28.85.02-2.44-.05-4.87-.29-7.29-.17-.6-.64-1.04-.9-1.59.53-.68,1.65-1.08,1.55-2.09.05-4.68.15-9.37.21-14.05-.15-.81-1-1.24-1.3-1.98-.34-1.34-1.16-2.48-1.82-3.67-.36.48-.5,1.41-1.28,1.23-1.59-.1-3.73-.2-4.63,1.43-.7,1.06-1.67,1.97-2.02,3.23-.4,1.27-1.12,2.46-1.14,3.82-.07,1.18-.26,2.36-.27,3.55.13,1.3.62,2.55.52,3.87-1.81-1.76-3.33-3.81-5.02-5.68-1.5-1.52-2.35-3.54-3.34-5.41.77-1.86,1.93-3.56,2.77-5.4-1.45.66-2.84,1.46-4.28,2.16-.67-2.71-1.81-5.34-1.89-8.17-.12-1.66-.33-3.32-.4-4.99.19-2.08.4-4.16.64-6.23.43-1.83.86-3.67,1.35-5.48,1.44-.17,2.89-.28,4.34-.47-.82-1.28-1.72-2.5-2.54-3.78.42-.95.93-1.86,1.59-2.67"/>
</svg>