<?xml version="1.0" encoding="UTF-8"?>
<svg id="Class_Icons" data-name="Class Icons" xmlns="http://www.w3.org/2000/svg" viewBox="0 0 100 100">
  <defs>
    <style>
      .cls-1 {
        fill: #00040c;
      }
    </style>
  </defs>
  <g id="Warlock">
    <path class="cls-1" d="M32.81,37.77c.3-.08.6-.18.9-.22.74-.09,1.4-.41,2-.82.4-.27.59-.72.62-1.21.02-.28,0-.57,0-.88.28,0,.53-.03.76,0,.62.1,1.22.03,1.84-.1,1.13-.23,2.15-.71,3.16-1.22.39-.19.76-.45,1.11-.71.72-.53,1.43-1.07,2.13-1.63.32-.25.6-.56.9-.83.06-.06.15-.08.32-.16-.03.26-.06.45-.08.63-.05.45.11.62.56.61.16,0,.34-.02.48-.09.86-.45,1.83-.74,2.49-1.59.64.84,1.6,1.11,2.44,1.58.1.06.23.08.35.1.48.06.86,0,.72-.73-.02-.13-.02-.27-.04-.43.34,0,.52.23.68.42.83.95,1.91,1.59,2.91,2.33.99.73,2.14,1.21,3.31,1.56.87.26,1.75.49,2.68.26.13-.03.27-.01.41,0,.06,0,.11.02.21.03,0,.19,0,.37,0,.54-.02.8.29,1.36,1.01,1.77.73.42,1.54.53,2.32.74.07.02.13.04.22.07-.43.13-.85.19-1.2.38-1.79.99-3.63,1.91-5.24,3.18-1.28,1-2.53,2.03-3.76,3.09-.38.33-.66.78-.95,1.21-.22.32-.4.52-.86.46-1.27-.16-2.27.4-3.06,1.35-.21.25-.41.44-.77.48-.52.07-.73.48-.85.95-.12.43-.31.53-.72.41-.1-.03-.2-.14-.26-.24-.07-.11-.08-.26-.13-.38-.17-.42-.44-.71-.93-.77-.17-.02-.37-.14-.48-.28-.9-1.13-2.01-1.73-3.49-1.51-.1.01-.21-.06-.31-.11-.04-.02-.07-.06-.09-.1-.73-1.5-2.14-2.35-3.35-3.36-1.78-1.48-3.69-2.81-5.8-3.82-.07-.03-.13-.08-.19-.12-.6-.39-1.2-.77-1.97-.73,0-.04,0-.08,0-.11ZM50.01,43.27c-.53-1.33-1.03-2.59-1.51-3.86-.05-.14-.01-.33.03-.48.18-.72.37-1.44.56-2.19-1.24-.43-2.44-.87-3.71-1.11-.32-.06-.54.02-.69.34-.58,1.18-.83,2.4-.61,3.72.22,1.35.82,2.5,1.82,3.41,1.56,1.41,3.43,1.85,5.44,1.42,3.91-.83,5.79-5.02,4.04-8.47-.23-.46-.32-.52-.82-.4-.69.17-1.37.36-2.05.57-.53.16-1.05.34-1.59.52.16.57.28,1.07.44,1.57.19.6.19,1.17-.08,1.77-.45,1.02-.83,2.07-1.27,3.18Z"/>
    <path class="cls-1" d="M46.26,53.17c1.21-.32,2.36-.64,3.52-.94.13-.03.27-.04.4,0,1.19.31,2.37.63,3.6.95-.11.62-.22,1.22-.33,1.82-.29,1.52-.59,3.03-.89,4.55-.2,1-.39,2-.58,3-.06.31-.12.63-.14.94-.05.91-.06,1.82-.1,2.73-.08,1.5-.18,2.99-.26,4.49-.04.71-.07,1.42-.1,2.13-.07,1.58-.12,3.15-.19,4.73-.05,1.12-.11,2.24-.17,3.36-.08,1.45-.18,2.9-.26,4.35-.04.71-.07,1.42-.1,2.13-.07,1.56-.12,3.12-.19,4.68-.05,1.17-.12,2.33-.18,3.5-.07,1.39-.12,2.79-.19,4.18,0,.08-.03.16-.05.24-.03,0-.06,0-.09,0-.01-.14-.03-.28-.04-.42-.06-1.7-.12-3.39-.19-5.09-.08-1.82-.18-3.63-.27-5.45-.06-1.23-.12-2.45-.19-3.68-.06-1.2-.11-2.39-.18-3.59-.08-1.42-.19-2.84-.26-4.26-.06-1.12-.06-2.24-.12-3.37-.07-1.28-.16-2.57-.24-3.85-.04-.64-.07-1.27-.1-1.91-.04-.89-.05-1.79-.1-2.68-.09-1.55-.15-3.1-.51-4.62-.38-1.63-.63-3.3-.95-4.95-.16-.85-.35-1.7-.52-2.56-.03-.13-.02-.27-.03-.42Z"/>
    <path class="cls-1" d="M47.32,25.73c.12-.69.23-1.34.35-1.99.23-1.24.46-2.48.69-3.71.23-1.24.46-2.48.68-3.72.16-.89.31-1.78.33-2.69.04-1.57.16-3.15.24-4.72,0-.09,0-.18,0-.27.06-1.47.13-2.94.18-4.41.04-1.21.07-2.42.1-3.64,0-.19,0-.38,0-.57.04,0,.07,0,.11-.01.02.09.06.18.06.26.04,1.2.06,2.4.1,3.59.06,1.67.12,3.33.19,5,.05,1.12.1,2.24.17,3.36.1,1.56.16,3.13.51,4.67.35,1.55.57,3.13.86,4.69.22,1.22.46,2.44.69,3.67.03.15.03.3.05.49-.6.26-1.23.48-1.8.79-.6.33-1.12.33-1.72,0-.56-.31-1.18-.52-1.82-.79Z"/>
    <path class="cls-1" d="M62.16,73.93c-2.44-6.14-4.89-12.28-7.34-18.44.11-.07.21-.14.31-.19,1.06-.56,2.13-1.12,3.2-1.68.4-.21.6-.12.68.34.14.81.26,1.63.39,2.45.17,1.05.35,2.1.52,3.16.16,1.01.32,2.02.48,3.03.17,1.04.35,2.07.52,3.11.14.83.26,1.66.39,2.49.17,1.02.33,2.05.5,3.07.13.81.27,1.63.41,2.44.01.07,0,.14-.01.21-.02,0-.04,0-.05.01Z"/>
    <path class="cls-1" d="M37.78,73.91c.07-.5.14-1,.22-1.49.17-1.05.35-2.1.52-3.15.16-1.01.32-2.02.49-3.02.17-1.05.34-2.1.52-3.15.17-1.02.35-2.04.51-3.06.17-1.01.33-2.02.49-3.02.16-1.01.31-2.02.48-3.02.08-.49.27-.57.7-.35,1.16.6,2.31,1.21,3.5,1.83-2.46,6.18-4.91,12.32-7.35,18.47-.03,0-.05-.01-.08-.02Z"/>
    <path class="cls-1" d="M61.79,49.36c.71.55,1.38,1.07,2.05,1.59,1.06.82,2.12,1.64,3.17,2.48.14.11.27.29.33.46,1.09,2.97,2.16,5.94,3.24,8.91.01.04.01.08.03.19-.27-.29-.5-.54-.72-.8-1.13-1.3-2.25-2.62-3.38-3.92-.89-1.03-1.8-2.05-2.7-3.07-1-1.14-1.98-2.29-2.98-3.42-.15-.17-.15-.29-.06-.48.18-.41.32-.84.52-1.25.12-.24.32-.43.52-.69Z"/>
    <path class="cls-1" d="M29.4,62.91c.39-1.08.79-2.16,1.18-3.24.67-1.85,1.36-3.68,1.98-5.54.16-.47.47-.72.8-.98,1.52-1.2,3.04-2.38,4.56-3.57.08-.06.18-.11.26-.16.54.31.6.91.89,1.38.39.64.12,1.04-.31,1.51-1,1.1-1.96,2.23-2.93,3.35-.72.82-1.44,1.63-2.16,2.46-.73.83-1.45,1.67-2.17,2.5-.5.57-1,1.14-1.5,1.71-.18.2-.36.41-.54.61-.02,0-.05-.02-.07-.02Z"/>
    <path class="cls-1" d="M42.25,28.95c-.63-.12-1.26-.24-1.89-.38-1.11-.25-2.21-.53-3.32-.78-.2-.05-.36-.11-.44-.33-.75-2.24-1.51-4.48-2.2-6.77,2.64,2.7,5.28,5.41,7.92,8.11-.02.05-.05.1-.07.15Z"/>
    <path class="cls-1" d="M65.68,20.72c-.36,1.06-.72,2.12-1.08,3.18-.38,1.13-.76,2.26-1.13,3.4-.09.28-.23.43-.55.5-1.47.32-2.94.69-4.41,1.03-.25.06-.51.04-.82-.02l7.93-8.13s.04.03.07.04Z"/>
  </g>
</svg>