<?xml version="1.0" encoding="UTF-8"?>
<svg id="Class_Icons" data-name="Class Icons" xmlns="http://www.w3.org/2000/svg" viewBox="0 0 100 100">
  <defs>
    <style>
      .cls-1 {
        fill: #00040c;
      }
    </style>
  </defs>
  <g id="Cleric">
    <path class="cls-1" d="M48.28,13.31c.63-4.43,1.05-8.89,1.72-13.31.67,4.42,1.08,8.89,1.72,13.31.72,1.85,1.59,3.64,2.36,5.47.2.6.89.69,1.37.96,1.06.44,2.05,1.08,3.16,1.37,1.55.26,3.09.63,4.64.84,1.49-.37,2.91-1.04,4.39-1.45-.41,2.01-.92,4-1.31,6.01.1,1.26.49,2.49.7,3.73.18,1.87,1.61,3.24,2.49,4.81,1.21,1.03,2.65,1.76,3.94,2.69,1.7,1.41,4.04,1.26,6.06,1.89-1.43.99-3.28,1.33-4.5,2.65-1.51,1.43-3.13,2.77-4.59,4.25-1.07,2.6-2.09,5.23-3.08,7.86-.09,1.79.01,3.6.03,5.4.29,1.8.82,3.55,1.15,5.35-2.37-3.17-4.61-6.44-6.91-9.66,6.61-6.57,7.43-17.88,2.14-25.49-2.39-3.51-6.12-6.17-10.34-6.9-1.49-.3-3.01-.2-4.52-.22-3.36.04-6.66,1.32-9.25,3.44-3.24,2.61-5.42,6.42-6.34,10.46-1.53,6.56.29,13.91,5.09,18.71-2.31,3.22-4.55,6.49-6.92,9.66.33-1.79.87-3.55,1.15-5.35.02-1.8.12-3.61.03-5.4-1-2.63-2.01-5.26-3.09-7.86-1.46-1.48-3.07-2.82-4.59-4.25-1.21-1.32-3.06-1.66-4.5-2.65,2.02-.63,4.36-.47,6.06-1.89,1.26-.88,2.61-1.65,3.83-2.57.81-1.19,1.6-2.4,2.3-3.65.36-1.63.73-3.26.99-4.9-.35-2.05-.91-4.08-1.31-6.12,1.45.41,2.85,1.03,4.3,1.44,1.34-.11,2.66-.49,3.99-.7,1.47-.16,2.71-1.02,4.05-1.57.44-.23,1.05-.35,1.22-.89.76-1.83,1.64-3.62,2.36-5.47"/>
    <path class="cls-1" d="M49.44,30.71c.23-.9.32-1.82.56-2.71.24.89.34,1.82.56,2.71,1.28.13,2.5.54,3.7.96.9-.73,1.48-1.77,2.33-2.55-.24,1.14-.71,2.22-1.04,3.33,1.09.8,2.03,1.78,2.83,2.86,1.15-.37,2.28-.81,3.45-1.09-.81.91-1.83,1.6-2.68,2.48.45,1.2.78,2.45.91,3.73,1.16.34,2.46.33,3.54.84-1.2.23-2.41.46-3.6.76-.15,1.22-.49,2.4-.99,3.51.87,1.02,2,1.77,2.92,2.74-1.3-.35-2.55-.85-3.86-1.19-.76.96-1.66,1.8-2.64,2.52.33,1.22.9,2.38,1.13,3.62-.94-.84-1.56-2-2.53-2.79-.53-.03-1.03.23-1.52.39-.09,1.66-.01,3.32-.08,4.97-.03.58-.86.79-.75,1.43.16,10.8.32,21.6.47,32.41-.08,1.58,1.23,2.85,1.16,4.43,0,1.35.1,2.71.09,4.06-.7.49-1.44.92-2.15,1.41-.7.58-1.83.58-2.53,0-.7-.49-1.44-.92-2.14-1.41,0-1.35.08-2.71.09-4.06-.07-1.58,1.24-2.85,1.16-4.43.15-10.84.32-21.68.47-32.51.03-.57-.73-.76-.74-1.32-.07-1.66,0-3.32-.08-4.97-.49-.17-.99-.43-1.52-.4-.98.8-1.59,1.96-2.53,2.79.24-1.24.8-2.4,1.14-3.62-.99-.72-1.88-1.56-2.64-2.52-1.3.33-2.56.84-3.86,1.18.91-.98,2.05-1.72,2.92-2.74-.51-1.11-.85-2.3-.99-3.51-1.19-.3-2.4-.53-3.6-.76,1.08-.51,2.38-.5,3.54-.84.12-1.28.45-2.53.9-3.73-.85-.88-1.87-1.57-2.68-2.48,1.17.28,2.3.72,3.45,1.09.81-1.08,1.75-2.06,2.83-2.86-.33-1.12-.8-2.19-1.04-3.33.84.8,1.46,1.8,2.33,2.58,1.19-.48,2.43-.84,3.71-.99"/>
  </g>
</svg>