<?xml version="1.0" encoding="UTF-8"?>
<svg id="Class_Icons" data-name="Class Icons" xmlns="http://www.w3.org/2000/svg" viewBox="0 0 100 100">
  <defs>
    <style>
      .cls-1 {
        fill: #00040c;
      }
    </style>
  </defs>
  <g id="Fighter">
    <path class="cls-1" d="M2.3,4.44c.53-.33,1.02-.72,1.59-1,.92.88,1.3,2.07,1.71,3.23,1.34,1.36,3.03,2.36,4.32,3.79,2.98,3.08,5.94,6.19,8.94,9.26.14-.47.22-.95.32-1.43.57-.06,1.32.26,1.74-.28,1.3-1.5,2.62-2.97,3.75-4.6.39-.68,1.25-.64,1.92-.76.33.98.52,2.02.64,3.05-.96.19-2.23-.24-2.86.71-.92,1.17-2.02,2.21-2.89,3.42.17.78.65,1.51.99,2.25.43-.09.86-.21,1.29-.32,1.86,2.13,3.88,4.13,5.81,6.2.3.29.26.74.26,1.12-.03,3.02.02,6.04-.01,9.05-3.85-3.62-7.69-7.26-11.48-10.94.08-.42.16-.83.22-1.25-.71-.39-1.44-.74-2.21-.99-1.21.9-2.25,2-3.43,2.93-.94.63-.46,1.91-.7,2.85-1.01-.08-1.99-.38-2.98-.57.04-.72.05-1.62.75-2.04,1.63-1.13,3.1-2.46,4.59-3.76.51-.41.19-1.12.2-1.67.45-.19.95-.21,1.43-.3-.13-.38-.5-.6-.77-.87-2.79-2.69-5.58-5.4-8.37-8.09-1.04-.93-1.84-2.08-2.74-3.14-.49-.56-.88-1.34-1.69-1.48-1.01-.22-1.91-.77-2.63-1.5.67-1.02,1.17-2.27,2.3-2.88"/>
    <g>
      <path class="cls-1" d="M81.18,10.12c.26-.22.49-.46.75-.69.87.72,1.63,1.57,2.41,2.38-.88.74-1.64,2.38-.47,3.2,2.58,2.78,5.79,5.02,9.45,6.09,1.15.3,2.3.62,3.47.86,1.08.2,2.14-.2,3.21-.11-1.2,3.71-3.19,7.11-5.42,10.29-1.39,1.42-2.63,3.03-4.27,4.19-2.66,2.03-5.14,4.35-8.17,5.82-2.15.59-4.23,1.53-6.47,1.66,2.14-1.78,3.26-4.39,4.46-6.84.73-2.88.31-5.9-.44-8.72-1.59-1.92-2.82-4.11-4.45-5.99-.69.56-1.65.56-2.35,1.08-2.96,2.89-5.81,5.88-8.8,8.73-.05-1.47-.01-2.94-.02-4.41-.05-.48.37-.78.66-1.08,1.88-1.84,3.72-3.72,5.6-5.57.67-.63.51-1.72,1.17-2.36,2.66-2.64,5.3-5.29,7.94-7.93.46-.48,1.25-.17,1.75-.6"/>
      <path class="cls-1" d="M30.41,18.25c1.45.93,2.74,2.09,4.19,3.02,2.76,1.53,6.4,2.25,9.24.53,1.65-.43,2.11-2.24,3.08-3.43.7.92,1.21,1.97,1.96,2.85.84.52,1.79.87,2.68,1.31,2.03.53,4.19.21,6.14-.5,2.16-.84,3.81-2.54,5.73-3.78,0,18.7-.06,37.4-.15,56.09-.32,2.19-.52,4.41-.94,6.57-1.19,1.5-2.49,2.92-3.74,4.38-2.31,2.09-5.06,3.69-7.13,6.04-1.62,1.64-3.16,3.37-4.53,5.23-1.82-2.39-3.87-4.58-5.99-6.7-1.81-1.49-3.7-2.89-5.51-4.37-1.23-1.32-4.05-4.7-4.07-5.1-.25-2.16-.61-4.32-.85-6.48-.04-13.41,0-26.83-.09-40.23-.02-5.14-.06-10.29-.02-15.43"/>
      <path class="cls-1" d="M14.92,76.38c4.83-5.11,9.99-9.9,14.9-14.92.15,1.6.06,3.22.01,4.81-2.24,2.37-4.67,4.58-6.85,7.01-5.75,5.66-11.47,11.34-17.16,17.06-.75.9-.88,2.37-2.12,2.8-1.72.05-3.26-1.52-3.12-3.23.55-1.33,2.2-1.35,3.11-2.3,3.74-3.75,7.48-7.49,11.23-11.23"/>
      <path class="cls-1" d="M64.07,64.37s13.69,14.44,20.56,21.64c.43.43.84.9,1.18,1.4,1.7,2.42,3.48,4.8,5.17,7.23-2.46-1.74-4.89-3.54-7.34-5.29-.62-.43-1.15-.97-1.68-1.49-5.94-5.66-17.94-17.1-17.94-17.1l.05-6.39Z"/>
    </g>
  </g>
</svg>