<?xml version="1.0" encoding="UTF-8"?>
<svg id="Class_Icons" data-name="Class Icons" xmlns="http://www.w3.org/2000/svg" viewBox="0 0 100 100">
  <defs>
    <style>
      .cls-1 {
        fill: #00040c;
      }
    </style>
  </defs>
  <g id="Artificer">
    <path id="Erlenmeyer" class="cls-1" d="M34.98,69.28h23.93c1.18-.93,2.05-4.16,1.81-7.81.54-8.88-7.55-14.33-9.98-15.53v-12.41h1.79c1.21,0,1.42-2.17,0-2.42h-11.17c-1.42.25-1.21,2.42,0,2.42h1.79v12.41c-2.43,1.2-10.52,6.65-9.98,15.53-.25,3.65.62,6.88,1.81,7.81Z"/>
    <path id="Artificer_Ring" class="cls-1" d="M81.73,76.49c-.84,0-1.65.11-2.43.3h0s-5.43-5.33-5.43-5.33l-.12-4.34-.03.03c1.64-2.84,2.84-5.96,3.5-9.28v.02s7.81-3.76,7.81-3.76v-4.39l-7.83-4.18c-.98-4.77-3.06-9.14-5.96-12.84l.04.04,5.16-5.18,4.21-.21,6.57,6.6,12.76-12.79-15.16-15.35-22.7-1.83c-.84-.08-2.47,2.25-1.41,3.41l9.57,9.59-.39,4.38-5.18,5.13.04.04c-3.41-2.42-7.33-4.16-11.58-5.03h0l-4.05-7.71h-4.39l-4.05,7.71h0c-4.4.9-8.46,2.75-11.96,5.3l.03-.03-2.82-2.8-.17-1-.19-3.99,4.02-4.02-5.63-8.97c-3.82-1.65-7.73-2.08-12.37-1.78l-2.25,2.2,8.62,8.55-.02,4.42-2.96,2.81-4.41-.03L2.04,13.79.05,15.79c-.24,4.65.41,8.9,2.09,12.69l8.6,5.24,3.52-3.55h2.9l2.18.38,2.92,2.64h.01c-2.74,3.62-4.7,7.88-5.63,12.51l-7.62,4.07v4.39l7.62,3.67c.71,3.57,2.03,6.92,3.86,9.93h0s-.21,4.11-.21,4.11l-5.08,5.1c-.96-.32-1.99-.49-3.06-.49-5.39,0-9.76,4.37-9.76,9.76s4.37,9.76,9.76,9.76,9.76-4.37,9.76-9.76c0-.82-.1-1.61-.29-2.37l5.26-5.36,4.39-.12-.02-.02c2.9,1.71,6.1,2.97,9.5,3.66h0l3.98,7.59h4.39l3.99-7.59h0c3.76-.76,7.27-2.21,10.4-4.21l-.03.03,3.74.19,5.21,5.19h0c-.31.95-.48,1.96-.48,3.01,0,5.39,4.37,9.76,9.76,9.76s9.76-4.37,9.76-9.76-4.37-9.76-9.76-9.76ZM16.13,90.23l-3.97,1.65-3.97-1.65-1.65-3.97,1.65-3.97,3.97-1.65,3.97,1.65,1.65,3.97-1.65,3.97ZM46.94,26.75c13.82,0,25.02,11.2,25.02,25.02s-11.2,25.02-25.02,25.02-25.02-11.2-25.02-25.02,11.2-25.02,25.02-25.02ZM85.7,90.23l-3.97,1.65-3.97-1.65-1.65-3.97,1.65-3.97,3.97-1.65,3.97,1.65,1.65,3.97-1.65,3.97Z"/>
  </g>
</svg>