<?xml version="1.0" encoding="UTF-8"?>
<svg id="Class_Icons" data-name="Class Icons" xmlns="http://www.w3.org/2000/svg" viewBox="0 0 100 100">
  <defs>
    <style>
      .cls-1 {
        fill: #00040c;
      }
    </style>
  </defs>
  <path id="Paladin" class="cls-1" d="M28.85,4.16c.31-1.37.32-2.78.6-4.16.06,1.88.28,3.76.22,5.63-.39,1.92-.48,3.93-1.26,5.75-.68,2.16-1.93,4.19-1.95,6.5-.08,1.01-.26,2.04-.07,3.05.46,2.92,1.1,5.81,1.78,8.68,1.35,1.76,2.88,3.4,4.31,5.1,1.36.94,3.11.8,4.67.58.56-.43.92-1.06,1.43-1.55.69.59,1.33,1.23,2.02,1.82.86-1.13,1.46-2.46,2.5-3.45,1.47-1.53,2.93-3.07,4.4-4.6.54-.48.96-1.08,1.21-1.76.4-1.05,1.08-2.01,1.24-3.15h.23c.1.9.6,1.66.94,2.48.33.68.54,1.44,1.08,1.99,1.76,1.82,3.51,3.66,5.26,5.5.77.91,1.32,1.98,2.01,2.95.68-.56,1.29-1.2,1.97-1.77.69.58,1.08,1.8,2.17,1.63,1.55.2,3.53.13,4.49-1.31.94-1.11,1.89-2.21,2.84-3.31.42-.51.98-.97,1.07-1.67.57-2.98,1.38-5.91,1.7-8.93-.03-1.32-.17-2.64-.33-3.95-.86-2.85-2.38-5.52-2.68-8.53-.67-2.52-.22-5.11-.12-7.67.25,1.37.28,2.78.58,4.15.56,1.23,1.29,2.38,1.9,3.58.7,1.74,2.7,2.34,3.82,3.74.66,1.38,1.23,2.79,1.88,4.17.28.5.07,1.07-.03,1.6-.52,2.53-1,5.07-1.52,7.61-.12.52-.13,1.07,0,1.59.99-2.68,1.43-5.55,2.24-8.29.49,2.6,1.53,5.06,2.25,7.61.17.56.45,1.13.33,1.73-.63,3.66-1.79,11.58-1.86,11.99.94-1.53,1.7-3.16,2.66-4.68-.11,2.8-.36,5.61-.54,8.41-.83,2.67-2.74,4.78-4.35,7.01,1.14-.61,2.21-1.32,3.34-1.94-.33,1.51-.74,3-1.07,4.51-.08.28-.12.64-.41.79-1.78.99-3.62,1.88-5.38,2.92,1.61-.16,3.2-.52,4.81-.7-.8,1.33-1.72,2.58-2.55,3.89-.18.24-.33.61-.68.61-1.48.09-2.96.09-4.44.2,1.1.46,2.12,1.11,3.29,1.4-1.56.85-3.17,1.59-4.77,2.37-.99-1.1-1.92-2.25-2.9-3.35-.49-.47-.21-1.19-.21-1.78.02-1.89.57-3.83,0-5.69-.3-1.29-.58-2.58-.88-3.87-1.2.2-2.44.47-3.35,1.34.32,5.63.7,11.26.99,16.89-.09.81.52,1.41.87,2.06.48.92,1.63,1.04,2.35,1.72.51.5,1.26.39,1.91.49,1.17.2,2.22-.46,3.34-.66-1.71,1.61-3.62,2.99-5.31,4.62-2.32,3.47-4.58,6.98-6.87,10.47-1.7,2.38-2.66,5.17-3.98,7.76-.98,1.8-1.36,3.84-2.07,5.75-.18-6.97-.26-13.94-.41-20.91.04-2.55-.49-5.09-.22-7.64.64-2.3.68-4.75,1.58-6.97,1.88-2.75,3.82-5.48,5.1-8.57-1.23.05-2.45.18-3.68.25-.72,0-1.21.59-1.76.96-1.12.86-2.31,1.63-3.38,2.54-.52,1.01-.64,2.18-1.12,3.21-.65-1.01-.6-2.34-1.29-3.32-1.49-1.1-2.96-2.25-4.49-3.29-1.39-.25-2.82-.26-4.23-.36,1.1,2.57,2.55,4.94,4.18,7.21,1.99,2.35,1.68,5.63,2.52,8.43.07,1.74.08,3.51-.19,5.24-.17,7.74-.26,15.48-.45,23.22-.64-1.64-.96-3.4-1.72-5-1.48-2.9-2.55-6.04-4.46-8.71-1.97-3.01-3.94-6.01-5.91-9.02-.37-.54-.67-1.14-1.15-1.59-1.65-1.44-3.38-2.8-4.99-4.28,1.12.19,2.18.85,3.34.65.65-.1,1.4,0,1.91-.49.71-.67,1.86-.8,2.34-1.71.27-.51.69-.97.84-1.54.3-5.79.71-11.58,1.01-17.38-.97-.84-2.2-1.19-3.45-1.37-.37,1.72-.82,3.43-1.14,5.16.01,1.83.25,3.66.33,5.49.05.36-.23.62-.43.87-.93,1.04-1.8,2.14-2.75,3.17-1.59-.78-3.21-1.52-4.76-2.37,1.17-.28,2.19-.94,3.29-1.4-1.48-.11-2.96-.11-4.44-.2-.35,0-.5-.37-.68-.61-.83-1.31-1.75-2.56-2.55-3.89,1.61.18,3.2.54,4.81.7-1.75-1.04-3.6-1.93-5.37-2.92-.29-.15-.33-.51-.41-.79-.33-1.51-.75-3-1.07-4.51,1.13.62,2.2,1.34,3.34,1.95-1.01-1.54-2.36-2.86-3.2-4.52-.42-.97-1.19-1.85-1.19-2.96-.14-2.65-.4-5.29-.5-7.94.96,1.52,1.72,3.15,2.66,4.68-.07-.41-1.3-8.54-1.89-12.31.67-3.05,2.04-5.94,2.61-9.02.81,2.74,1.25,5.62,2.24,8.29.11-.46.14-.94.04-1.41-.57-2.84-1.12-5.69-1.7-8.53-.13-.5.16-.95.35-1.38.57-1.21,1.06-2.45,1.64-3.64,1.11-1.4,3.12-2,3.82-3.74.61-1.21,1.34-2.35,1.9-3.58"/>
</svg>