<?xml version="1.0" encoding="UTF-8"?>
<svg id="Class_Icons" data-name="Class Icons" xmlns="http://www.w3.org/2000/svg" viewBox="0 0 100 100">
  <defs>
    <style>
      .cls-1 {
        fill: #00040c;
      }
    </style>
  </defs>
  <g id="Ranger">
    <path class="cls-1" d="M22.16,3.49c.15-1.17.34-2.34.62-3.49.61,1.82.99,3.72,1.68,5.51,1.41,2.8,2.65,5.69,4.16,8.43,3.52,5.25,6.97,10.55,10.5,15.79,3.39,3.96,6.79,7.92,10.28,11.79-2.28,2.38-4.48,4.85-6.68,7.31-3.07-2-5.78-4.48-8.63-6.77-1.65-1.19-2.68-3-4.01-4.51-.87-.91-1.2-2.14-1.73-3.25-1.36-2.89-2.22-5.97-3.27-8.97-.72-3.34-1.73-6.64-1.98-10.06-.49-3.91-.8-7.85-.94-11.79"/>
    <path class="cls-1" d="M77.23,0c.28,1.12.45,2.26.62,3.4-.12,4.9-.66,9.78-1.26,14.64-.39,1.87-.84,3.73-1.25,5.59-.46,2.38-1.44,4.61-2.16,6.91-.63,2.02-1.61,3.91-2.43,5.86-1.09,1.67-2.44,3.16-3.68,4.71-4.15,3.47-8.27,7.03-12.92,9.84-1.49,1.11-2.88,2.35-4.31,3.54-1.74,2.08-3.49,4.17-5.2,6.29-1.72,2.71-3.4,5.44-5.08,8.17-1.25,2.48-2.43,5-3.65,7.5-1.36,3.17-2.59,6.39-3.9,9.58-.82,2.28-1.5,4.61-2.28,6.9-.47,1.33-.31,2.77-.64,4.13-.55.67-1.63.99-1.6,2.04-1.31-.27-2.42,1.66-3.58.61.72-1.89-2.38-2.8-1.57-4.64.04-.88.94-1.16,1.49-1.67-.14-.26-.28-.52-.42-.77.44-1.22.89-2.44,1.36-3.66.45-.96-.28-1.92-.44-2.86.78-.44,1.6-.89,2.53-.76.22-.93.31-1.9.65-2.8,1.33-3.31,2.66-6.62,3.99-9.92.37-.87.41-1.84.7-2.73.32-.56,1-.72,1.53-1,1.02-.48,1.62-1.48,2.41-2.24.89-.72.4-1.98.46-2.96-.28-.45-.92-.57-1.36-.86,1.25-2.52,2.89-4.82,4.31-7.24,1.7-2.81,3.44-5.62,5.56-8.15,1.84-1.95,3.52-4.06,5.49-5.88,3.5-3.87,6.9-7.84,10.29-11.8,3.2-4.73,6.31-9.52,9.49-14.27,2.03-2.83,3.21-6.14,4.82-9.21,1.01-1.97,1.31-4.19,2.04-6.26"/>
    <path class="cls-1" d="M54.13,51.82c.91-.68,1.94-1.19,2.91-1.78,2.3,3.64,4.52,7.33,6.81,10.99.37.56.61,1.2.94,1.78-.45.26-.95.42-1.35.77-.05.83-.16,1.7,0,2.51.65.8,1.37,1.57,2.1,2.3.68.66,1.84.68,2.3,1.56.28,1.07.41,2.19.89,3.2,1.25,3.1,2.49,6.2,3.74,9.29.36.92.46,1.92.68,2.88.93-.13,1.76.32,2.54.76-.17.79-.6,1.55-.59,2.37.45,1.4,1.03,2.76,1.51,4.15-.14.26-.28.52-.42.77.55.51,1.46.79,1.49,1.67.81,1.84-2.29,2.76-1.57,4.64-1.16,1.05-2.27-.88-3.58-.61.04-1.04-1.04-1.37-1.6-2.04-.33-1.35-.16-2.8-.64-4.13-.78-2.29-1.47-4.62-2.28-6.9-1.3-3.16-2.53-6.36-3.87-9.5-1.23-2.52-2.42-5.07-3.69-7.57-1.65-2.69-3.31-5.37-4.99-8.04-1.55-1.99-3.22-3.88-4.79-5.85,1.14-1.09,2.3-2.16,3.46-3.22"/>
    <g>
      <path class="cls-1" d="M46.16,71.03c.34-.85,1.2-1.19,2.01-1.46-.34.68-.53,1.46-.35,2.21.23.47.76.74.94,1.25.6,1.64,1.03,3.36,1.22,5.1-.15,1.61-.4,3.22-.59,4.83-.91.18-1.86.81-2.77.28-1.2-.25-1.76-1.4-2.53-2.22-.3-.38-.71-.72-.78-1.22-.15-1.86-.22-3.75.17-5.58.84-1.1,2.08-1.89,2.69-3.17"/>
      <path class="cls-1" d="M52.83,69.57c.68.27,1.49.47,1.84,1.18.62,1.51,2.18,2.33,2.93,3.69.25,1.88.35,3.83-.01,5.69-1.02,1.17-1.81,2.81-3.45,3.18-.84.38-1.69-.23-2.52-.37-.19-1.61-.44-3.21-.59-4.83.19-1.74.62-3.45,1.22-5.1.18-.51.7-.78.94-1.25.18-.75,0-1.53-.35-2.21"/>
      <path class="cls-1" d="M39.72,79.38c.47-.95,1.11-1.82,2.08-2.31-.6,1.84.07,3.76,1.17,5.27.6.72.68,1.68,1.02,2.52.44.91.37,2.02.07,2.96-.79,1.39-2.39,2.88-4.11,2.18-1.17-.81-1.82-2.15-2.52-3.35-.25-1.08-.51-2.35.13-3.35.61-1.37,1.28-2.71,2.16-3.93"/>
      <path class="cls-1" d="M59.21,77.07c.93.49,1.58,1.31,2.03,2.24.89,1.24,1.58,2.6,2.2,4,.65,1,.38,2.26.13,3.35-.7,1.2-1.35,2.53-2.52,3.35-1.69.69-3.27-.76-4.08-2.12-.73-1.66.15-3.36.68-4.93,1.19-1.7,2.28-3.77,1.55-5.89"/>
      <path class="cls-1" d="M46.31,86.09c1.94-.99,4.29-1.65,6.42-.8.78.41,1.95.39,2.32,1.33.66,1.29,1.34,2.56,2.03,3.83.85,1.31,2.39,1.78,3.78,2.28.66.2,1.04.8,1.45,1.31-.81,1.61-2.08,2.93-3.62,3.83-.73.29-1.54.37-2.29.1-2.41-.5-4.8-1.49-7.29-1.07-1.76.4-3.51.87-5.28,1.24-1.47.14-2.5-1.01-3.54-1.85-.67-.63-1.05-1.5-1.56-2.25,1.04-1.9,3.69-1.52,4.94-3.23,1.05-1.48,1.67-3.23,2.66-4.73"/>
    </g>
  </g>
</svg>