<?xml version="1.0" encoding="UTF-8"?>
<svg id="Layer_1" data-name="Layer 1" xmlns="http://www.w3.org/2000/svg" viewBox="0 0 256 256">
  <path d="M213.18,191c25.51-34.27,21.32-70.15,19.44-81.23h-95.08V22.18h-19.08v87.59H23.38c-1.05,6.15-7.51,45.04,19.44,81.23L0,233.82h26.99l28.57-28.57c18.97,17.72,44.43,28.57,72.44,28.57s53.47-10.85,72.44-28.57l28.57,28.57h26.99l-42.82-42.82ZM128,214.74c-22.69,0-43.4-8.74-58.91-23.02-4.69-4.32-8.92-9.16-12.58-14.41-9.6-13.79-15.33-30.48-15.56-48.45h174.08c-.23,17.97-5.95,34.66-15.56,48.45-3.65,5.25-7.87,10.09-12.58,14.41-15.51,14.28-36.2,23.02-58.91,23.02Z"/>
</svg>