<?xml version="1.0" encoding="UTF-8"?>
<svg id="Faction_Symbols" data-name="Faction Symbols" xmlns="http://www.w3.org/2000/svg" viewBox="0 0 100 100">
  <defs>
    <style>
      .cls-1 {
        fill: #b4a269;
      }

      .cls-2 {
        fill: #222;
      }
    </style>
  </defs>
  <g id="Zhentarim">
    <path class="cls-2" d="M51.8,97.01c-.01,1.65-1.36,2.99-3.01,2.99h-.02c-1.66-.01-3-1.37-2.98-3.03.01-1.65,1.36-2.98,3.01-2.98h.02c1.66,0,3,1.37,2.98,3.02M52.23,92.26s-.04-.22-.15-.53c-.12-.09-.13-.11-.15-.11-.02,0-.04.01-.11.01-.1,0-.3-.02-.73-.12.05-.06.17-.1.32-.17.05-.02.16-.04.2-.07.1-.09.02-.27-.03-.35-.02-.07-.11-.09-.22-.09-.15,0-.35.03-.47.03-.04,0-.06,0-.08,0,.06-.1.47-.31.53-.4-.39-.25-.09-.06-.33-.46-.07-.13-.21-.16-.31-.16-.05,0-.1,0-.13.01.37-.39,0-.52-.2-.58q.16-.17.15-.41c-.67-.95-1.15-1.25-1.54-1.25-.49,0-.84.48-1.24.75-.13.21-.37.05-.49.57-.12.37-.19.85-.39,1.31-.69,1.61.03,1.84.99,2.51-.02,0-.04,0-.06,0-.77,0-1.84-.48-1.98-.62-.23.21-.52.3-.9.3-.09,0-.18,0-.28-.01-.28-.4-.37-2.5-.38-2.98.33-1.24.74-2.05,1.09-2.47,1.19-1.44,1.4-3.37,1.99-5.12.15-.44.53-2.87.53-2.87.09-.6.08-2.38.07-3.65-.2-.81-.72-.95-1.82-1.1-.05,0-.11,0-.17,0-1.51,0-5.28,2.28-3.87,3.46-.12.07-.27.1-.44.1-1.39,0-4.33-2-5.23-2.43-1.7-.81-13.24-8.81-12.83-9.07.24.16.95.33,1.25.34-.9-2.99-3.78-5.89-5.38-8.55-1.01-1.68-4.82-7.82-5.15-9.2.36.24.46.7.75,1-.82-2.28-2.19-5.71-3.1-7.98-.73-1.83-1.55-3.83-2.96-5.25,1.81.38,5.16,6.72,5.22,6.72,1.66,2.69,3.37,4.02,6.04,5.22,0-.78-.56-1.73-.57-2.16l.09-.21c.98,2.39,5.49,5.78,5.45,5.81.83.71,3.91,2.57,5.02,2.57.13,0,.23-.02.31-.08.06-.26.2-.34.28-.79,0-.08.02-.16.03-.23,0,0,2.34,7.64,6.25,10.63.42-.28.41-.8.63-1.12.13.79-.06,1.4-.11,1.78.27.7,1.17,3.47,2.41,4.76.48.5,1.67.82,1.93,1.39-.2-.02-.39-.05-.59-.08-.78.81-.04,1.74.87,1.74.6,0,1.27-.4,1.64-1.49.07.02.14.02.21.02,1.13,0,.59-2.3.67-2.65.5.56,1.48.99,2.46,1.55-.14-.45-.3-.95-.5-1.53-1.99-5.79-3.6-10.63-3.2-17.26.48-7.87,9.65-18.33,8.56-24.7-1.08-6.3-3.15-8.75-3.13-14.26.01-3.84,3.46-7.17,3.14-12.27,2.41,4.63-.57,6.9-.46,11.78.1,4.47,2.36,6.2,4.12,12.66,2.29,8.4-5.77,20.06-6.16,26.82-.47,8.02,1.8,10.68,2.92,17.26.06.34.11.83.14,1.36.66-.57,1.25-1.22,1.88-1.88.07.35-.55,3.3.66,3.3.05,0,.1,0,.16-.01.35,1.12,1.03,1.53,1.63,1.53.89,0,1.63-.9.88-1.72-.2.03-.39.05-.59.07.28-.57,1.48-.87,1.96-1.35,1.27-1.26,2.23-4.01,2.53-4.71-.05-.37-.22-.99-.07-1.78.21.33.18.85.6,1.14,4.3-3.5,5.96-8.48,6.39-10.01.03-.16.07-.32.12-.47.04.66.21.73.28,1.03.07.06.18.09.33.09,1.13,0,4.22-1.77,5.06-2.45-.04-.04,4.55-3.31,5.59-5.68.39.17-.52,1.38-.53,2.36,2.7-1.14,4.44-2.43,6.16-5.08h0c.06,0,3.56-6.25,5.39-6.59-1.44,1.39-2.32,3.36-3.09,5.17-.95,2.25-2.37,5.65-3.25,7.91.3-.3.4-.76.77-.99-.36,1.38-4.32,7.42-5.37,9.08-1.66,2.62-4.27,5.14-5.24,8.12h.01c.19,0,.42.06.62.06.1,0,.2-.02.29-.07.4.26-11.33,7.98-13.05,8.76-.9.4-3.84,2.3-5.25,2.3-.19,0-.35-.04-.48-.11,1.44-1.15-1.62-3.63-3.07-3.63-.05,0-.09,0-.13,0-.79.09-1.05.42-1.18,1.08l-.1,1.74s-.46,3.36-.48,3.45c-.12.81-.18,1.9.04,2.7.06.47.17.86-.03,1.28-.37.84-.68.85-.92,1.43-.06.16-.1.31-.14.45-.01.22-.05,1.94,1.01,2.89,0,0,.19-.1.21-.56,0,0,.8,1.93,0,3.52M45.53,89.59l-.15-.45c-.06-.16-.1-.68-.1-.68-.47.4-.49.99-.51,1.15-.02.17.18.69.18.69l.14.11c-.04-.09.06-.22.06-.22.28-.11.38-.6.38-.6M53.14,13.68c.05.23.1.45.16.67,15.51,1.32,28.43,11.87,33.24,26.12.16-.23.31-.45.47-.67-5.03-14.33-18.16-24.87-33.87-26.12M53.88,91.13c-.02.22-.05.44-.1.67,19.86-1.91,35.45-18.68,35.45-39.04,0-2.59-.26-5.12-.74-7.58-.14.39-.29.81-.44,1.24.34,2.06.53,4.18.53,6.34,0,19.96-15.24,36.42-34.69,38.37M52.92,11.76c0,.16.02.31.03.46,16.11,1.16,29.64,11.73,35.11,26.23.56-.66,1.06-1.15,1.53-1.49-5.94-14.82-19.96-25.55-36.59-26.71-.06.48-.09.98-.08,1.51M13.19,39.23c.15.22.3.45.45.7,5.06-14.29,18.3-24.73,34.07-25.66-.02-.22-.04-.43-.05-.65-15.86.94-29.21,11.33-34.47,25.61M12.19,37.82c5.69-14.35,19.31-24.72,35.43-25.65.01-.68.11-1.34.27-1.99-16.73.82-30.95,11.32-37.17,26.01.45.39.94.93,1.47,1.63M90.74,40.17c-.48.78-.9,1.66-1.31,2.6.81,3.2,1.24,6.54,1.24,9.98,0,21.35-16.55,38.91-37.49,40.53l-.72,1.41c.12.19.22.38.3.59,22.22-1.43,39.87-19.96,39.87-42.54,0-4.38-.67-8.61-1.9-12.59M11.62,44.71c-.55,2.6-.84,5.3-.84,8.06,0,19.25,13.94,35.29,32.26,38.59-.02-.2-.04-.43-.06-.68-17.92-3.31-31.54-19.05-31.54-37.91,0-2.36.22-4.67.63-6.91-.15-.39-.3-.77-.45-1.15M45.78,93.61c-.28.09-.57.13-.9.13-.12,0-.26,0-.39-.02l-.61-.06-.35-.51c-.04-.06-.1-.14-.16-.28-19.28-3.18-34.04-19.95-34.04-40.12,0-3.59.47-7.08,1.35-10.4-.4-1-.78-1.93-1.23-2.77-1.35,4.15-2.09,8.57-2.09,13.16,0,21.79,16.44,39.81,37.56,42.32.26-.53.63-1,1.08-1.38-.08-.03-.15-.06-.23-.09"/>
    <path class="cls-1" d="M89.66,42.26c-.04.09-.08.19-.13.29.04-.1.09-.19.13-.29M52.92,11.22c0,.17,0,.35,0,.53,0-.18,0-.36,0-.53,0,0,0,0,0,0M90.07,41.39h0s0,0,0,.01c0,0,0,0,0-.01M13.19,39.23c5.27-14.28,18.62-24.68,34.47-25.61-.03-.44-.04-.88-.04-1.36,0-.03,0-.06,0-.09-16.12.94-29.74,11.3-35.43,25.65-.05-.07-.11-.13-.16-.2.42.54.88,1.18,1.37,1.93-.07-.11-.14-.22-.21-.32M53.3,14.35c-.06-.22-.12-.44-.16-.67,15.71,1.25,28.84,11.79,33.87,26.12.45-.62.86-1.14,1.25-1.58-.07.08-.13.15-.2.23-5.47-14.5-19.01-25.07-35.11-26.23.05.78.17,1.47.36,2.13M52.58,86.17l.86,2.08c.08.18.56,1.43.43,2.89,19.45-1.95,34.69-18.41,34.69-38.37,0-2.16-.19-4.27-.53-6.34.07-.19.14-.38.2-.57-.7,1.95-1.49,4.23-1.49,4.23-.3,1.17-2.13,4.15-4.98,8.6-.22.35-.41.64-.55.86-.59.94-1.3,1.86-1.98,2.75-.92,1.2-1.87,2.44-2.53,3.7,0,0,2.55.83-6.1,6.35-2.87,1.83-6.34,4.11-7.33,4.56-.18.08-.54.28-.93.5-1.9,1.05-3.58,1.92-4.86,1.92-.45,0-.84-.1-1.17-.31l-1.56-.98,1.25-1.02c-.32-.55-1.54-1.43-2.05-1.44,0,0-.02,0-.02,0l-.09,1.59v.05s0,.05,0,.05c-.17,1.26-.46,3.39-.48,3.48-.13.84-.13,1.67,0,2.15l.03.09v.09c.02.07.03.13.04.2.07.46.16,1.09-.17,1.8-.25.55-.5.87-.68,1.09M88.42,38.03c.1-.11.2-.21.3-.31-.1.1-.2.2-.3.31M90.67,52.76c0-3.44-.43-6.79-1.24-9.98-.09.19-.17.39-.25.59-.18.43-.52,1.34-.89,2.37.07-.19.13-.37.2-.55.48,2.45.74,4.98.74,7.58,0,20.35-15.58,37.13-35.45,39.04-.08.35-.2.71-.37,1.05l-.75,1.47h0l.52-1.03c20.94-1.63,37.49-19.18,37.49-40.53M11.55,37.04c.09.1.18.21.27.32-.09-.11-.18-.22-.27-.32M43,91.04s0,0,0,0c0,0,0,0,0,0M45.92,75.52c-.64,0-2.16.83-2.71,1.42l1.1.92-1.61.94c-.32.18-.69.28-1.1.28-1.29,0-2.97-.92-4.87-2.03-.38-.22-.75-.44-.93-.53-.98-.47-4.39-2.84-7.22-4.73-7.84-5.24-6.4-6.21-6.4-6.21l.57-.36c-.64-1.17-1.53-2.34-2.39-3.5-.73-.98-1.49-1.99-2.08-2.98-.13-.2-.29-.48-.49-.81-2.77-4.54-4.54-7.59-4.81-8.77l-.57-2.44c-.59-1.5-1.19-3.02-1.67-4.22l-.05-.13s0,0,0-.01c-.88,3.32-1.35,6.8-1.35,10.4,0,20.17,14.76,36.94,34.04,40.12-.11-.25-.24-.69-.33-1.53-18.32-3.3-32.26-19.34-32.26-38.59,0-2.76.29-5.46.84-8.06.15.38.3.76.45,1.15-.41,2.24-.63,4.55-.63,6.91,0,18.87,13.62,34.6,31.54,37.91h0c-.03-.34-.05-.74-.06-1.19v-.19s.04-.19.04-.19c.34-1.29.81-2.32,1.35-2.97.68-.82.97-1.94,1.29-3.12.14-.52.28-1.05.46-1.57.08-.26.31-1.59.48-2.65.07-.48.07-2.21.06-3.15-.14-.04-.36-.08-.68-.12M50.77,26.75c-.44-2.55-1.03-4.42-1.61-6.24-.63-1.97-1.22-3.86-1.44-6.24-15.77.93-29.02,11.37-34.07,25.66-.02-.03-.04-.06-.06-.09.45.71.94,1.51,1.46,2.42.03.05.06.1.08.14l.17.27c.92,1.48,3.01,4.03,3.59,3.8-.33-2.06.6-3.51.6-3.51.15.91.84,2.27,1.17,2.87h0c.46,1.11,2.35,2.68,5.03,4.89.13.11.26.21.36.32h0c.67.58,2.46,1.61,3.51,2.05l.81-5.56,1.71,5.59c.02.06,1.8,5.78,4.69,8.94l1.69-2.49.54,3.22c.04.26.05.5.06.72h0s-.02,1.32.42,2.52c.39.94.91,2.02,1.47,2.61.08.08.37.23.56.33.47.25.99.54,1.36.99,0,0,.69.74.63-.27,0-.23.03-3.29.04-3.71l1.62,1.37s-1.54-4.14-1.63-4.49c-.97-3.54-1.6-7.27-1.32-11.71.24-4,2.49-8.44,4.66-12.74,2.17-4.3,4.41-8.74,3.91-11.67M47.7,11.18s0,0,0,0c-.02.17-.04.34-.05.52.01-.17.03-.35.06-.52M55.32,65.23l.47,2.53c.05.26-.09,1.7-.08,2.12,0,0,0,.83.63.28.38-.45.92-.73,1.38-.96.19-.1.48-.25.56-.31.9-.9,1.89-3.26,2.1-5.8l.62-3.22,1.62,2.52c3.11-3.11,4.4-6.97,4.76-8.24.05-.21.1-.4.15-.58l2.11-6.22.43,6.25c1.07-.42,2.86-1.4,3.55-1.96h0c.11-.1.24-.2.38-.31.45-.36.87-.68,1.27-.98.14-.11.28-.22.42-.32,1.08-.85,3.89-3.31,4.63-6.35,0,0,.86,2.1.86,3.45,1.92-.86,3.61-3.94,3.64-3.99.62-1.02,1.19-1.91,1.72-2.67-4.81-14.25-17.72-24.79-33.24-26.12.29,1.04.73,2.02,1.25,3.18.73,1.63,1.64,3.65,2.44,6.56,1.51,5.56-1.06,12.18-3.34,18.03-1.36,3.49-2.64,6.79-2.78,9.21-.29,5.01.52,7.79,1.45,11,.43,1.45.86,2.96,1.23,4.75l1.76-1.87ZM10.08,40.9s0,0,0-.01c0,0,0,0,0,0,0,0,0,0,0,.01M46.01,93.7c-.17.14-.32.3-.46.47.14-.17.3-.32.46-.47"/>
  </g>
</svg>