<?xml version="1.0" encoding="UTF-8"?>
<svg id="Faction_Symbols" data-name="Faction Symbols" xmlns="http://www.w3.org/2000/svg" viewBox="0 0 100 100">
  <defs>
    <style>
      .cls-1 {
        fill: #b7c7d3;
      }

      .cls-2 {
        fill: #7b868c;
      }
    </style>
  </defs>
  <g id="Order_of_the_Gauntlet" data-name="Order of the Gauntlet">
    <path class="cls-2" d="M63.01,49.84c0-1.75-.99-1.67-1.52-2,1.6-.45.69-3.3.03-3.84-.74-.6-1.86-.58-2.54-.8-.62-.2-.58-.22-1.51-.37.71-2.19-.94-2.84-.94-2.84l-1.56-.24c.02-6.36.04-11.02.04-11.02,0,0-.18-2.69,2.04-3.92-1.85-.42-2.7-.61-2.7-1.62,0-.17.2-.58.74-.58.21,0,.47.06.79.21,1.15.55,4.7.56,7.28.72-.32-.58,1.05-2.22,1-3.48-.97.47-2.47.78-3.98.78-1.92,0-3.87-.51-4.76-1.87-.54.48-.9.56-1.09.56-.1,0-.15-.02-.15-.02-.53-.65-.47-1.93-.2-3.27.51-2.55-.1-7.17-1.07-9.55-.33-.81.55-.84.65-.84h0s.3-.4.07-1.06c-.14-.38-2.13-4.81-2.13-4.81-.3.36-2,4.42-2.13,4.81-.23.66.72,1.06.72,1.06h0s.33.02,0,.84c-.97,2.38-1.57,7-1.07,9.55.27,1.34.32,2.62-.2,3.27,0,0-.05.02-.15.02-.19,0-.55-.08-1.09-.56-.89,1.36-2.84,1.87-4.76,1.87-1.51,0-3.02-.32-3.98-.78-.05,1.26,1.32,2.9,1,3.48,2.57-.16,6.13-.17,7.28-.72.32-.15.58-.21.79-.21.55,0,.74.41.74.58,0,1.01-.85,1.21-2.7,1.62,2.22,1.23,2.04,3.92,2.04,3.92,0,0,.01,5.24.04,12.2-.86.59-2.15,1.37-3,1.88.02-.38.05-.66.09-.81-.45.19-1.43.24-2.41.24-1.32,0-2.63-.1-2.63-.1l.07,1.22c-1.06-.23-3.45-.96-4.79-3.02,0,0-2.3,7.48-9.31,10.5,4.91,2.02,7.1,4.83,7.95,8.15,1.88-1.41,5.22-2.36,6.74-2.36.04,0,.09,0,.13,0l.06,1.13s1.38-.28,2.8-.28c.71,0,1.42.07,1.98.28-.08-.38-.15-.86-.22-1.4l2.61,1.14c.04,8.93.08,16.7.1,17.57.06,2.16.44,5.66-.61,6.97-.13,2.37,3.91,17.96,3.91,17.96.39-1.48,4.05-15.58,3.91-17.96-1.05-1.31-.67-4.81-.61-6.97.02-.81.06-7.56.09-15.66.07,0,.15,0,.22,0,.05,0,.11,0,.16,0,1.48-.05.83,0,1.8-.23,1.44-.34.76-2.19.94-2.64.53.09.88.11,1.01.11.04,0,.06,0,.06,0,0,0,.12.06.33.06.18,0,.41-.04.69-.19.62-.33,1.15-.81,1.49-1.86.5-1.53-.71-2.13-.71-2.13,0,0,1.21-.13,1.76-.71.44-.47.36-.98.36-1.97"/>
    <path class="cls-1" d="M47.67,11.66c-.18,1.75-.19,3.51.07,4.84.08.4.13.73.15,1l-.58-.51-.83,1.27c-.53.8-1.9,1.28-3.67,1.28-1.25,0-2.59-.25-3.41-.66l-1.79-.87-.09,1.99c-.04.96.39,1.89.74,2.64.08.18.19.41.26.58l-.96,1.77,2.35-.15c.58-.04,1.22-.07,1.87-.09.44-.02.85-.04,1.24-.06l2.29,1.27c1.45.8,1.37,2.62,1.37,2.69v.04s0,.05,0,.05c0,0,.01,4.74.04,11.19l-2.1.87s-.4.14-1.91.14c-1.25,0-2.52-.09-2.53-.09l-1.48-.11.04.79c-.81-.38-1.7-.98-2.29-1.89l-1.52-2.34-.82,2.67c-.02.07-2.23,6.95-8.58,9.69l-2.85,1.22,2.86,1.18c4.06,1.67,6.35,3.98,7.19,7.27l.49,1.9,1.56-1.18c1.25-.94,3.37-1.68,4.85-1.97l.07,1.28,1.49-.31s1.27-.25,2.53-.25c.82,0,1.28.11,1.52.2l1.56.6c.04,9.73.07,14.82.09,15.53.01.36.03.75.05,1.17.07,1.48.2,4.24-.37,4.95l-.26.33-.02.42c-.05.94.41,3.45,1.04,6.34-19.94-1.38-35.74-18.03-35.74-38.31S27.57,12.87,47.67,11.66M88.42,50c0-19.37-14.4-35.42-33.06-38.04.15,1.65.14,3.29-.1,4.54-.08.4-.12.73-.15,1l.57-.51.83,1.27c.53.8,1.9,1.28,3.67,1.28,1.25,0,2.59-.25,3.41-.66l1.79-.87.08,1.99c.04.96-.39,1.89-.73,2.64-.08.18-.19.41-.26.58l.96,1.77-2.36-.15c-.59-.04-1.22-.07-1.87-.09-.44-.02-.85-.04-1.24-.06l-2.29,1.27c-1.45.8-1.37,2.62-1.37,2.68v.05s0,.05,0,.05c0,0-.01,4.12-.03,9.9l.45.07.14.02.13.05c.89.35,1.94,1.39,1.95,3.04.06.02.12.04.19.06l.25.08c.13.04.35.08.57.12.68.12,1.61.29,2.39.91.84.68,1.59,2.64,1.28,4.14-.03.13-.06.26-.11.39.44.45.8,1.16.8,2.34,0,.14,0,.27,0,.39,0,.83.02,1.68-.72,2.47-.19.21-.42.38-.66.51.13.52.13,1.13-.1,1.84-.4,1.22-1.07,2.05-2.12,2.61-.43.23-.87.34-1.31.34-.04,0-.07,0-.11,0-.07.91-.44,2.1-1.94,2.45-.23.05-.36.09-.44.12-.29.08-.43.1-.74.12-.03,6.38-.06,13.57-.09,14.42,0,.36-.03.75-.05,1.16-.07,1.48-.2,4.24.37,4.95l.26.33.02.42c.05.93-.36,3.25-.96,6.01,18.46-2.79,32.66-18.76,32.66-37.98M55.08,9.82c.08.48.15.98.21,1.48,19.05,2.59,33.78,18.95,33.78,38.7s-14.56,35.93-33.46,38.66c-.11.49-.22.99-.34,1.5,19.85-2.6,35.24-19.61,35.24-40.15S75.03,12.33,55.08,9.82M47.47,88.98c-20.37-1.31-36.54-18.28-36.54-38.98S27.25,12.17,47.74,11c.06-.5.14-.99.23-1.46C26.57,10.6,9.49,28.34,9.49,50s17,39.3,38.31,40.45c-.11-.49-.23-.99-.33-1.47"/>
  </g>
</svg>