<?xml version="1.0" encoding="UTF-8"?>
<svg id="Faction_Symbols" data-name="Faction Symbols" xmlns="http://www.w3.org/2000/svg" viewBox="0 0 100 100">
  <defs>
    <style>
      .cls-1 {
        fill: #1d4a33;
      }

      .cls-2 {
        fill: #988312;
      }
    </style>
  </defs>
  <g id="Emerald_Enclave" data-name="Emerald Enclave">
    <path class="cls-1" d="M56.8,88.14c5.6-4.51,9.12-10.64,10.03-18.04-.38.23-.73.32-1.05.32-.77,0-1.36-.53-1.74-1.07-3.77-5.39-3.62-11.89-4-17.99-.3-4.9-.1-8.7.51-10.56l3.66-1.26s2.09-.55,2.09-1.2c0-.46-3.26-1.2-3.26-1.2,0,0-4-.65-7.07-1.1,1.23-1.22,3.65-4.21,4.51-5.54.12-.18.28-.41.49-.67.95-.47,2.05-.8,3.27-.8.75,0,1.56.12,2.41.41,1.66.57.92,1.34,1.46,1.34h0c.56,0,1.19-.35,1.46-1.34.26-.96.46-1.8.6-2.54,1.27.55.66,1.22,1.17,1.22h0c.56,0,1.19-.36,1.46-1.33,1.8-6.56.38-7.49-.03-9.02-.29-1.09.39-.51,0-1.45-.39-.92-3.89-6.59-4.78-7.32.1.88.61,1.31-.5,2.07-.13.01-.26.02-.37.02-1.02,0-1.51-.4-2.74-.99-1.46-.7-2.35-3.16-2.46-3.87-.11-.71-.39-2.05-.63-2.39-.48.54-1.55,1.29-2.91,2.07-.95.55-2.67.78-4.47.78-1.49,0-3.03-.16-4.24-.44C46.83,5.6,39.99,1.82,38.64,0c.51,2.71,4.71,6.78,6.85,7.85,1,.5,2.38.99,3.89,1.46-1.05-.06-2.07-.2-2.93-.4-2.87-.67-9.7-4.44-11.05-6.26.51,2.71,4.71,6.78,6.86,7.85,3.26,1.63,10.68,3.21,13.45,4.23,1.85.68,7.89,4.95,8.31,7.29.09.52.06.97-.06,1.37-.33.08-.73.11-1.13.11-1.05,0-2.14-.25-2.33-.72-.29-.74-.16-.46.38-1.47-2.06.55-2.44,2.29-3.19,4.24-.12-.09-.33-.15-.43-.21q-.61-.38-.07-1.38c-2.46,1.17-2.02,3.91-3.96,6.64-.81.4-1.44.58-1.95.58s-.89-.18-1.21-.48c-.7-.67-.87-2.66-.76-4.37-.75.52-1.43.72-2.07.72-1.19,0-2.19-.73-3.09-1.49-1.57-1.32-1.03-3.52-.84-5.14-1.95,1.47-1.64,4.94-1.24,6.09.42,1.22,1.46,2.18,2.46,3.14-.18.03-.35.05-.53.05-1.19,0-2.19-.73-3.09-1.49-1.57-1.32-1.02-3.52-.83-5.14-1.95,1.47-1.64,4.94-1.25,6.09.91,2.67,4.86,4.13,4.73,7,0,.02,0,.03,0,.05-.27.02-.42.03-.42.03,0,0-2.43.48-3.45.48-.05,0-.1,0-.15,0-.46-.03-.8-.05-1.06-.05-.89,0-.96.25-1.84,1.41-1.08,1.41-2.55,1.22-3.7,2.63-1.43,1.74-5.25,1.57-5.3,2.66-.08,1.72-1.46,3.88-1.35,4.29.12.41.22.34.47.54,1.07.81.48.27,6.49,3.48,0,0,.75-2.06,3.79-3.62.76-.39,1.31-.56,1.75-.61,1.44.14,1.66.63,1.66.63,0,0,5.57.42,3.66,4.23,2.27.75-2.49,12.12-4.83,15.83-1.55,2.46-2.37,2.32-3.25,2.46-.25,1.41,5.11,13.11,8.68,15.93,3.57,2.82,6.27,7.52,7.02,13.49.93-5.3,1.47-8.96,5.07-11.86M40.77,40.53c-.8.21-2.28,1.11-2.28,1.11,0,0,.16-1.97,1.41-2.7.4-.24,1.16-.41,1.84-.41.76,0,1.43.22,1.42.81-.01.98-1.73,1.02-2.39,1.2M89.39,50c0-12.33-5.7-23.35-14.59-30.58-.12-.46-.26-.83-.41-1.17,9.52,7.33,15.67,18.83,15.67,31.75,0,19.56-14.09,35.87-32.64,39.36.07-.06.15-.13.22-.18.29-.24.58-.48.86-.72,17.65-3.9,30.89-19.66,30.89-38.46M10.61,50c0,20.23,15.33,36.94,34.98,39.14.18.23.36.47.54.73-20.28-1.96-36.19-19.09-36.19-39.87,0-18.85,13.1-34.7,30.66-38.94.29.2.56.37.8.5-17.6,3.93-30.8,19.67-30.8,38.44M47.07,91.43c.36.65.71,1.35,1.04,2.07-23.14-.99-41.66-20.12-41.66-43.5,0-19.64,13.08-36.28,30.98-41.69.56.58,1.13,1.13,1.7,1.61C21.48,14.71,8.46,30.86,8.46,50c0,21.92,17.07,39.92,38.61,41.43M93.55,50c0,22.35-16.92,40.81-38.62,43.26.33-.79.68-1.52,1.07-2.16,20.07-2.92,35.55-20.23,35.55-41.11,0-13.89-6.86-26.2-17.37-33.75-.04-.15-.09-.3-.15-.43-.18-.44-.98-1.82-1.91-3.31,12.82,7.59,21.44,21.55,21.44,37.5"/>
    <path class="cls-2" d="M41.41,11.56c.08.05.17.1.25.14,2.16,1.08,5.85,2.08,9.1,2.97,1.8.49,3.51.96,4.49,1.32,1.26.46,3.85,2.29,5.63,3.93l-.34.09c-1.48.4-2.34,1.26-2.92,2.26l-.99.47c-1.96.93-2.54,2.57-3.11,4.16-.31.86-.63,1.76-1.18,2.63-.57.25-.9.29-1.05.29s-.2-.03-.28-.1c-.17-.22-.47-1.43-.35-3.31l.18-2.77-2.28,1.58c-.47.33-.9.49-1.3.49-.7,0-1.4-.47-2.23-1.17-.76-.64-.67-1.73-.45-3.31.03-.23.06-.44.08-.65l.36-3.1-2.49,1.88c-.33.25-.62.54-.86.85l-2.38,1.79c-2.55,1.93-2.24,6.02-1.71,7.59.51,1.48,1.66,2.58,2.68,3.56.8.77,1.4,1.37,1.72,1.95-.84.15-1.82.29-2.28.29-.03,0-.05,0-.07,0h-.13c-.41-.03-.73-.05-1.01-.05-1.45,0-1.94.65-2.62,1.56-.08.11-.18.24-.28.37-.35.46-.77.65-1.35.93-.7.33-1.56.73-2.32,1.67-.48.59-1.7.92-2.67,1.18-1.34.36-2.85.77-2.92,2.26-.04.79-.5,1.85-.84,2.63-.4.92-.64,1.47-.46,2.1.17.58.44.93.92,1.21l.04.02c.66.5.84.59,1.73,1.03.74.37,2.11,1.05,4.94,2.56l1.36.73.53-1.45s.67-1.62,3.14-2.89c.47-.24.86-.4,1.16-.45.27.04.44.08.54.12l.19.44.8.06c.89.07,2.39.47,2.74,1.11.14.26.08.65-.18,1.18l-.7,1.39,1.16.38c.23,1.8-2.56,9.71-5.23,13.95-1.06,1.69-1.49,1.74-2.03,1.81-.09.01-.19.02-.28.04l-.95.14-.17.94c-.43,2.36,5.67,14.45,9.17,17.22.58.33,1.15.88,1.7,1.58-19.65-2.2-34.98-18.91-34.98-39.14,0-18.77,13.2-34.5,30.8-38.44M58.5,88.46c17.65-3.9,30.89-19.66,30.89-38.46,0-12.33-5.7-23.35-14.59-30.58.36,1.39.46,3.54-.69,7.74-.47,1.69-1.72,2.3-2.76,2.32-.08,0-.21,0-.37-.04-.03.12-.07.25-.1.37-.46,1.69-1.72,2.31-2.76,2.32-.29,0-1.27-.09-1.56-1.26-.06-.03-.16-.08-.34-.14-.66-.23-1.33-.34-1.97-.34-.81,0-1.62.18-2.41.53-.1.13-.17.24-.22.32-.59.91-1.83,2.5-2.97,3.86,2.38.37,4.59.73,4.62.73h.04s.04.02.04.02c3.26.74,4.3,1.35,4.3,2.51s-1.02,1.94-3.04,2.48l-2.94,1.01c-.42,1.91-.53,5.34-.28,9.44.05.75.08,1.5.12,2.25.26,5.23.54,10.63,3.64,15.06.17.24.42.49.64.49.1,0,.23-.05.37-.13l2.34-1.38-.33,2.7c-.89,7.21-4.23,13.47-9.66,18.19M46.12,89.87c-20.28-1.96-36.19-19.09-36.19-39.87,0-18.85,13.1-34.7,30.67-38.94-.46-.32-.96-.7-1.48-1.15C21.48,14.71,8.46,30.86,8.46,50c0,21.92,17.07,39.92,38.61,41.43-.31-.56-.63-1.08-.95-1.56M74.18,16.25c.1.38.13.8-.08,1.23.05.18.14.38.23.61.02.05.04.11.07.16,9.52,7.33,15.67,18.83,15.67,31.75,0,19.56-14.09,35.87-32.64,39.36-.51.42-.99,1.02-1.42,1.74,20.07-2.92,35.55-20.23,35.55-41.11,0-13.89-6.86-26.2-17.37-33.75"/>
  </g>
</svg>