<?xml version="1.0" encoding="UTF-8"?>
<svg id="Faction_Symbols" data-name="Faction Symbols" xmlns="http://www.w3.org/2000/svg" viewBox="0 0 100 100">
  <defs>
    <style>
      .cls-1 {
        fill: #a53722;
      }

      .cls-2 {
        fill: #d8b520;
      }
    </style>
  </defs>
  <g id="Lords_Alliance" data-name="Lords Alliance">
    <path class="cls-1" d="M50,2.31C23.7,2.31,2.31,23.7,2.31,50s21.4,47.69,47.69,47.69,47.69-21.39,47.69-47.69S76.3,2.31,50,2.31M50,96c-25.36,0-45.99-20.64-45.99-46S24.64,4,50,4s45.99,20.63,45.99,46-20.63,46-45.99,46M50,4.77C25.06,4.77,4.77,25.06,4.77,50s20.29,45.23,45.23,45.23,45.22-20.29,45.22-45.23S74.94,4.77,50,4.77M84.66,68.79c-1.1,1.36-3.91,3.95-6.48,5.17-.54.26-1.1.4-1.62.4-.26,0-.51-.03-.73-.1-.05-.01-.08-.02-.11-.02-.02.03-.04.06-.06.12-.1.25-4.32,8.32-4.32,8.32l.72-25.72s2.89.15,4.91,1.11l1.15.55s-.45,2.36-.4,2.86c.26-.22,1.74-1.52,1.25-3.98-7-7.1-19.92-9.66-28.98-9.69-9.06.03-21.96,2.6-28.96,9.69-.79,1.84.99,3.77,1.25,3.98.06-.5-.4-2.86-.4-2.86l1.15-.55c2.02-.96,4.91-1.11,4.91-1.11l.45,25.61c-4.02-8.13-3.62-7.2-4.05-8.22-.02-.05-.05-.09-.06-.12-.03,0-.07.01-.11.03-.23.07-.48.1-.73.1-.51,0-1.07-.14-1.61-.39-2.57-1.23-5.39-3.82-6.49-5.18-.97-1.21-2.98-4.99-3.21-7.28-.25-2.5.13-4.84,1.11-6.95l.2-.41c.7-1.48,1.76-3.72,1.93-5.66.13-1.55-.15-2.34-.15-2.34l-.02-.04v-.04s-1.27-3.45-1.27-3.45l-.21-.59.26-.57c.53-1.19,3.3-7.21,5.26-8.82l1.97-1.61.52,2.49c.43,2.08,1.14,4.06,1.6,4.87.4.71.74.71.87.71.2,0,.45-.07.68-.2.28-.24,1.02-1.54.69-2.87-.11-.42-.18-.9-.27-1.45-.23-1.42-.53-3.37-1.55-5.23l-.52-.95.72-.81c.51-.57,5.03-5.64,7.87-7.25l2.08-1.18.21,2.38c.36,4.14.8,8.73,1.39,10.82.19.69.75,2.28,1.71,2.28.09,0,.19,0,.3-.03,1.27-.27,2.14-2.63,1.9-4.27-.07-.48-.13-1.12-.21-1.93-.26-2.63-.79-8.1-2.24-9.65l-1.74-1.85,2.45-.68c1.53-.42,8.22-4.71,11.47-6.92l.86-.59.87.59c2.73,1.85,9.92,6.48,11.5,6.92l2.66.74-2.02,1.87c-.29.26-1.73,2.04-2.36,11.37-.12,1.82.67,4.13,1.88,4.39.11.02.21.03.31.03.96,0,1.51-1.59,1.71-2.28.59-2.08,1.03-6.68,1.39-10.82l.21-2.38,2.08,1.18c2.84,1.61,7.36,6.68,7.87,7.25l.72.81-.52.95c-1.02,1.86-1.33,3.81-1.55,5.23-.09.55-.16,1.03-.27,1.45-.33,1.32.4,2.63.69,2.87.23.12.48.2.68.2.13,0,.47,0,.87-.71.45-.8,1.16-2.78,1.59-4.87l.51-2.49,1.97,1.61c1.96,1.61,4.73,7.63,5.26,8.82l.25.57-.21.59-1.26,3.45h0s-.02.05-.02.05c0,0-.29.8-.16,2.38.16,1.95,1.22,4.19,1.93,5.66l.2.41c.99,2.1,1.37,4.44,1.12,6.95-.23,2.29-2.24,6.07-3.21,7.28"/>
    <path class="cls-2" d="M50,4C24.64,4,4.01,24.64,4.01,50s20.63,46,45.99,46,45.99-20.64,45.99-46S75.36,4,50,4M50,95.23c-24.94,0-45.23-20.29-45.23-45.23S25.06,4.77,50,4.77s45.22,20.29,45.22,45.23-20.29,45.23-45.22,45.23M50,0C22.43,0,0,22.43,0,50s22.43,50,50,50,50-22.43,50-50S77.57,0,50,0M50,97.69c-26.3,0-47.69-21.39-47.69-47.69S23.7,2.31,50,2.31s47.69,21.39,47.69,47.69-21.4,47.69-47.69,47.69M86.34,61.35c-.19,1.87-2,5.37-2.89,6.47-.89,1.1-3.54,3.6-5.95,4.75-.34.17-.68.24-.95.24-.11,0-.21-.01-.29-.04-.2-.06-.41-.1-.61-.1-.56,0-1.08.28-1.42,1.05-.15.35-1.65,4.18-1.65,4.18l.92-19.38s.95.03,2.78.91c-.28,1.05-.23,3.39.57,3.65.11.04.28.07.48.07.69,0,1.81-.4,2.62-2.45.59-1.5.6-2.37.49-3.89-5.36-5.75-16.54-10.53-30.48-10.57-13.93.05-25.09,4.83-30.45,10.57-.11,1.51-.1,2.38.49,3.89.81,2.06,1.93,2.45,2.62,2.45.2,0,.37-.03.48-.07.8-.27.85-2.6.57-3.65,1.84-.87,2.78-.91,2.78-.91l.93,19.38s-1.5-3.83-1.65-4.18c-.34-.77-.86-1.05-1.42-1.05-.2,0-.41.04-.61.1-.08.03-.18.04-.29.04-.27,0-.61-.08-.95-.24-2.41-1.15-5.06-3.65-5.95-4.75-.89-1.1-2.7-4.6-2.88-6.47-.25-2.5.23-4.55.98-6.14.69-1.48,2.06-4.16,2.26-6.61.17-2.05-.26-3.07-.26-3.07l-1.26-3.46s3.05-6.8,4.83-8.26c.44,2.16,1.2,4.31,1.76,5.31.65,1.15,1.47,1.5,2.22,1.5.58,0,1.11-.21,1.46-.41.8-.45,1.91-2.53,1.4-4.56-.35-1.39-.43-4.24-1.96-7.05,0,0,4.78-5.4,7.48-6.93.43,4.97.85,9.02,1.44,11.1.41,1.46,1.32,3.4,3.19,3.4.19,0,.4-.02.62-.07,2.29-.49,3.44-3.75,3.1-6-.33-2.25-.6-10-2.85-12.4,2.28-.63,11.62-6.93,11.92-7.13.3.2,9.68,6.49,11.96,7.13-2.06,1.9-2.66,9.6-2.85,12.4-.15,2.27.81,5.51,3.1,6,.22.04.42.07.62.07,1.87,0,2.77-1.94,3.19-3.4.59-2.08,1.01-6.13,1.44-11.1,2.7,1.53,7.48,6.93,7.48,6.93-1.54,2.81-1.62,5.65-1.96,7.05-.51,2.03.6,4.11,1.4,4.56.35.2.88.41,1.47.41.74,0,1.57-.34,2.21-1.5.56-1,1.32-3.15,1.76-5.31,1.78,1.46,4.83,8.26,4.83,8.26l-1.26,3.46s-.44,1.02-.26,3.07c.2,2.44,1.57,5.12,2.26,6.61.74,1.59,1.23,3.64.98,6.14"/>
  </g>
</svg>