<?xml version="1.0" encoding="UTF-8"?>
<svg id="Faction_Symbols" data-name="Faction Symbols" xmlns="http://www.w3.org/2000/svg" viewBox="0 0 100 100">
  <defs>
    <style>
      .cls-1 {
        fill: #898a8d;
      }

      .cls-2 {
        fill: #00205c;
      }
    </style>
  </defs>
  <g id="The_Harpers" data-name="The Harpers">
    <path class="cls-2" d="M50,1.15C23.02,1.15,1.15,23.02,1.15,50s21.87,48.85,48.85,48.85,48.85-21.87,48.85-48.85S76.98,1.15,50,1.15M83.41,40.71l-.04.33-.16.29c-8.57,15.66-12.64,28.88-13.68,32.56.06.11.11.18.13.2,0,0-.05-.04-.15-.08l1.2,2.54c1.92-.86,3.76-1.92,5.48-3.21.42-.3.89-.46,1.38-.46.67,0,1.31.29,1.75.81.78.92.73,2.3-.11,3.14-7.19,7.17-16.69,11.12-26.76,11.12s-18.83-3.66-25.92-10.29c-7.39-6.91-11.64-16.3-11.97-26.44-.34-10.13,3.29-19.78,10.2-27.17,7.13-7.62,17.23-11.99,27.7-11.99,9.67,0,18.87,3.63,25.91,10.23l.55.54c.86.84.93,2.23.15,3.15-.46.53-1.1.82-1.77.82-.49,0-.96-.15-1.36-.44-5-3.64-10.92-5.56-17.12-5.56-5.05,0-9.98,1.32-14.3,3.74l.83,1.62c2.41,4.69,5.84,6.75,11.42,6.85l1.76-.03c2.63-.14,5.61-.68,8.93-1.59,2.37-.65,4.52-.99,6.39-.99,3.26,0,5.77.98,7.46,2.92,2.65,3.04,2.11,7.23,2.08,7.41M64.58,77.51h3.71c-3.03,1.05-6.22,1.59-9.49,1.59-7.42,0-14.49-2.8-19.92-7.87-11.74-10.99-12.35-29.49-1.36-41.23,1.37-1.47,2.89-2.78,4.52-3.92l-1.06,9.73.75.62c.05.04.42.34,1.08.78.07.41.06.85-.16,1.15l-.26.36-.06.44c-.13.84-2.84,20.28,10.57,34.88-.02.02-.03.04-.05.06,0,0,.02-.02.06-.04.04.04.08.08.12.13l-.93,3.34h5.82l.37-1.34h5.91l.38,1.34Z"/>
    <path class="cls-1" d="M50,4C24.64,4,4.01,24.64,4.01,50s20.63,46,45.99,46,45.99-20.63,45.99-46S75.36,4,50,4M50,95.23c-24.94,0-45.23-20.29-45.23-45.23S25.06,4.77,50,4.77s45.22,20.29,45.22,45.23-20.29,45.23-45.22,45.23M50,0C22.43,0,0,22.43,0,50s22.43,50,50,50,50-22.43,50-50S77.57,0,50,0M50,97.69c-26.3,0-47.69-21.4-47.69-47.69S23.71,2.31,50,2.31s47.69,21.39,47.69,47.69-21.4,47.69-47.69,47.69M73.86,32.18c-1.61,0-3.56.27-5.91.92-4.27,1.18-7.8,1.7-10.74,1.7h-.08v-.03s-.11.03-.11.03c-7.42-.05-11.01-3.45-13.26-7.83l-.88,8.06s.54.44,1.5,1.04c.32.98.49,2.29-.28,3.34,0,0-2.98,19.99,10.87,34.19,0,0-.35,1.75-1.4,2.1h2.98l.38-1.35h8.64l.38,1.35h2.98c-.74-.25-1.13-1.19-1.3-1.72.67-2.46,4.76-16.64,14-33.52,0,0,1.13-8.29-7.76-8.28M57.78,71.33s-11.25-9.24-7.6-29.32l8.09,28.07c-.17.41-.33.83-.49,1.25M58.7,69.04l-8.23-28.53c.11-.55.24-1.1.38-1.66.4.1.82.19,1.25.27l7.83,27.16c-.43.9-.84,1.83-1.24,2.77M60.4,65.32l-7.52-26.09c.67.1,1.37.16,2.08.17l6.74,23.37c-.44.83-.88,1.68-1.3,2.55M62.18,61.89l-6.48-22.48c.65-.01,1.32-.06,1.99-.15l5.84,20.26c-.46.77-.91,1.56-1.35,2.38M64.02,58.69l-5.63-19.54c.63-.11,1.27-.25,1.91-.44l5.12,17.75c-.47.72-.93,1.47-1.4,2.23M65.92,55.69l-4.95-17.19c.28-.1.56-.2.85-.31.33-.13.66-.26.99-.38l4.55,15.77c-.48.68-.95,1.38-1.43,2.11M67.87,52.85l-4.4-15.28c.63-.23,1.25-.44,1.85-.63l4.01,13.92c-.48.64-.97,1.3-1.46,1.99M69.86,50.16l-3.87-13.43c.64-.19,1.27-.36,1.88-.52l3.48,12.06c-.48.6-.98,1.23-1.49,1.89M71.89,47.6l-3.33-11.56c.67-.15,1.31-.28,1.93-.37l2.92,10.13c-.48.56-.99,1.16-1.52,1.8M73.96,45.18l-2.77-9.6c.71-.09,1.37-.14,2-.14l2.32,8.04c-.47.5-.99,1.07-1.55,1.71M78.12,40.82s-.78.72-2.06,2.06l-2.14-7.43c3.49.16,5.32,1.82,4.2,5.37M77.95,74.86c.17.2.16.51-.03.7-7.07,7.05-16.27,10.59-25.48,10.59s-17.69-3.26-24.69-9.81c-14.55-13.62-15.3-36.52-1.69-51.07,7.1-7.59,16.73-11.42,26.39-11.42,8.85,0,17.72,3.22,24.68,9.74l.52.51c.19.19.21.49.03.7-.1.12-.25.18-.39.18-.11,0-.21-.03-.3-.1-5.45-3.97-11.83-5.91-18.18-5.91-8.32,0-16.57,3.33-22.61,9.78-11.67,12.47-11.02,32.1,1.45,43.78,5.92,5.54,13.51,8.36,21.15,8.36,6.46,0,12.94-2.02,18.45-6.12.09-.07.2-.1.31-.1.14,0,.28.06.39.18"/>
  </g>
</svg>