<?xml version="1.0" encoding="UTF-8"?>
<svg id="Layer_1" data-name="Layer 1" xmlns="http://www.w3.org/2000/svg" xmlns:xlink="http://www.w3.org/1999/xlink" viewBox="0 0 1000 1000">
  <defs>
    <style>
      .cls-1 {
        fill: url(#linear-gradient-15);
      }

      .cls-2 {
        fill: url(#linear-gradient-13);
      }

      .cls-3 {
        fill: url(#linear-gradient-2);
      }

      .cls-4 {
        fill: url(#linear-gradient-10);
      }

      .cls-5 {
        fill: url(#linear-gradient-12);
      }

      .cls-6 {
        fill: url(#linear-gradient-4);
      }

      .cls-7 {
        fill: url(#linear-gradient-3);
      }

      .cls-8 {
        fill: url(#linear-gradient-5);
      }

      .cls-9 {
        fill: url(#linear-gradient-8);
      }

      .cls-10 {
        fill: url(#linear-gradient-14);
      }

      .cls-11 {
        fill: url(#linear-gradient-20);
      }

      .cls-12 {
        fill: url(#linear-gradient-17);
      }

      .cls-13 {
        fill: url(#linear-gradient-7);
      }

      .cls-14 {
        fill: url(#linear-gradient-9);
      }

      .cls-15 {
        fill: url(#linear-gradient-11);
      }

      .cls-16 {
        fill: url(#linear-gradient-19);
      }

      .cls-17 {
        fill: url(#linear-gradient-6);
      }

      .cls-18 {
        fill: url(#linear-gradient-16);
      }

      .cls-19 {
        fill: url(#linear-gradient);
      }

      .cls-20 {
        fill: url(#linear-gradient-18);
      }
    </style>
    <linearGradient id="linear-gradient" x1="499.97" y1="251.94" x2="564.22" y2="251.94" gradientTransform="translate(0 -.01)" gradientUnits="userSpaceOnUse">
      <stop offset="0" stop-color="#d2d1d4"/>
      <stop offset="1" stop-color="#9ea0a4"/>
    </linearGradient>
    <linearGradient id="linear-gradient-2" x1="435.77" x2="499.97" xlink:href="#linear-gradient"/>
    <linearGradient id="linear-gradient-3" x1="299.07" y1="748.09" x2="363.27" y2="748.09" gradientTransform="translate(863.29 -.01) rotate(-180) scale(1 -1)" xlink:href="#linear-gradient"/>
    <linearGradient id="linear-gradient-4" x1="363.27" y1="748.09" x2="427.51" y2="748.09" gradientTransform="translate(863.29 -.01) rotate(-180) scale(1 -1)" xlink:href="#linear-gradient"/>
    <linearGradient id="linear-gradient-5" x1="2001.17" y1="-1385.97" x2="2065.42" y2="-1385.97" gradientTransform="translate(-637.89 -1501.19) rotate(90)" xlink:href="#linear-gradient"/>
    <linearGradient id="linear-gradient-6" x1="1936.97" y1="-1385.97" x2="2001.17" y2="-1385.97" gradientTransform="translate(-637.89 -1501.19) rotate(90)" xlink:href="#linear-gradient"/>
    <linearGradient id="linear-gradient-7" x1="-1202.13" y1="-889.81" x2="-1137.93" y2="-889.81" gradientTransform="translate(-637.89 -637.91) rotate(-90) scale(1 -1)" xlink:href="#linear-gradient"/>
    <linearGradient id="linear-gradient-8" x1="-1137.93" y1="-889.81" x2="-1073.68" y2="-889.81" gradientTransform="translate(-637.89 -637.91) rotate(-90) scale(1 -1)" xlink:href="#linear-gradient"/>
    <linearGradient id="linear-gradient-9" x1="-1622.62" y1="50.92" x2="-1758.98" y2="-114.01" gradientTransform="translate(-520.9 1557.76) rotate(135) scale(1 -.83)" gradientUnits="userSpaceOnUse">
      <stop offset="0" stop-color="#a16733"/>
      <stop offset="1" stop-color="#cda349"/>
    </linearGradient>
    <linearGradient id="linear-gradient-10" x1="-1398.71" y1="1208.76" x2="-1398.71" y2="971.28" gradientTransform="translate(2054.94 1433.76) scale(1 -1)" xlink:href="#linear-gradient-9"/>
    <linearGradient id="linear-gradient-11" x1="584.78" y1="477.91" x2="522.07" y2="415.2" gradientTransform="translate(0 -.01)" gradientUnits="userSpaceOnUse">
      <stop offset="0" stop-color="#cda349"/>
      <stop offset="1" stop-color="#a16733"/>
    </linearGradient>
    <linearGradient id="linear-gradient-12" x1="-2768.98" y1="4582.4" x2="-2905.34" y2="4747.33" gradientTransform="translate(1377.17 -4077.02) rotate(-135) scale(1 -.83)" xlink:href="#linear-gradient-9"/>
    <linearGradient id="linear-gradient-13" x1="2276.18" y1="-844.93" x2="2038.69" y2="-844.93" gradientTransform="translate(1501.17 -1501.18) rotate(90) scale(1 -1)" xlink:href="#linear-gradient-9"/>
    <linearGradient id="linear-gradient-14" x1="584.79" y1="522.11" x2="522.08" y2="584.82" xlink:href="#linear-gradient-11"/>
    <linearGradient id="linear-gradient-15" x1="-1711.22" y1="896.25" x2="-1711.22" y2="658.76" gradientTransform="translate(2054.94 1433.76) scale(1 -1)" xlink:href="#linear-gradient-9"/>
    <linearGradient id="linear-gradient-16" x1="-1711.22" y1="658.76" x2="-1711.22" y2="896.25" gradientTransform="translate(2054.94 1433.76) scale(1 -1)" xlink:href="#linear-gradient-9"/>
    <linearGradient id="linear-gradient-17" x1="361.67" y1="569.16" x2="499.97" y2="569.16" xlink:href="#linear-gradient-11"/>
    <linearGradient id="linear-gradient-18" x1="224.97" y1="343.76" x2="462.46" y2="343.76" gradientTransform="translate(0 -.01)" xlink:href="#linear-gradient-9"/>
    <linearGradient id="linear-gradient-19" x1="343.72" y1="343.76" x2="312.32" y2="375.16" gradientTransform="translate(0 -.01)" xlink:href="#linear-gradient-9"/>
    <linearGradient id="linear-gradient-20" x1="415.12" y1="477.95" x2="477.92" y2="415.15" xlink:href="#linear-gradient-11"/>
  </defs>
  <g>
    <g>
      <polygon class="cls-19" points="499.98 50 499.98 453.85 564.22 336.29 499.98 50"/>
      <polygon class="cls-3" points="499.98 453.85 499.98 50 435.78 336.25 499.98 453.85"/>
    </g>
    <g>
      <polygon class="cls-7" points="500.02 950 500.02 546.15 564.22 663.75 500.02 950"/>
      <polygon class="cls-6" points="500.02 546.15 500.02 950 435.78 663.71 500.02 546.15"/>
    </g>
    <g>
      <polygon class="cls-8" points="950 499.98 546.15 499.98 663.71 564.22 950 499.98"/>
      <polygon class="cls-17" points="546.15 499.98 950 499.98 663.75 435.78 546.15 499.98"/>
    </g>
    <g>
      <polygon class="cls-13" points="50 500.02 453.85 500.02 336.25 564.22 50 500.02"/>
      <polygon class="cls-9" points="453.85 500.02 50 500.02 336.29 435.78 453.85 500.02"/>
    </g>
  </g>
  <g>
    <g>
      <polygon class="cls-14" points="774.98 225 537.49 462.49 575.54 361.73 774.98 225"/>
      <polygon class="cls-4" points="537.49 462.49 774.98 225 638.24 424.44 537.49 462.49"/>
      <polygon class="cls-15" points="638.25 424.44 499.97 500 575.54 361.73 537.5 462.49 638.25 424.44"/>
    </g>
    <g>
      <polygon class="cls-5" points="774.98 775 537.49 537.51 638.24 575.56 774.98 775"/>
      <polygon class="cls-2" points="537.49 537.51 774.98 775 575.54 638.27 537.49 537.51"/>
      <polygon class="cls-10" points="537.5 537.51 575.54 638.26 499.97 500 638.25 575.55 537.5 537.51"/>
    </g>
    <g>
      <polygon class="cls-1" points="224.98 775 462.47 537.51 424.47 638.31 224.98 775"/>
      <polygon class="cls-18" points="462.47 537.51 224.98 775 361.67 575.51 462.47 537.51"/>
      <polygon class="cls-12" points="424.47 638.3 462.47 537.51 361.68 575.51 499.97 500 424.47 638.3"/>
    </g>
    <g>
      <polygon class="cls-20" points="224.98 225 462.47 462.49 424.47 361.69 224.98 225"/>
      <polygon class="cls-16" points="462.47 462.49 224.98 225 361.67 424.49 462.47 462.49"/>
      <polygon class="cls-11" points="361.68 424.48 462.47 462.49 424.47 361.68 499.97 500 361.68 424.48"/>
    </g>
  </g>
</svg>