<?xml version="1.0" encoding="UTF-8"?>
<svg id="Layer_1" data-name="Layer 1" xmlns="http://www.w3.org/2000/svg" viewBox="0 0 580 1000">
  <defs>
    <style>
      .cls-1 {
        fill: #fff;
      }

      .cls-2 {
        fill: #988312;
      }

      .cls-3 {
        fill: #1d4a33;
      }
    </style>
  </defs>
  <g id="Emerald_Enclave" data-name="Emerald Enclave">
    <polygon class="cls-3" points="580 753.7 290.3 920.8 .6 753.7 .6 0 580 0 580 753.7"/>
    <polygon class="cls-2" points="295.21 934.2 290.3 937 285.4 934.2 76.58 813.7 76.58 876.7 290.3 1000 504.02 876.7 504.02 813.7 295.21 934.2"/>
    <path class="cls-2" d="M296.51,186.2h0c.21,5.37,1.61,10.63,4.1,15.4,0,0-17.32-4.8-25.43,20.6,0,0-12.11-14.1-3.6-43,8.21,2.4,16.52,4.7,24.63,6.9M269.38,120.6c.87,7.76,3.73,15.17,8.31,21.5,1.67-5.49,4.13-10.72,7.31-15.5-.63,7.26-1.73,14.48-3.3,21.6l3.8,1.2h-4c-1.5,6.84-3.61,13.53-6.31,20-.5,1.2-.8,2.2-1.2,3.3l22.92,6.4c.8-7.1,2.6-15.9,3.7-30,.41-6.35.04-12.74-1.1-19-4.2-.6-8.21-1.2-11.71-2-6.31-1.7-12.47-3.91-18.42-6.6M191.3,84.3c-2.06,2.21-3.75,4.75-5.01,7.5l3.5,4.7c9.79,9.5,21.01,17.43,33.23,23.5-7.04-7.32-13.1-15.52-18.02-24.4-6.55-.55-12.04-5.15-13.71-11.5M338.25,725.2c-3.07-16.58-2.56-33.63,1.5-50,0,0-15.42-15.2-6.11-45.2.6-1.39,1.11-2.83,1.5-4.3h0c.52-2.16.79-4.38.8-6.6-.02-5.81-1.99-11.45-5.61-16-3.62,3.75-8.6,5.88-13.81,5.9-2.26-.03-4.5-.47-6.61-1.3-.12-17.69-4.62-35.08-13.11-50.6,0-2.2,0-4.4.9-6.5,3.83-8.73,13.3-13.54,22.62-11.5-8.41-17.8-2.4-23,0-55.3.74-10.46-.59-20.95-3.9-30.9,3.45-2.37,7.71-3.23,11.81-2.4-7.01-14.7-2-19.1,0-46,.89-16.72-3.99-33.24-13.81-46.8,2.15,19.59.21,39.4-5.71,58.2,0-1.3,0-2.6-.7-3.8h0c-17.22-45.2,6.41-68.6,6.41-68.6-3.77-11.99-5.37-24.55-4.7-37.1-3.16,1.41-6.55,2.22-10.01,2.4-3.29.08-6.47-1.19-8.81-3.5-5.11-4.9-6.31-19.4-5.51-31.8-4.35,3.23-9.59,5.05-15.02,5.2-8.58-.84-16.58-4.66-22.62-10.8-4.46-3.92-7.17-9.47-7.51-15.4-1.5,4.7-3.2,9.4-5.11,14.2-1.1,2.4-1.9,4.8-2.8,7.2v.8c4.09,8.93,10.23,16.78,17.92,22.9h-3.8c-6.87-.44-13.41-3.1-18.62-7.6-1.77,9.12-1.77,18.48,0,27.6,3.6,3.24,6.95,6.75,10.01,10.5,3-8.57,9.52-15.44,17.92-18.9.17,11.63-1.69,23.21-5.51,34.2,0,0,21.52,21.3,8.51,62.5-.83,1.94-1.5,3.95-2,6h0c-.81,3-1.22,6.09-1.2,9.2-.08,8.06,2.57,15.92,7.51,22.3,10.05-10.49,26.72-10.86,37.22-.81,0,0,.01,0,.02.01-1.01,7.38.07,14.9,3.1,21.7-1.33,14.08-4.71,27.89-10.01,41-1.31,3.07-2.44,6.21-3.4,9.4-.75-8.93.34-17.91,3.2-26.4.73-1.64,1.3-3.35,1.7-5.1h0c.65-2.52.98-5.1,1-7.7.25-6.65-1.72-13.19-5.61-18.6-4.23,4.28-10,6.69-16.02,6.7-5.99,0-11.73-2.42-15.92-6.7-4.1,5.33-6.28,11.88-6.21,18.6,0,2.56.29,5.11.9,7.6h0c14.31,37.8-5.41,57.4-5.41,57.4,9.01,23.5,0,69.1,0,69.1h0v4.4c0,4.36.75,8.69,2.2,12.8-3.2,1.18-6.6,1.75-10.01,1.7-1.6.16-3.21.16-4.8,0v-2.9c.08-14.37-4.44-28.39-12.91-40,5.18,1.43,9.88,4.23,13.61,8.1,5.47-7.1,8.4-15.84,8.31-24.8-.03-3.37-.47-6.73-1.3-10h0c-3.77-9.6-6.06-19.71-6.81-30-5.3,13.33-11.28,26.38-17.92,39.1,1.74,6.42,2.48,13.06,2.2,19.7-2,26.9-7.01,31.3,0,46.1-5.89-1.18-11.93,1.06-15.62,5.8,13.31,27.9,32.33,60.5,47.15,72.2,3.1,2.5,6.01,5.1,8.91,7.9.53-7.22.53-14.48,0-21.7-1.71-12.79-.41-25.8,3.8-38,.94-2.06,1.68-4.2,2.2-6.4h0c.83-3.27,1.23-6.63,1.2-10,0-5.3-1.09-10.54-3.2-15.4,2.79-1.75,6.02-2.68,9.31-2.7,2.93,0,5.82.73,8.41,2.1-1.4,4.5-3,9-4.91,13.5-19.22,45.9,0,68,0,68,2.27-10.51,9.04-19.51,18.52-24.6,1.66,16.69.88,33.53-2.3,50h0v3.7c-.2,8.06,2.74,15.88,8.21,21.8.91-3.39,2.91-6.38,5.71-8.5,3.24,9.7,3.48,20.16.7,30,2.99-21.71,13.64-41.64,30.03-56.2M283.29,741.1s.5,3.6.8,10c7.49,13.64,12.96,28.29,16.22,43.5.09-19.22-5.9-37.98-17.12-53.6M158.06,375.5c.75-.61,1.45-1.28,2.1-2,4.35-5.09,9.89-9.03,16.12-11.5,4.16-1.54,7.85-4.12,10.71-7.5l2.1-2.7c4.91-6.5,7.81-10,17.22-10h9.61c.17-7.65.97-15.28,2.4-22.8-7.15-6.13-12.77-13.83-16.42-22.5-1.54-5.37-2.34-10.92-2.4-16.5-1.97,13.73-5.64,27.17-10.91,40h0c-1.99-8.84-5.05-17.4-9.11-25.5,3.2-1.19,6.66-1.46,10.01-.8-8.71-18.3-2.5-23.8,0-57,.68,1.59,1.59,3.07,2.7,4.4,2.55-2.53,5.73-4.32,9.21-5.2.54,8.89.54,17.81,0,26.7,1.75-7.03,5.63-13.35,11.11-18.1-1.4-3.3-2.9-6.4-4.3-9,3.69.47,7.17,2,10.01,4.4l4.2-3.2c1.71-3.63,2.6-7.59,2.6-11.6,0-2.22-.28-4.44-.8-6.6h0c-4.58-10.76-5.66-22.69-3.1-34.1.79,1.38,1.66,2.72,2.6,4,4.75-4.9,11.29-7.68,18.12-7.7,1.89.03,3.77.26,5.61.7.68,11.8.41,23.64-.8,35.4l3.7-2.8-2,17.1c-.11,1.58-.31,3.15-.6,4.7-1.6,12-2.3,20.9,4.2,26.3,4.72,4.98,11.01,8.19,17.82,9.1,3.93-.17,7.72-1.57,10.81-4l12.61-8.6-1,15.2c-1.38,8.8-.27,17.8,3.2,26,.99.96,2.33,1.46,3.7,1.4,3.24-.25,6.41-1.13,9.31-2.6l1.2-2.1c.7-11.98,2.14-23.9,4.3-35.7h0c.1-1.73.1-3.47,0-5.2.29-11.11-3.81-21.89-11.41-30-2.39,9.43-10.89,16.02-20.62,16-5.46.03-10.71-2.09-14.62-5.9.31-17.77-3.82-35.33-12.01-51.1,1.68,1,3.23,2.21,4.6,3.6,2.5-3.26,4.37-6.96,5.51-10.9-12.03-3.25-23.78-7.46-35.14-12.6-18.17-10.89-33.69-25.68-45.45-43.3,2.76,15.85,2.14,32.1-1.8,47.7,0,0,15.52,15.4,6.11,45.2-.28.72-.51,1.45-.7,2.2-2.45-13.71-7.96-26.7-16.12-38,3.06,27.08-.37,54.5-10.01,80-16.02,38.4,0,56.9,0,56.9,1.78-5.78,4.9-11.05,9.11-15.4.6,25.73-3.93,51.33-13.31,75.3h0M213.92,88.1c-.43,1.9-1,3.78-1.7,5.6l.6.7h0c11.22,18.17,26.59,33.42,44.85,44.5l4.2,1.9c-1.37-7.84-1.37-15.86,0-23.7-16.94-7.92-32.99-17.65-47.85-29M200.21,600.9c-3.15,1.53-6.53,2.55-10.01,3,1.31,4.34,2.85,8.62,4.6,12.8,1.01-3.77,2.24-7.48,3.7-11.1.7-1.5,1.3-3.1,1.9-4.7M234.14,158.1c10.68,4.84,21.72,8.82,33.03,11.9v-2.8c0-2.93-.37-5.86-1.1-8.7h0c-1.58-4.1-2.85-8.31-3.8-12.6-21.82-5.8-69.27-32.2-78.88-45.2,3.7,20,34.34,49.4,50.05,57.2M65.07,117.9c.57-1.12,1.04-2.29,1.4-3.5,5.79,6.29,8.95,14.56,8.81,23.1v4.1h0c-3.22,17.07-4.16,34.49-2.8,51.8,6.92,22.91,6.36,47.43-1.6,70h0c.05.93.05,1.87,0,2.8-.01,5.58-1.65,11.03-4.7,15.7-.11,1.6-.11,3.2,0,4.8-.17,12.36,3.85,24.42,11.41,34.2,15.08-16.15,40.42-17.03,56.59-1.97.68.63,1.33,1.29,1.97,1.97,7.51-9.81,11.53-21.85,11.41-34.2,0-4.75-.57-9.49-1.7-14.1h0c-.9-2.3-1.6-4.5-2.4-6.7-3.9,0-12.41,1.3-16.92,15.6,0,0-11.31-12.9,0-40,6.79-17.91,9.19-37.18,7.01-56.2,2.63,3.53,4.85,7.36,6.61,11.4,2.83-11.11,8.25-21.39,15.82-30-.9-2.3-1.6-4.7-2.3-7.2,8.81-20.6,24.33-16.3,24.33-16.3-6.91-14.5-4-20.6-1.5-40v-1l-5.91-31.6,7.81,10.6c-.62-17.42-6.41-34.26-16.62-48.4,2.89,26.13-.55,52.57-10.01,77.1-4.85,10.55-7.18,22.09-6.81,33.7-3.6,4.1-6.23,8.95-7.71,14.2,0,0-14.92-17.3,0-52.9,9.21-23.83,12.57-49.51,9.81-74.9,3.34,4.5,6.16,9.37,8.41,14.5.6-2.9.9-4.6.9-4.6h0c.15-2.66.15-5.34,0-8,0-11.11-2.67-22.05-7.81-31.9h-17.02c-6.19,7.06-15.13,11.11-24.53,11.1-9.39-.01-18.32-4.06-24.53-11.1h-17.02c-5.17,9.91-7.85,20.93-7.81,32.1.13,5.68.94,11.32,2.4,16.8,3.8,22.77,5.74,45.81,5.81,68.9M289.3,856c9.04,17.82,13.71,37.53,13.61,57.5l-12.61,7.3-14.62-8.4c3.1-16.18,4.64-32.62,4.6-49.1-3.04,4.03-5.35,8.57-6.81,13.4-6.19-9.14-8.59-20.32-6.71-31.2-1.37,2.15-2.95,4.15-4.7,6-1.97-7.53-7.62-13.55-15.02-16-.82,5.42.13,10.96,2.7,15.8,0,0-12.31-3.4-18.12,14.6-5.46-8.41-6.64-18.89-3.2-28.3-3.85,2.41-6.91,5.88-8.81,10,1.61,6.23,3.55,12.37,5.81,18.4.37-.48.7-.98,1-1.5,3.66,3.64,8.65,5.63,13.81,5.5,5.2.03,10.17-2.11,13.71-5.9,3.38,4.6,5.14,10.19,5.01,15.9.04,2.26-.23,4.51-.8,6.7h0c-.34,1.49-.84,2.93-1.5,4.3-.86,2.96-1.56,5.97-2.1,9l-100.9-58c2.18-10.18,3.02-20.6,2.5-31,6.41-14.7,17.62-11.6,17.62-11.6-6.11-12.8-1.8-16.6,0-40,.64-14.31-3.59-28.41-12.01-40,2.17,18.99-.23,38.22-7.01,56.1-1.45,3.43-2.63,6.98-3.5,10.6-2.93-9.61-7.84-18.5-14.41-26.1,5.38-16.41,7.85-33.64,7.31-50.9-3.56,9.88-9.15,18.91-16.42,26.5-5.1-21.5-26.68-34.79-48.2-29.69-1.93.46-3.82,1.06-5.66,1.79-1.65-6.56-1.65-13.44,0-20,6.15-4.15,14.4-3.26,19.52,2.1,2.81-3.71,4.32-8.25,4.3-12.9-.02-1.76-.26-3.5-.7-5.2h0c-10.01-26.1,3.7-40,3.7-40-6.21-16.2,0-47.6,0-47.6h0v-3c.1-6.37-2.27-12.53-6.61-17.2-1.72,6.57-8.45,10.51-15.03,8.79-4.31-1.13-7.67-4.49-8.8-8.79-4.34,4.67-6.71,10.83-6.61,17.2.03,2.12.26,4.23.7,6.3,3.03,14.63,2.86,29.74-.5,44.3,2.9,3.33,4.96,7.31,6.01,11.6-1.76-4.02-3.95-7.84-6.51-11.4,2.17,18.99-.23,38.22-7.01,56.1-5.7,10.9-6.65,23.68-2.6,35.3-2.06,3.09-3.68,6.46-4.8,10,5.86,5.01,13.31,7.77,21.02,7.8,15-.03,28.09-10.18,31.83-24.7,11.98,12.45,18.57,29.13,18.32,46.4.15,2.66.15,5.34,0,8h0s-.8,4.2-2,11.3c4.37,8.98,6.34,18.94,5.71,28.9,0,5.1-.9,9.2-1.4,12.7l-75.88-43.7c.35-7.72,1.22-15.4,2.6-23h0v-3c.12-6.29-2.22-12.39-6.51-17-1.34,5.42-6.22,9.22-11.81,9.2-2.57,0-5.07-.84-7.11-2.4,2.44-9.2,6.96-17.72,13.21-24.9-6.58-12.31-10.02-26.05-10.01-40,0-3.34.2-6.68.6-10h-.6c6.56-35.14,9.51-70.86,8.81-106.6-.27.31-.5.64-.7,1-1.98-2-4.09-3.87-6.31-5.6-1.8,20.6-5.51,24.4,0,36.2-2.46-.5-5.01-.22-7.31.8,1.14,4.24,1.71,8.61,1.7,13,.1,1.93.1,3.87,0,5.8h0s-11.91,60.6,0,91.9c-12.3,15.06-17.12,34.88-13.11,53.9l-10.01-5.6v-165c2.66-1.69,4.94-3.9,6.71-6.5.86-3.9,2.06-7.72,3.6-11.4,2.7-6.42,4.65-13.13,5.81-20-5.13-2.25-10.56-3.73-16.12-4.4v-140c.94,2.63,2.29,5.09,4,7.3,1.85-7.85,6.8-14.63,13.71-18.8-1.1,3.2-2.2,6.4-3.5,10-15.22,36.2,0,53.8,0,53.8,5.71-18,16.02-21,21.72-21.2,1.35,14.47,4.38,28.73,9.01,42.5,2.64-7.98,4.36-16.23,5.11-24.6,3.25,8.98,3.25,18.82,0,27.8-.5,1.09-.9,2.23-1.2,3.4h0c-.41,1.77-.61,3.58-.6,5.4-.07,4.62,1.41,9.12,4.2,12.8,5.8-6.08,15.43-6.3,21.51-.51.17.17.34.34.51.51,2.83-3.67,4.34-8.17,4.3-12.8.03-1.79-.21-3.58-.7-5.3h0c-10.01-26,3.7-40,3.7-40-6.21-16.1,0-47.6,0-47.6h0c.1-1,.1-2,0-3,.15-6.35-2.23-12.5-6.61-17.1-1.38,5.44-6.3,9.23-11.91,9.2-5.6,0-10.5-3.78-11.91-9.2-4.33,4.63-6.7,10.76-6.61,17.1-.1,1.36-.1,2.74,0,4.1-1.3-4.6-2.7-9.5-4.5-14.4-.5,1.8-1,3.7-1.4,5.7,0-2.6.5-5.3.7-8.3,1.17-15.79-2.12-31.59-9.51-45.6.28-18.38-5.37-36.37-16.12-51.3,2.89,25.29-.3,50.89-9.31,74.7-1.58,3.71-2.92,7.52-4,11.4V31.9c2.95,4.57,5.49,9.39,7.61,14.4.9-2.6,1.8-5.3,3-8.2C16.31,25.93,19.68,13.1,21.22,0h16.62c.76,5.36.96,10.79.6,16.2-2.5,32.9-8.61,38.3,0,56.3-9.71-1.68-19.28,3.6-23.02,12.7v.5c-1.1,14.7-2.9,23.9-3.9,31.2,13.67-5.63,23.87-17.39,27.53-31.7,1.67,1.71,3.24,3.51,4.7,5.4,1.35-12.6,1.35-25.3,0-37.9,11.92,16.98,17.67,37.51,16.32,58.2,0,3.7-.6,7.1-1,10,0,.9,0,1.8.8,2.7-2.78,1.95-6.11,3-9.51,3-7.59-.03-14.21-5.16-16.12-12.5-7.61,8.63-10.53,20.42-7.81,31.6,1.8,11.4,5.91,42.2-.8,60,0,0,16.72,16.7,6.61,48.7-.67,1.52-1.2,3.09-1.6,4.7h0c-.56,2.36-.86,4.77-.9,7.2-.08,6.26,1.97,12.35,5.81,17.3,3.82-4.12,9.2-6.44,14.82-6.4h2.8c.09,16.61,1.9,33.16,5.41,49.4,8.47,6.35,18.74,9.85,29.33,10,13.71.06,26.85-5.51,36.34-15.4,9.38,12.09,14.39,27,14.21,42.3v7c1.4,3.6,2.8,7.6,4,11.9l-3,.8c-9.41,2.5-19.12,5.1-20.02,14.2-1.03,6.96-3.16,13.71-6.31,20-2.8,6.4-4.3,10-3.2,13.7.67,3.18,2.73,5.89,5.61,7.4h0c3.75,2.93,7.85,5.39,12.21,7.3l12.71,6.4c-2.2,10.82-.65,22.08,4.4,31.9-4.33-.9-8.83-.48-12.91,1.2,3.64,9.72,9.07,18.68,16.02,26.4-1.24,3.27-2.31,6.61-3.2,10-.59-.83-1.26-1.6-2-2.3-2.12,7.95-10.29,12.69-18.25,10.57-5.17-1.37-9.21-5.41-10.58-10.57-5.27,5.59-8.15,13.02-8.01,20.7.04,2.56.34,5.1.9,7.6,1.7,10,5.41,37.9-.7,53.7,0,0,15.02,14.9,6.01,43.7-.62,1.35-1.12,2.76-1.5,4.2h0c-.53,2.13-.8,4.31-.8,6.5-.05,5.6,1.79,11.06,5.21,15.5,7.03-7.35,18.69-7.61,26.04-.59.2.19.39.39.59.59,3.42-4.44,5.25-9.9,5.21-15.5,0-2.16-.27-4.31-.8-6.4h0c-12.01-31.6,4.5-47.9,4.5-47.9-7.51-20,0-57.6,0-57.6h0v-3.6c-.02-2.6-.36-5.18-1-7.7,6.59-23.6,9-48.17,7.11-72.6l3.9,2c11.79,18.86,17.45,40.9,16.22,63.1-3,40-10.01,46.4,0,68.3-4.58-.94-9.35-.41-13.61,1.5,5.25,4.98,12.01,8.08,19.22,8.8,2.67,9.26,6.02,18.32,10.01,27.1-.46,7.31,1.55,14.57,5.71,20.6.6-1.7,1.2-3.2,1.8-4.6,14.01,28.4,32.93,59.4,47.15,70.6,4.45,3.56,8.6,7.47,12.41,11.7-1.31,9.23-3.77,18.27-7.31,26.9-13.01,31,0,46,0,46,4.5-14.1,12.21-17.4,17.22-18,.9,10,2.1,18.6,3,24,.84,3.5,1.28,7.1,1.3,10.7,6.21-16.45,9.59-33.83,10.01-51.4,5.79,13.91,9.66,28.55,11.51,43.5l1.6,12.6c-2.73,10.57-1.49,21.78,3.5,31.5-3.63-.72-7.4-.34-10.81,1.1M224.93,866h0v-.6.6ZM131.54,829.3l20.02,11.5c-1.59-19.86-8.51-38.93-20.02-55.2,1.55,14.53,1.55,29.17,0,43.7M339.85,734c-19.02,18.1-23.02,40.8-28.83,74l-.6,3.6-2.6,14.6c2.61,12.01,7.69,23.35,14.92,33.3-2.97-26.43.46-53.18,10.01-78,4.99-10.86,7.33-22.76,6.81-34.7.65-2.58.98-5.24,1-7.9.1-1.63.1-3.27,0-4.9M158.96,444c6.51-20,17.52-25.5,24.93-26.6.7,6.7,1.2,14.3,1.4,21.9,3.59-2.73,7.41-5.13,11.41-7.2,3.96-2.26,8.3-3.79,12.81-4.5,10.01,1.1,12.11,4.7,12.11,4.7,8.76.68,17.17,3.72,24.33,8.8.06-17.12,1.5-34.21,4.3-51.1h0c.1-1.93.1-3.87,0-5.8.22-12.26-4.34-24.13-12.71-33.1-1.27,4.35-3.81,8.21-7.31,11.1,5.41,0,10.01,1.7,10.01,5.9,0,7.1-12.61,7.5-17.42,8.7-5.78,2.17-11.35,4.88-16.62,8.1.63-6.01,2.92-11.72,6.61-16.5-3.52-.19-6.94-1.18-10.01-2.9,5.2-3.84,11.78-5.29,18.12-4-1.93-3.95-3.41-8.11-4.4-12.4h-10.51c-6.51,0-7.01,1.9-13.41,10-7.91,10-18.62,8.9-27.03,19.1-3.16,3.53-7.15,6.21-11.61,7.8-12.41,38.7,3.8,57.6,3.8,57.6M126.93,397.6c-.5,12.5-10.61,28.2-10.01,31.2s1.6,2.5,3.5,4c6.76,4.69,14.01,8.65,21.62,11.8,1.1-7.4,2.4-16.5,3.3-28.7.63-8.9.06-17.85-1.7-26.6-8.91,2.5-16.72,4.1-16.92,8.3M196.8,69.5l-3.4-18,7.81,10.6c3.44-4.73,8.7-7.81,14.52-8.5.74,8.79.7,17.62-.1,26.4,14.66,12.03,30.81,22.11,48.05,30,1.58-4.53,3.81-8.81,6.61-12.7-.8,4.96-1.13,9.98-1,15,6.68,3.25,13.65,5.87,20.82,7.8,2.6.6,5.41,1.1,8.31,1.5-.5-1.8-1-3.5-1.6-5.2,5.04-2.74,10.89-3.62,16.52-2.5-11.11-23.5-3.2-30,0-73.3.88-13.76-.96-27.55-5.41-40.6h-15.82c-.56,23.72-5.34,47.15-14.11,69.2-2.77,6.47-5.02,13.16-6.71,20-7.71-27.4,1.4-74,1.4-74h0c.1-1.67.1-3.33,0-5-.05-3.44-.49-6.86-1.3-10.2h-69.37c-1.65,6.82-3.83,13.51-6.51,20-15.42,36.7,0,54.5,0,54.5.61-1.87,1.31-3.7,2.1-5.5M208.92,294c2.31,6.05,5.93,11.52,10.61,16,.6-4.8,1.2-10,1.7-16.5v-8.9c-5.14-8.08-6.73-17.91-4.4-27.2,0-1.8-1-3.5-1.6-5.2-11.31,11.7-9.11,34.3-6.51,42.1M188.7,551.5c-.93,2.14-1.7,4.35-2.3,6.6h0c-.79,3.28-1.19,6.63-1.2,10-.04,6.98,1.68,13.86,5.01,20,4.1-.5,7.91-1.6,15.82-14.1v-.6c1.22-10.87,1.22-21.83,0-32.7,3.75,5.03,6.78,10.54,9.01,16.4,15.82-31.6,32.43-78.2,28.83-87.9l-7.11-2.3,3.8-7.6c3.4-7,1.8-10,1.2-10.9-3.4-6-16.22-8.8-21.92-9.3h-4.4l-1.2-2.8c-1.85-.78-3.81-1.29-5.81-1.5-3.49.72-6.86,1.93-10.01,3.6-5.39,2.61-10.38,5.98-14.82,10,.05,11.21-1.71,22.35-5.21,33,0,0,23.82,23.8,9.41,70"/>
    <path class="cls-1" d="M456.47,211.2c-2.1-8,2.9-3.7,0-10.6-9.97-18.79-21.63-36.63-34.84-53.3.7,6.4,4.5,10-3.6,15.1-9.41.8-12.71-2.3-22.72-7.1-9.32-6.8-15.72-16.88-17.92-28.2-.76-5.87-2.28-11.62-4.5-17.1-6.39,5.98-13.56,11.06-21.32,15.1-12.61,7.3-43.95,7-63.57,2.5s-70.67-32.4-80.58-45.7c3.8,20,34.34,49.4,50.05,57.3,9.15,4.31,18.63,7.92,28.33,10.8-7.17-.43-14.3-1.4-21.32-2.9-20.92-4.9-70.77-32.4-80.58-45.7,3.7,20,34.34,49.4,50.05,57.2,23.72,11.9,77.88,23.4,98.1,30.8,13.51,5,57.46,36.1,60.56,53.1.82,3.28.82,6.72,0,10-8.81,2-23.42,0-25.23-4.4s-1.2-3.4,2.7-10.8c-15.02,4.1-17.82,16.8-23.22,30.9-.9-.6-2.4-1.1-3.1-1.5q-4.4-2.7,0-10c-17.92,8.5-14.82,28.5-28.93,48.4-11.81,5.8-18.42,5.1-23.02.7s-6.31-19.4-5.51-31.8c-15.72,10.8-27.53,2.9-37.64-5.6s-8.41-26.2-7.11-38.4c-14.11,10.7-11.91,36-9.01,44.4,3.99,9.02,10.07,16.97,17.72,23.2-9.91.66-19.59-3.2-26.33-10.5-11.51-10-7.51-25.6-6.11-37.5-14.21,10.8-11.91,36-9.11,44.4,6.61,20,35.44,30,34.44,51h-3.1c-8.64,1.82-17.41,2.99-26.23,3.5-14.41-.9-12.71-1-21.12,10s-18.62,8.9-27.03,19.1c-10.01,12.7-38.24,11.4-38.64,19.4-.5,12.5-10.61,28.2-10.01,31.2s1.6,2.5,3.5,4c7.81,5.8,3.5,1.9,47.25,25.3,5.83-11.76,15.61-21.11,27.63-26.4,3.96-2.26,8.3-3.79,12.81-4.5,10.01,1.1,12.11,4.7,12.11,4.7,0,0,40.54,3,26.63,30.8,16.62,5.4-18.12,88.2-35.24,115.3-11.21,17.9-17.22,16.9-23.62,17.9-1.9,10,37.24,95.5,63.27,116,29.49,24.86,48.01,60.31,51.55,98.7,6.81-38.6,10.71-65.2,37.04-86.4,40.9-32.34,67.2-79.63,73.08-131.4-6.85,4.06-15.69,1.81-19.75-5.03-.09-.15-.18-.31-.27-.47-27.53-39.2-26.43-86.6-29.13-131-2.78-25.67-1.53-51.62,3.7-76.9l26.33-8.8s15.22-4,15.22-8.8-23.72-8.7-23.72-8.7c0,0-29.13-4.7-51.55-8,11.96-12.5,22.96-25.87,32.93-40,1.06-1.92,2.26-3.76,3.6-5.5,12.83-6.61,27.83-7.63,41.44-2.8,12.11,4.1,6.61,10,10.71,10,5.49-.38,9.96-4.55,10.71-10,1.9-7,3.3-13.1,4.3-18.5,9.31,4,4.7,8.9,8.61,8.9,5.5-.31,9.99-4.53,10.61-10,13.21-47.8,2.8-54.6,0-65.7M222.93,376.8c-5.8,2.12-11.37,4.84-16.62,8.1.38-7.78,4.01-15.03,10.01-20,6.21-3.6,23.92-5.3,23.72,2.9s-12.61,7.5-17.42,8.7"/>
  </g>
</svg>