<?xml version="1.0" encoding="UTF-8"?>
<svg id="Layer_1" data-name="Layer 1" xmlns="http://www.w3.org/2000/svg" viewBox="0 0 580 1000">
  <defs>
    <style>
      .cls-1 {
        fill: #232962;
      }

      .cls-2 {
        fill: #fff;
      }

      .cls-3 {
        fill: #949498;
      }
    </style>
  </defs>
  <g id="The_Harpers" data-name="The Harpers">
    <polygon class="cls-3" points="295.11 934.2 290.2 937 285.29 934.2 76.41 813.7 76.41 876.7 290.2 1000 504 876.7 504 813.7 295.11 934.2"/>
    <polygon class="cls-1" points="580 753.7 290.2 920.8 .4 753.7 .4 0 580 0 580 753.7"/>
    <path class="cls-3" d="M132.88,139.4c-2.39-1.52-5.04-2.61-7.81-3.2,3.59-6.06,8.44-11.28,14.22-15.3-6.59-4.16-8.56-12.87-4.4-19.45.41-.65.88-1.27,1.39-1.85,3.81-5.08,6.51-10.91,7.91-17.1,3.91,17.21,3.91,35.09,0,52.3,3.2-1.9,6.61-7.1,9.31-19.2l3.3-5.9,4.31,10.3,3.71-10,3.3,5.9c2.9,13.3,6.81,18.3,10.01,20,4.32-6.18,8.29-12.59,11.92-19.2,0,0,19.03,36.2,36.25,45.3-12.18,7.21-16.2,22.91-8.99,35.07.81,1.36,1.74,2.64,2.78,3.83,1.4,1.9,2.6,4,3.91,6-30.82,12.16-58.76,30.62-82.01,54.2-1.63-17.29,1.85-34.67,10.01-50-3.06-5.14-7.15-9.6-12.02-13.1,7.13-4.45,9.29-13.83,4.84-20.95-.48-.76-1.02-1.49-1.63-2.15-7.53-10.23-11.08-22.85-10.01-35.5M116.26,358.1c-1.4,2.53-3.35,4.72-5.71,6.4,10.01,5.6,22.03,27.6,22.03,27.6,0,0,11.62-22,22.03-27.6-7.32-4.56-9.54-14.19-4.97-21.5.49-.78,1.05-1.52,1.67-2.2,11.12-14.3,12.72-36.3,7.81-43.5,0,0-12.22,14.9-19.33-17.1l-1.9-3.4c-1.4,1.5-2.7,3.1-4.01,4.7l-1.3,3.7v-1.5c-11.74,14.6-21.63,30.58-29.44,47.6-.71,6.16-3.02,12.02-6.71,17l-.9,1.5-1.8,5.1h0c6.81-5.64,16.91-4.7,22.56,2.1.16.19.32.39.47.6M411.47,531.9l-5.51-10-6.31,18.1-6.31-18-5.51,10c-11.72,52.4-31.64,28-31.64,28-3.32,6.12-4.81,13.06-4.31,20,2.21,2.76,6.24,3.21,9.01,1.01.37-.3.71-.63,1.01-1.01.67,1.19,1.18,2.47,1.5,3.8h32.44l2.4,8.6h19.03c-4.71-1.6-7.21-7.6-8.31-11,1.2-4.3,4.11-14.3,8.81-28.8-2.91-6.4-5.09-13.11-6.51-20M201.38,300c10.01-45.2,26.34-33.4,30.64-29.2.8-.7,1.8-1.3,2.7-2,1.98-5.41,2.89-11.15,2.7-16.9-2.3-2.76-6.4-3.14-9.17-.85-.31.26-.59.54-.85.85-3.63-10.64-2.31-22.34,3.6-31.9-.9-2.3-2-4.5-3.1-6.7-31.6,12.34-60.09,31.49-83.42,56.1.43,1.02.97,1.99,1.6,2.9,0,0,20.03-24.4,31.74,28.1l5.41,10,6.81-18.1,5.61,16c1.9-2.5,3.91-5,5.91-7.4l-.2-.9ZM461.74,602.8c4.51-3.9,8.91-7.8,13.22-12.1,1.17-1.23,1.17-3.17,0-4.4-.62-.75-1.53-1.19-2.5-1.2h-.7c-.78,1.51-1.68,2.95-2.7,4.3-3.06,4.06-5.58,8.5-7.51,13.2M363.4,670c17.22,9,36.25,45.2,36.25,45.2,3.42-6.35,7.17-12.53,11.22-18.5,3.4,1.4,7.31,6.3,10.01,20l3.2,6,3.81-10.8,3.71,10.8,3.3-6c2.7-12.1,6.11-17.3,9.41-19.1-3.92,17.18-3.92,35.02,0,52.2,1.45-6.15,4.14-11.93,7.91-17,5.2-5.73,4.76-14.58-.98-19.77-.63-.57-1.31-1.08-2.03-1.53,5.81-4.04,10.66-9.29,14.22-15.4-2.78-.51-5.44-1.57-7.81-3.1,1.09-12.66-2.47-25.27-10.01-35.5-5.67-6.27-5.18-15.95,1.1-21.61.65-.59,1.36-1.12,2.1-1.59-2.99-1.82-5.67-4.12-7.91-6.8-20.95,13.49-43.9,23.61-67.99,30-2.24,4.94-5.68,9.24-10.01,12.5M420.38,585.1l25.74,8.6h.7c2.73-11.32,1.42-23.24-3.71-33.7-3.98,5.65-11.78,7.01-17.44,3.03-.97-.68-1.85-1.5-2.59-2.43-2.8,9-4.81,15.9-6.01,20,.49,1.7,1.51,3.21,2.9,4.3M320.24,653.4l-1.8,5.1h4.51l-2.7-5.1ZM339.07,737.4c-7.32,8.28-6.52,20.92,1.77,28.23.73.65,1.51,1.24,2.33,1.77-13.22,7-27.74,34.7-27.74,34.7,0,0-15.22-27.9-28.14-34.9,9.3-5.98,11.98-18.36,5.98-27.65-.53-.83-1.13-1.61-1.78-2.35-13.92-18-16.02-45.8-10.01-54.8,0,0,13.92,17,23.03-16.7h10.01l.5,1.3v-1.3h10.01c9.11,33.9,23.13,16.9,23.13,16.9,1.47,2.4,2.39,5.1,2.7,7.9,4.3-4.9,8.03-10.26,11.12-16,3.86,7.73,9.32,14.54,16.02,20-5.29,3.32-6.88,10.3-3.55,15.58.34.54.72,1.04,1.15,1.52,7.08,8.88,9.19,20.73,5.61,31.5,0,0-8.81-10.7-14.02,12.4l-2.4,4.4-2.8-8-2.8,8-2.4-4.4c-5.11-23.1-13.92-12.4-13.92-12.4-1.52-2.82-2.18-6.01-1.9-9.2l-2.5,3.6M350.58,708c.79-1.79,1.03-3.77.7-5.7-.1,1.91-.33,3.82-.7,5.7M310.23,653.4l-2.8,5.2h4.61l-1.8-5.2ZM15.52,10C11.9,7.48,9.02,4.02,7.21,0H.4v24.5c4.07-5.75,9.2-10.67,15.12-14.5M274.18,30s14.52,27.8,27.74,34.7c-9.27,6.02-11.91,18.41-5.88,27.67.53.82,1.13,1.6,1.77,2.33,13.82,18.1,15.92,45.8,10.01,54.9,0,0-15.32-18.8-24.33,21.5l-4.21,7.6-5.11-13.7-4.91,13.9-4.21-7.6c-9.01-40-24.23-21.5-24.23-21.5-1.48-2.41-2.44-5.1-2.8-7.9-4.32,4.88-8.05,10.25-11.12,16-3.85-7.7-9.27-14.52-15.92-20,5.29-3.33,6.87-10.31,3.54-15.58-.36-.57-.78-1.11-1.24-1.62-7.01-8.91-9.08-20.74-5.51-31.5,0,0,8.71,10.8,13.92-12.2l2.4-4.4,2.8,8,2.8-8,2.4,4.4c5.21,23.1,13.92,12.3,13.92,12.3,1.52,2.85,2.18,6.08,1.9,9.3.8-1.3,1.7-2.5,2.6-3.7,7.29-8.3,6.47-20.94-1.85-28.22-.74-.65-1.53-1.24-2.36-1.78,13.22-6.7,27.84-34.9,27.84-34.9M238.33,124.1c-.79,1.79-1.03,3.77-.7,5.7.13-1.91.37-3.81.7-5.7M78.11,385.8c.6-3.4,1.2-6.7,2-10-2.7-4.79-6.47-8.9-11.02-12,4.83-2.69,6.56-8.78,3.86-13.61-.45-.8-1.01-1.54-1.66-2.19-6.47-8.16-8.39-19.02-5.11-28.9,0,0,8.11,10,12.82-11.4l2.2-4,2.6,7.3,2.6-7.3,2.1,4c3.5,15.4,8.61,14.5,11.22,12.8,4.72-9.45,10.07-18.57,16.02-27.3-1.2-3.53-2.6-7.03-4.21-10.5,3.43-4.7,7.75-8.68,12.72-11.7-8.98-5.66-11.67-17.52-6-26.48.56-.89,1.2-1.73,1.9-2.52,13.52-17.4,15.52-44.3,9.41-53.1,0,0-14.72,18.2-23.53-20.8l-4.01-7.4-4.71,13.4-2.9-8.3c6.51-17.4,13.82-25.5,20.03-28.6-3.6-6.42-8.55-11.98-14.52-16.3,6.41-4.34,8.08-13.04,3.74-19.44-.35-.51-.73-1-1.14-1.46-10.01-12.9-11.32-32.7-6.91-39.2,0,0,10.92,13.4,17.32-15.3l3-5.5,4.01,10,3.4-10,3,5.5c3.91,17.1,9.31,19.2,13.02,18.2-4.58-13.94-11.34-27.07-20.03-38.9-2.42-3.12-4.53-6.47-6.31-10,16.21,17.03,29.99,36.21,40.96,57,0,0,4.61-8.7,11.72-20,3.06,4.5,2.33,10.55-1.7,14.2-7.15,9.12-9.29,21.19-5.71,32.2,0,0,9.01-11,14.32,12.6l2.4,4.4,2.8-8.1,2.9,8.1,2.4-4.4c5.31-23.6,14.22-12.6,14.22-12.6,3.68-10.99,1.57-23.1-5.61-32.2-4.29-4.69-3.95-11.97.75-16.25.51-.47,1.07-.89,1.65-1.25-6.14-4.68-11.17-10.65-14.72-17.5,3.4-4.3,6.91-8.5,10.51-12.3-1.36,7.5-.31,15.23,3,22.1,0,0,15.52-19,24.73,21.9l4.31,7.8,4.91-14.1,4.91,14.1,4.31-7.8c9.11-40.9,24.73-21.9,24.73-21.9,4.81-6.9,4.71-24.6-1.6-40.8H107.75s-65.59,0-65.59,0c.86,2.24,2.36,4.19,4.31,5.6-5.81,4.76-10.56,10.69-13.92,17.4-2.8-5-6.16-9.66-10.01-13.9-2.1,5.54-5.07,10.7-8.81,15.3-5.3,7.14-9.89,14.78-13.72,22.8v125.8c4.23.02,8.23,1.93,10.92,5.2,5.11-7.3,5.61-24.9,0-42.3,8.6.98,16.09,6.3,19.83,14.1,4.75-5.75,3.93-14.26-1.83-19-.44-.36-.9-.69-1.38-1,7.96-6.49,14.45-14.61,19.03-23.8,4.59,9.21,11.11,17.33,19.13,23.8-6.24,4.09-7.98,12.46-3.88,18.69.3.45.62.89.98,1.31,9.51,12.4,11.02,31.4,6.71,37.6,0,0-10.51-12.9-16.72,14.8l-2.9,5.6-3.4-9.5-3.3,9.5-2.8-5.2c-.82-4.04-2.13-7.97-3.91-11.7-6.41,9.18-14.62,16.97-24.13,22.9,15.87,9.76,20.81,30.52,11.04,46.37-1.03,1.68-2.21,3.26-3.53,4.73-7.9,10.48-13.84,22.31-17.52,34.9l-1.9-3.2v120l1.7,4.7,3.6-6.6c7.91-35,21.13-18.7,21.13-18.7,5.01-7.2,3.91-28.1-5.71-43.6,7.81,2.6,16.62,13.4,23.33,43.5l7.21,13.1,8.21-24.2,8.31,23.7,7.11-13.1c.8-3.3,1.5-6.5,2.4-9.4M417.48,599.4h-24.63l-1.5-5.3-1-3.2h-26.04c-.28,7.55-2.38,14.93-6.11,21.5.7,1.8,1.7,3.5,2.5,5.2,25.59-.96,50.71-7.16,73.8-18.2h-17.02ZM580,550.5v-120.5c-7.81,19-17.62,6.9-17.62,6.9-5.01,7.2-3.81,28.1,5.71,43.7-7.71-2.7-16.52-13.4-23.33-43.6l-7.11-13.1-8.31,23.8-8.31-23.8-7.21,13.1c-1.33,6.2-3.04,12.31-5.11,18.3,2.96,5.13,6.99,9.57,11.82,13-4.81,2.73-6.49,8.83-3.76,13.63.43.75.95,1.45,1.56,2.07,6.47,8.2,8.39,19.09,5.11,29,0,0-8.01-10-12.82,11.3l-2.2,4-2.6-7.3-2.5,7.3-2.2-4c-4.81-21.2-12.82-11.3-12.82-11.3-3.28-9.91-1.36-20.8,5.11-29,1.66-1.97,2.61-4.43,2.7-7-6.89,5.63-17.05,4.62-22.69-2.26-.12-.14-.23-.29-.34-.44,1.43-2.57,3.42-4.79,5.81-6.5-5.78-3.89-10.67-8.97-14.32-14.9-13.92,31.1-24.53,58.5-32.14,80,3.71-2.7,11.82-4.9,17.22,18.9l3.3,6.1,3.81-11,3.91,11,3.3-6.1c.91-6.8,3.72-13.22,8.11-18.5,1.61,5.39,3.65,10.64,6.11,15.7-3.48,4.68-7.79,8.68-12.72,11.8,5.7,3.86,9.09,10.32,9.01,17.2,2.52.35,4.81,1.63,6.41,3.6,3.77,4.06,3.77,10.34,0,14.4-6.99,7.12-14.41,13.8-22.23,20-2.58,8.97-1.94,18.55,1.8,27.1,0,0,14.82-18.1,23.53,20.9l4.01,7.4,4.81-13.5,2.9,8.3c-6.61,17.4-13.82,25.5-20.63,28.6,3.73,6.59,8.86,12.29,15.02,16.7-6.56,4.11-8.54,12.75-4.43,19.3.45.71.96,1.38,1.52,2,10.01,12.9,11.42,32.7,6.91,39.1,0,0-10.92-13.4-17.32,15.4l-3,5.4-3.5-10-3.4,10-3-5.4c-4.31-17.3-9.71-19.3-13.42-18.3,4.5,13.97,11.26,27.12,20.03,38.9,1.6,2.2,3,4.3,4.21,6.3l105.04-60v-98.1c-.74-.62-1.45-1.29-2.1-2-5.11,7.3-5.61,25,0,42.3-8.34-1.13-15.54-6.4-19.13-14-4.75,5.75-3.93,14.26,1.83,19,.44.36.9.69,1.38,1-7.94,6.52-14.42,14.62-19.03,23.8-4.6-9.18-11.09-17.28-19.03-23.8,6.22-4.13,7.91-12.51,3.77-18.72-.3-.45-.62-.88-.97-1.28-10.01-12.3-10.92-31.4-6.71-37.5,0,0,10.01,12.8,16.72-14.8l2.9-5.2,3.3,10,3.3-10,2.9,5.2c.78,4.01,2.06,7.91,3.81,11.6,6.49-9.11,14.69-16.89,24.13-22.9-15.75-9.85-20.52-30.58-10.66-46.31,1.04-1.66,2.23-3.23,3.55-4.69,3.88-5.26,7.23-10.89,10.01-16.8M435.8,761c10.38,19.55,23.13,37.75,37.95,54.2l-72.8,41.9c-.25-7.74-3.03-15.18-7.91-21.2-1.91,4.17-4.26,8.13-7.01,11.8-5.01,5.38-6.52,13.13-3.91,20l-91.93,53.1-15.32-8.9c.27-3.54,1.36-6.96,3.2-10,0,0,10.01,11.8,18.33-2.5l-1.9-3.6c-5.31-23.3-14.32-12.4-14.32-12.4-3.69-10.89-1.57-22.91,5.61-31.9,4.25-4.72,3.86-12-.87-16.24-.48-.43-.99-.82-1.53-1.16,6.72-5.47,12.21-12.28,16.12-20,3.92,7.74,9.45,14.56,16.22,20-5.39,3.36-7.04,10.46-3.67,15.85.34.55.73,1.07,1.17,1.55,5.3,7.22,7.96,16.05,7.51,25l1.6,2.9c.6,2.7,1.3,5.1,1.9,7.3.88-1.73,1.92-3.37,3.1-4.9,4.23-4.74,3.8-12.01-.95-16.24-.49-.43-1.01-.82-1.56-1.16,5.83-4.25,10.6-9.8,13.92-16.2l-.7-.9c-14.12-18.4-16.22-46.6-10.01-55.8,0,0,15.52,19.1,24.73-21.9l4.21-7.7,4.91,14.1,5.01-14.1,4.21,7.7c9.21,41,24.73,21.9,24.73,21.9,3.3,6.87,4.35,14.6,3,22.1,3.56-3.88,6.91-7.95,10.01-12.2-3.48-6.93-8.51-12.95-14.72-17.6,5.43-3.42,7.05-10.58,3.63-16-.33-.53-.71-1.03-1.13-1.5-7.25-9.03-9.4-21.13-5.71-32.1,0,0,8.91,11,14.22-12.6l2.4-4.5,2.9,8.1,2.8-8.1,2.5,4.5c5.31,23.6,14.22,12.6,14.22,12.6,3.69,10.97,1.54,23.07-5.71,32.1-3.79,3.86-4.13,9.93-.8,14.2,7.11-11.2,11.72-20,11.72-20M300.21,892.5h0l-1,2.9c0-.8.7-1.7,1.1-2.6M444.71,602.8c-24.81,12.99-52.14,20.49-80.11,22,1.34,2.35,2.81,4.62,4.41,6.8,4.35,5.14,6.69,11.67,6.61,18.4,21.77-6.24,42.49-15.67,61.48-28h0c3.15-5.93,5.6-12.21,7.31-18.7M289.5,18.4c3.55-6.78,8.11-12.98,13.52-18.4h-27.04c5.41,5.42,9.96,11.62,13.52,18.4M125.37,280h0l3.81-4.8-.5-1.3-3.3,6.1ZM456.63,440s-11.52,22-22.03,27.5c7.33,4.65,9.5,14.35,4.84,21.67-.46.72-.97,1.4-1.54,2.03-6.8,9.56-10.32,21.07-10.01,32.8,7.91-21.9,18.53-48.7,32.04-78.8l-3-5.2M295.81,55.4s16.12-20,25.64,22.6l4.31,8,5.11-14.6,5.11,14.6,4.31-8c10.01-42.3,25.54-22.6,25.54-22.6,6.31-9.1,4.51-36.5-8.71-55.4h-52.57c-13.12,18.9-15.02,46.3-8.71,55.4"/>
    <path class="cls-2" d="M475.16,586.7c1.22,1.21,1.22,3.17.02,4.38,0,0-.01.01-.02.02-90.3,89.46-236.13,88.88-325.72-1.3-89.58-90.18-89-235.81,1.3-325.27,87.99-87.17,229.28-89.17,319.71-4.53l3.4,3.3c1.33,1.24,1.41,3.33.16,4.66-1.17,1.26-3.12,1.4-4.47.34-88.09-64.49-211.85-45.46-276.43,42.51-64.58,87.97-45.52,211.56,42.57,276.05,69.94,51.2,165.12,50.93,234.77-.66,1.33-1.08,3.29-.88,4.37.45.01.02.03.03.04.05M498.39,366.7c-37.6,67.81-67.62,139.54-89.52,213.9,1.1,3.4,3.6,9.4,8.41,11h-18.83l-2.4-8.6h-55.18l-2.4,8.6h-19.03c6.71-2.2,8.91-13.4,8.91-13.4-88.22-90.2-69.5-217.7-69.5-217.7,3.99-6.4,4.66-14.32,1.8-21.3-6.11-3.9-10.01-6.7-10.01-6.7l5.61-51.4c14.42,27.9,37.35,50,84.82,50h.6c23.6-.51,47.01-4.24,69.6-11.1,97.43-26.8,87.42,47,87.42,47M349.48,556l-51.77-179c-23.23,128.1,48.57,187.1,48.57,187.1,1.1-2.7,2.1-5.3,3.2-7.9M360.3,531.9l-50.07-173.3c-2.8,0-5.51-1.1-8.01-1.8-.9,3.6-1.7,7.2-2.5,10.7l52.47,182.5c2.6-6,5.21-11.9,7.91-17.6M371.31,510l-42.96-150c-4.46-.1-8.9-.47-13.32-1.1l47.97,166.5c2.7-5.5,5.51-10.9,8.31-16.3M383.03,488.4l-37.35-128.4c-4.22.58-8.46.91-12.72,1l41.46,143.4c2.8-5.2,5.71-10,8.61-15.1M395.04,469.3l-32.65-113.3c-4.02,1.16-8.1,2.09-12.22,2.8l35.95,124.7c3-4.9,6.01-10,8.91-14.2M407.46,450.9l-29.04-100.9-6.31,2.5-5.41,1.9,31.64,110c3-4.6,6.11-9.1,9.11-13.4M420.38,433.5l-25.64-88.8c-3.81,1.2-7.81,2.5-11.82,4l27.44,97.5,10.01-12.7M433.3,417l-22.43-77-12.12,3.3,24.73,85.7c3.3-4.2,6.41-8.2,10.01-12M446.72,401.3l-18.73-64.7c-3.94.6-8.04,1.4-12.32,2.4l21.33,73.7c3.3-4.1,6.61-7.9,10.01-11.4M460.33,386.4l-14.82-51.3c-4.25.02-8.5.32-12.72.9l17.72,61.3c3.5-4.1,6.81-7.7,10.01-10.9M450.52,335.2l13.72,47.4c8.11-8.6,13.12-13.2,13.12-13.2,7.21-22.7-4.51-33.2-26.84-34.2"/>
  </g>
</svg>