<?xml version="1.0" encoding="UTF-8"?>
<svg id="Layer_1" data-name="Layer 1" xmlns="http://www.w3.org/2000/svg" viewBox="0 0 580 1000">
  <defs>
    <style>
      .cls-1 {
        fill: #fff;
      }

      .cls-2 {
        fill: #d8b520;
      }

      .cls-3 {
        fill: #a43722;
      }
    </style>
  </defs>
  <g id="Lords_Alliance" data-name="Lords Alliance">
    <polygon class="cls-3" points="294.81 934.2 289.9 937 284.99 934.2 76.03 813.7 76.03 876.7 289.9 1000 503.77 876.7 503.77 813.7 294.81 934.2"/>
    <polygon class="cls-3" points="579.8 753.7 289.9 920.8 0 753.7 0 0 579.8 0 579.8 753.7"/>
    <path class="cls-2" d="M485.44,46.7l-2,1.4,1.1-48.1h12.02l-1,39.2h0c-1.2,0-1.3,1.6-2.91,2.4s0,0-1.7,0h-2.4l-1.3,1.6-.8,1.2c-.52.67-.86,1.46-1,2.3ZM579.8,0v24.8l-6.71,1.3-1.8,73.9-10.02,26.3.3,43.7c-2.01,2.14-2.7,5.2-1.8,8,1.5,4.9,1.6,3.3-1.8,11.3s0-1.6-3.51,7.9c-3.25,6.76-8.1,12.63-14.12,17.1l1.5-62.7-.9.5-1.3,1.6c-.14.6-.38,1.17-.7,1.7l-.7,1.3-1.4.7h-1.7l-1.1,1.3s-1.3,1-1,2c.19.79.19,1.61,0,2.4v1.7l-.8,2.7h-.7l-1.8,77.2,1.7-1.2c.08-.59.32-1.14.7-1.6l.7-1,1.1-1.4c.47-.06.94-.06,1.4,0l-1,42.5,13.22-2v-3c0-6.2-1.1-8.7-1-13.6s.7-28.4.7-28.4l10.02-8.4,1.3-4.9,5.31-5,3.81-.8.8-34,3.61-14.9,7.51-18.5v26.5h0s-2.1,1.6-1.6,3.2c.3,1.25.3,2.55,0,3.8v2.7l-1.2,4.2-1.1.5-2.91,122.2,2.7-1.8c.18-.98.6-1.91,1.2-2.7l1.1-1.6,1.6-2.1h.6v217.7l-.6.7-.8,1.2c-.49.56-.8,1.26-.9,2l-2,1.4.7-29.3-30.85,6.3c5.78,13.97,7.92,29.18,6.21,44.2-3.77,18.04-11.32,35.07-22.14,50-12.54,14.54-27.69,26.61-44.68,35.6-3.35,1.71-7.05,2.64-10.82,2.7-1.66-.02-3.31-.26-4.91-.7h-1.3c-.3.39-.54.83-.7,1.3-.8,1.6-7.41,18.5-11.32,28.6l-5.71,14.3-16.43,41.8,2.2-44.8,6.51-137.6-1.6,2c-.79.61-1.49,1.32-2.1,2.1l1.4-43.7,2.7-11.3.8-2c-48.02-22.75-100.61-34.28-153.77-33.7-27.8.01-55.52,3.1-82.64,9.2v15.3h.7l2.91-1.5,1.4-2.8c.7-1.07,1.21-2.25,1.5-3.5l2.7-3.4,1.8-1.1v42.9l-37.46,8.4-3.61,3.5-.9,3.5-7.01,6v20c0,3.5.8,5.2.8,10v6.9l1.7,10-5.31,13.9-1.8,7.9v58.8l8.61-2v30.7l2.2-1.5c.09-.8.4-1.57.9-2.2l.9-1.3,1.3-1.8h4.41c1.8,0,1.7-2.6,3.01-2.6h0v-24.3l16.23-3.6v-4.5l1.8-.8,1.8-7.1v-4.4c.47-2.04.47-4.16,0-6.2-.9-2.6,2.6-5.2,2.6-5.2l2.7-3.6,4.41-.8,3.61-1.7,1.8-3.6c.85-1.35,1.46-2.84,1.8-4.4l3.31-4.1,2.3-1.4v42l2.4-.5v-2.2c0-5.2.9-3.5.9-3.5,3.67-2.61,6.69-6.03,8.82-10,.43-1.48,1-2.92,1.7-4.3,1.8-4.3,1.8-3.4.9-6-.47-1.52-.13-3.18.9-4.4l-.7-23.4,5.31-14.2v-13.9l4.41-1c.14-.76.14-1.54,0-2.3-.6-1.8,1.9-3.7,1.9-3.7l1.8-2.4,3.11-.6,2.5-1.2,1.2-2.5c.61-.91,1.05-1.93,1.3-3l2.3-2.9,1.6-.9-1,155.8h0c-1.8,0-1.9,2.4-4.31,3.6s0,0-2.5.6,0,0-3.61,0l-1.9,2.4c-.19.39-.42.76-.7,1.1v14.4c-1.52,1.72-1.98,4.14-1.2,6.3,1.2,3.8,1.2,2.5-1.4,8.8-1.04,2.01-1.88,4.12-2.5,6.3l-.7,1.5,27.25-6.1v5.8c0,4,.9,5.9.9,10.9v7.9l.9,11.8-6.11,15.7-2,9.1v67l28.15-6.2,1,31.4c-1.57,1.74-2.07,4.19-1.3,6.4,1.2,3.8,1.2,2.5-1.3,8.8s0-1.3-2.6,6.3c-1.64,3.8-4.06,7.2-7.11,10l-101.47-58.5,1-4.3,7.71-20-2.4-15.2v-10c0-6.3-1.2-8.8-1.2-13.9v-25.4l-10.02,2.1v25.6l-5.81,15.7.8,25.8c-1.17,1.31-1.55,3.14-1,4.8,1,2.8,1,1.9-1,6.6-.15.52-.35,1.02-.6,1.5l-78.44-45.3,2.4-6-1.9-11.5v-7.6c0-4.7-.9-6.7-.9-10.5v-11.7l-30.05,6.7v-10c-1.75,1.92-3.66,3.69-5.71,5.3,0,0-1-1.9-1,3.8v2.4l-21.74,4.9-16.83-10,15.33-3.4v-2.3c0-5.1.9-3.4.9-3.4,3.66-2.59,6.65-6.02,8.72-10,.45-1.49,1.06-2.93,1.8-4.3,1.8-4.3,1.8-3.4.9-6-.47-1.52-.13-3.18.9-4.4l-.7-23.4,5.31-14.2v-37.8c-.25.29-.56.52-.9.7-2.1,1,0,0-2.1,0h-3.21l-1.6,2.1-1.1,1.6c-.61.78-.99,1.71-1.1,2.7l-2.7,1.8v-41.2l-10.02,2.4v-72l-.6-3h-.8l-2,2.5c-.22.95-.59,1.86-1.1,2.7l-1.1,2.1-2.1,1.1h-2.7l-1.6,2.1s-2.2,1.6-1.7,3.2c.28,1.25.28,2.55,0,3.8v2.7l-1.1,4.3h-1.1v52.6l-13.02,2.9v-205.3l19.43-4.4v80.9l3.51-2.4c.14-1.22.59-2.39,1.3-3.4l1.4-2,2.1-2.7c4.01,0,1.3.7,4.01,0s0,.7,2.8-.6,2.7-4.1,4.71-4.1h0v-70h.8l-.6-2.8,1.2-2.7v-.9c3.71-8.2,22.74-50,36.26-60.7l3.31-2.7,9.42-7.8,2.5,12,.8,4.1c2.28,11.72,6.02,23.1,11.12,33.9,3.01,5.3,5.71,5.3,6.71,5.3,1.82-.06,3.58-.61,5.11-1.6,4.73-5.51,6.62-12.9,5.11-20-.8-3-1.3-6.5-1.9-10-1.44-12.64-5.1-24.93-10.82-36.3l-.9-1.6-2.5-4.6,3.51-3.8,1.2-1.3s33.76-38.4,54.29-50l3.51-2,10.02-5.6,1,11.4v4c1.54,25.17,4.88,50.21,10.02,74.9,1.7,6.1,5.71,16.3,12.52,16.3h2.3c10.02-2.1,15.23-20,13.62-30,0-2.9-.8-7-1.3-11.7v-1.6c-1.8-18.2-5.51-56.2-15.73-67.1l-2.91-3.1-8.21-9.7,11.72-3.3,4.11-1.1c10.02-2.8,53.49-30,80.14-47.9l1.4-1,4.21-2.8,4.11,2.8,1.4.9h0c18.73,12.5,40.07,26,56,35.5v-6l1.5-.6,1.6-5.8v-3.6c.38-1.68.38-3.42,0-5.1-.7-2.2,2.2-4.3,2.2-4.3l2.3-2.8,3.61-.7,3.01-1.4,1.5-2.8.8-1.7v-9.8c0-5.5-.9-7.7-.8-12.1v-8.1l-37.56,7.7,1.7-68.3-1.7.6-1,1.7c-.12.61-.36,1.18-.7,1.7l-.7,1.3-1.4.7h-1.7l-1.1,1.3s-1.4,1-1,2c.2.79.2,1.61,0,2.4v1.7l-.8,2.7h-.7l-.9,54.2-10.02,2,2.3-94.5,3.11-12.8,8.92-22.1-2.4-16.8v-11.1c-.18-4.25-.58-8.49-1.2-12.7h72.22v16.5l2.8-1.8c.11-.99.49-1.92,1.1-2.7l.8-2,1.6-2.1c3.31,0,1.1.5,3.31,0s0,.5,2.2,0,2.2-3.2,3.81-3.2h0V0h6.41l-1,42.1,1.7-1.1c.14-.62.41-1.2.8-1.7l.7-1,1-1.4h2.1c1.4,0,0,0,1.3,0s1.4-2,2.4-2h0l1.3-34.9h54.39l-.6,2.2-6.41,5.4v18.1c0,3.1.6,4.7,0,8.7s0,6.3,0,6.3l1.3,9.5-5.01,12.5-1.7,7.3-.6,25,.7-2.8v-2.2c.23-.95.23-1.95,0-2.9,0-1.2,1.3-2.4,1.3-2.4l1.6-1.5h2l1.7-.8.8-1.6c.42-.61.73-1.28.9-2l1.6-1.9,1-.7-1.1,45.2,49.28-10v-2.1c0-4.7.8-3.1.8-3.1,3.41-2.41,6.19-5.6,8.11-9.3,1.7-4.7,0,0,1.7-3.9s1.7-3.1.9-5.5c-.42-1.37-.08-2.85.9-3.9v-21.3l5.11-12.9.8-49.4h35.06ZM532.52,413.2v-.9c-.9-1.9-21.54-47.7-34.26-58.1l-3.21-2.6-.9,4.1c-2.42,12.46-6.43,24.56-11.92,36-1.71,3.36-4.44,6.1-7.81,7.8l-1.1,41.8,5.91-1.3,1-31.5,1.8-.8,1.9-7v-4.4c.49-2.04.49-4.16,0-6.2-.9-2.7,2.7-5.2,2.7-5.2l2.8-3.5,4.41-.7,3.61-1.7,1.8-3.5c.9-1.34,1.54-2.83,1.9-4.4l3.41-4.1,2.3-1.4-1.6,69.1,20.94-4.7,6.31-16.8ZM419.22,251.6l2.7-1.8c.11-.99.49-1.92,1.1-2.7l1.2-1.6,1.6-2.1c3.21,0,1.1.6,3.21,0s0,0,2.2-.5,2.2-3.2,3.81-3.1h0l3.31-136.6-1.4.9-2.1,2.4c-.2.96-.57,1.87-1.1,2.7l-1.2,2.1-2.1,1.1h-2.7l-1.7,2.1s-2.2,1.6-1.7,3.2c.3,1.25.3,2.55,0,3.8v2.6l-1.2,4.3h-1.1l-2.8,123.2ZM386.67,296.7l-.6,25.6h0c-2,0-2,2.7-4.81,4s0,0-2.7.6,0,0-4.01,0l-2.1,2.6-1.4,2-.6,1.1-.4,24.8c1.64,2.4,4.1,4.14,6.91,4.9.73.1,1.47.1,2.2,0,6.81,0,10.72-10,12.52-16.3,5.13-24.69,8.48-49.73,10.02-74.9v-4l1-11.4,3.71,2,.9-39.4-.9.5-1.3,1.6c-.14.57-.38,1.11-.7,1.6l-.7,1.4-1.4.6h-1.7l-1,1.4s-1.4.9-1.1,2c.19.79.19,1.61,0,2.4v1.6l-.7,2.7h-.7l-1.5,60-8.92,2.6ZM67.22,616.7v-2.1c-3.21-2.8-6.11-5.5-8.72-8v11.9l8.72-1.8ZM136.44,670.9h-1.2v2.1l1.5,3.8-.3-5.9ZM138.64,729.3v-27.2l-3.61-9.3v3.8l-4.51,12.1.7,20c-.57.56-.93,1.3-1,2.1l8.41-1.5ZM148.66,668.3l-4.51,1v9.5l4.51-10.5ZM445.87,479.1l4.31-10.8-2.1-14.9v-10c0-6.3-1-8.7-.9-13.7v-8.5c-2.1,1.9-3.51,5.7-8.01,7.9-6.31,2.9,0,0-6.31,1.4s0,0-9.32,0l-4.81,6.1-3.21,4.6c-1.82,2.2-2.97,4.87-3.31,7.7l-7.91,5.3,3.51-147.3,3.11-1.3,3.41-12.4v-2l-8.72,1.8c-1.26,18.68-3.94,37.23-8.01,55.5-2.7,10-8.41,21.6-20.03,21.6-1.26.14-2.54.14-3.81,0-2.44-.51-4.74-1.57-6.71-3.1-1.3.7-1.8,2.8-4.21,3.9s0,0-2.91.6,0,0-4.41,0l-2.2,2.9-1.5,2.1c-.82,1.05-1.37,2.29-1.6,3.6l-3.71,2.5,3.71-150.6c-25.04-14.4-60.1-37.6-60.1-37.9l-1.4-1-1.5,1c-17.03,11.5-68.72,45.3-81.74,48.9l-4.11,1.1,2.91,3.1c11.92,12.8,15.53,50,17.63,71.5,0,5.4,1,10,1.4,12.9,2.1,13.7-4.51,35.4-19.43,38.6-1.26.14-2.54.14-3.81,0-11.12,0-16.83-11.7-20.03-21.6-5.25-25.15-8.6-50.65-10.02-76.3v-4l-3.41,2c-18.93,10.7-51.19,46.9-52.49,48.5l-1.2,1.3.8,1.6c6.59,11.89,11.01,24.86,13.02,38.3.6,3.6,1,6.8,1.7,9.3,2.62,10.52-.76,21.63-8.82,28.9-2.69,1.54-5.72,2.4-8.82,2.5-5.74-.25-10.83-3.74-13.12-9-5.5-11.44-9.5-23.54-11.92-36l-.9-4.1-3.21,2.6c-12.72,10-33.36,56.2-34.26,58.1v1.6l4.51-1v13.2l4.41,12.1c1.91,6.48,2.46,13.29,1.6,20-.92,8.5-3.08,16.82-6.41,24.7v38.9c.43-.75.73-1.56.9-2.4l2-2.5,1.4-.9v24.6l.7-1.3,1.5-2.2,2.2-2.9c4.31,0,1.4.8,4.31,0s0,.7,2.91-.7c.9-.41,1.67-1.07,2.2-1.9v30l-11.22,30v3.7c2.86,3.24,5.9,6.31,9.12,9.2v-16.4l2.91-13.3,8.92-23-2.8-17.4v-11.5c0-7.2-1.4-10-1.4-15.9v-33.2l11.62-10,.8-3v40.7l3.41-2.4c.14-1.22.59-2.39,1.3-3.4l1.4-2,2.1-2.7c4.11,0,1.3.7,4.11,0s0,.7,2.7-.6,2.7-4.1,4.81-4.1h0v-37.2l99.57-22.1v27c27.24-6.01,55.05-9.1,82.94-9.2,53.91-.38,107.21,11.34,155.97,34.3ZM537.93,504.9l-5.41,1.1-3.41,3.2-.8,3.1-6.51,5.4v18.1c0,3.1.7,4.8.6,8.7s0,6.3,0,6.3l1.4,10-2.4,5.9-19.33,3.3-.5,20h0c-2.6,0-2.7,3.4-6.31,5.1s0,0-3.51.8,0,0-5.31,0l-2.7,3.5-1.9,2.6c-.99,1.24-1.62,2.73-1.8,4.3l-4.51,3,.8-34-14.83,3,1.2-51.5c-1.79-.67-3.64-1.21-5.51-1.6v.7c-.4,1.67-1.07,3.26-2,4.7l-2,3.8-2.5,1.2-6.81,141.1,5.71-14.6c3.61-9.1,10.62-26.9,11.42-28.8.99-3.29,3.97-5.59,7.41-5.7,1.18.03,2.36.19,3.51.5.93.16,1.88.16,2.8,0,2.64-.1,5.24-.74,7.61-1.9,15.97-8.57,30.26-19.95,42.17-33.6,9.71-13.87,16.52-29.55,20.03-46.1,1.42-14.2-.86-28.53-6.61-41.6ZM526.81,294.1v15.1h0c-1.8,0-1.9,2.4-4.41,3.5s0,0-2.4.6,0,0-3.61,0l-1.9,2.4-1.3,1.8c-.67.83-1.09,1.84-1.2,2.9l-3.11,2.1.6-24.7-16.93,3.5-3.61,3.5-1,3.4-7.71,5.8v20c0,3.5.7,5.2.6,10s-.6,6-.6,6l1.5,10.5-5.51,13.7-1.9,7.9v7.5l1.2-1.9c5.1-10.8,8.83-22.18,11.12-33.9l.8-4.1,2.5-12,9.42,7.8,3.31,2.7c14.32,11.7,35.36,58.7,36.26,60.7v.9l1.2,2.7-1,2.9-4.71,12.9,4.61-.9v-2.3c0-5.2,1-3.4,1-3.4,3.72-2.59,6.77-6.01,8.92-10,1.8-5.2,0,0,1.8-4.3s1.8-3.4,1-6c-.48-1.54-.1-3.22,1-4.4v-23.4l5.51-13.6,2.1-72.7-33.56,6.8ZM579.8,100v-40c0,9.4-.7,26.2-.8,30.8,0,3.08.27,6.16.8,9.2Z"/>
    <path class="cls-1" d="M450.18,524.5h2.5c7.02.92,13.81,3.13,20.03,6.5l1.9,1v2c-2.1,7.9-.8,21.2,2.2,22.2.86.11,1.74.11,2.6,0,3.61,0,10.02-2,15.73-15.3,3.31-7.86,4.45-16.45,3.31-24.9-40.97-42.8-122.71-70.9-208.56-71.2s-167.49,28.4-208.46,71.6c-1.15,8.45,0,17.04,3.31,24.9,5.31,13.3,12.12,15.3,15.73,15.3.83.12,1.67.12,2.5,0,3.11-1,4.41-14.3,2.3-22.2v-2l1.9-1c6.22-3.37,13.01-5.58,20.03-6.5h2.4l7.31,152.2-5.71-14.6s-10.02-26.5-11.42-28.8c-.99-3.29-3.97-5.59-7.41-5.7-1.18.03-2.36.19-3.51.5-.93.16-1.88.16-2.8,0-2.64-.1-5.24-.74-7.61-1.9-15.97-8.57-30.26-19.95-42.17-33.6-9.89-13.83-16.87-29.51-20.54-46.1-1.72-14.97.7-30.12,7.01-43.8l1.4-2.8c7.02-13.11,11.76-27.31,14.02-42,.86-6.71.31-13.52-1.6-20l-9.12-25v-.9c.9-1.9,21.54-47.7,34.26-58.1l3.21-2.6.9,4.1c2.42,12.46,6.43,24.56,11.92,36,2.29,5.26,7.38,8.75,13.12,9,3.1-.1,6.13-.96,8.82-2.5,7.8-7.18,11.13-17.99,8.72-28.3-.7-2.5-1.1-5.7-1.7-9.3-1.55-13.53-5.52-26.67-11.72-38.8l-.8-1.9,1.2-1.3c1.3-1.6,33.56-37.8,52.49-48.5l3.41-2v4c1.42,25.65,4.77,51.15,10.02,76.3,2.7,10,8.41,21.6,20.03,21.6,1.26.14,2.54.14,3.81,0,14.93-3.2,21.54-24.9,19.43-38.6,0-3-.9-7.5-1.4-12.9-2.1-21.9-5.71-58.7-17.63-71.5l-2.91-3.1,4.11-1.1c13.02-3.6,64.71-37.4,81.74-48.9l1.5-1,1.4,1c.7,0,66.61,44.6,82.04,48.9l4.51,1.2-3.41,3.2c-6.41,5.9-14.93,25.3-18.93,84-.9,13.8,4.61,35.7,19.43,38.8,1.26.14,2.54.14,3.81,0,11.12,0,16.83-11.7,20.03-21.6,5.27-25.14,8.62-50.65,10.02-76.3v-4l3.51,2c18.83,10.7,51.09,46.9,52.39,48.5l1.2,1.3-.9,1.6c-6.21,12.01-10.28,25-12.02,38.4-.6,3.6-1.1,6.8-1.7,9.3-2.49,10.52.88,21.55,8.82,28.9,2.74,1.52,5.79,2.37,8.92,2.5,5.74-.25,10.83-3.74,13.12-9,5.5-11.44,9.5-23.54,11.92-36l.9-4.1,3.21,2.6c12.72,10,33.36,56.2,34.26,58.1v.9l-9.12,24.9c-1.88,6.49-2.43,13.29-1.6,20,2.26,14.69,7,28.89,14.02,42l1.4,2.8c6.26,13.7,8.68,28.84,7.01,43.8-3.51,16.55-10.32,32.23-20.03,46.1-11.91,13.65-26.2,25.03-42.17,33.6-2.38,1.16-4.97,1.8-7.61,1.9-.93.16-1.88.16-2.8,0-1.14-.31-2.32-.47-3.51-.5-3.44.11-6.42,2.41-7.41,5.7-.8,1.9-7.81,20-11.42,28.8l-5.71,14.6,6.61-152.4Z"/>
  </g>
</svg>