<?xml version="1.0" encoding="UTF-8"?>
<svg id="Layer_1" data-name="Layer 1" xmlns="http://www.w3.org/2000/svg" viewBox="0 0 580 1000">
  <defs>
    <style>
      .cls-1 {
        fill: #c3cfdb;
      }

      .cls-2 {
        fill: #fff;
      }

      .cls-3 {
        fill: #c0cdd8;
      }

      .cls-4 {
        fill: #878f95;
      }
    </style>
  </defs>
  <g id="Order_of_the_Gauntlet" data-name="Order of the Gauntlet">
    <path class="cls-4" d="M580,753.7l-289.7,167.1L.6,753.7V0h579.4v753.7Z"/>
    <path class="cls-1" d="M96.1,316.1c-2.31-3.2-3.54-7.05-3.5-11-.05-3.92,1.18-7.74,3.5-10.9h0c4.74-6.02,8.46-12.78,11.01-20,2.55,7.22,6.27,13.98,11.01,20h0c2.36,3.14,3.63,6.97,3.6,10.9,0,3.96-1.26,7.81-3.6,11h0c-4.77,6-8.49,12.76-11.01,20-2.52-7.24-6.25-14-11.01-20ZM.6,678v29.4c5.86-8.93,5.86-20.47,0-29.4ZM34.14,530c-2.57,7.21-6.29,13.97-11.01,20h0c-2.34,3.19-3.6,7.04-3.6,11-.02,3.93,1.24,7.76,3.6,10.9h0c4.7,6.04,8.42,12.8,11.01,20,2.55-7.22,6.27-13.98,11.01-20h0c2.4-3.12,3.67-6.96,3.6-10.9.05-3.96-1.22-7.83-3.6-11h0c-4.77-6-8.49-12.76-11.01-20ZM23.62,530.9c11.88-16.45,11.88-38.65,0-55.1h0c-9.08-12.04-16.81-25.06-23.02-38.8v133c6.2-13.72,13.92-26.7,23.02-38.7v-.4ZM580,753.7v-17.1c-3.66,8.49-7.98,16.68-12.91,24.5l12.91-7.4ZM572.89,632.7h0c-1.44-2-2.44-4.28-2.9-6.7-9.78,14.86-17.59,30.93-23.22,47.8-8.17-23.83-20.25-46.13-35.74-66h0c-4.72-6.07-8.13-13.05-10.01-20.5-7.59,14.47-14.27,29.4-20.02,44.7,2.11,7.64,3.38,15.49,3.8,23.4,8.68-13.74,15.67-28.48,20.82-43.9,8.1,23.84,20.15,46.15,35.64,66h0c2.41,3.09,4.45,6.45,6.11,10,.36-.66.77-1.29,1.2-1.9h0c7.02-9.03,12.47-19.17,16.12-30,3.48,10.18,8.59,19.74,15.12,28.3v35c-6.52,8.6-11.63,18.19-15.12,28.4-2.97-8.87-7.22-17.25-12.61-24.9-1.49,9.31-5.19,18.12-10.81,25.7h0c-10.06,13.29-18.81,27.52-26.13,42.5l-6.11,3.5-8.51,5.9c-6.87-15.57-15.29-30.41-25.13-44.3,2.68-6.78,4.04-14.01,4-21.3.12-12.09-3.71-23.88-10.91-33.6h0c-14.82-18.86-26.33-40.09-34.04-62.8-7.78,22.43-19.29,43.39-34.04,62h0c-14.56,20.04-14.56,47.16,0,67.2h0c14.81,18.87,26.31,40.1,34.04,62.8,7.23-21.24,17.81-41.19,31.33-59.1,2.3,3.6,4.91,7.3,7.71,11.1h0c5.97,8.11,9.16,17.93,9.11,28l-192.3,110.8-75.38-43.5c3.51-7.04,7.66-13.73,12.41-20h0c7.33-10.11,7.33-23.79,0-33.9h0c-7.45-9.49-13.24-20.18-17.12-31.6-3.93,11.4-9.72,22.08-17.12,31.6-2.2,2.97-3.74,6.38-4.5,10-4.73-8.25-8.58-16.96-11.51-26-4.45,13.37-10.68,26.08-18.52,37.8l-80.08-46.3c2.01-3.48,4.25-6.82,6.71-10h0c6.26-8.69,6.26-20.41,0-29.1h0l-3.4-4.7c12.05-20.85,21.88-42.9,29.33-65.8,3.23,10.22,7.08,20.24,11.51,30,1.88-4.76,4.41-9.23,7.51-13.3h0c4.2-5.6,7.91-11.1,11.31-16.3-5.55-12.99-11.8-25.68-18.72-38-1.88,6.04-4.75,11.71-8.51,16.8h0c-15.51,19.85-27.59,42.16-35.74,66-8.09-23.86-20.18-46.18-35.74-66h0c-7.62-10.3-11.69-22.79-11.61-35.6-.08-12.75,4-25.17,11.61-35.4h0c3.5-4.5,6.51-8.9,9.41-13.2.57,1.72,1.42,3.34,2.5,4.8h0c4.65,6.02,8.24,12.78,10.61,20,2.38-7.24,6.01-14,10.71-20h0c2.29-3.06,3.53-6.78,3.5-10.6.05-3.83-1.18-7.56-3.5-10.6h0c-4.45-5.76-8-12.17-10.51-19-.8-4.3-1.4-8.7-1.8-13.3-3.39,5.01-6.09,10.46-8.01,16.2-2.55-7.22-6.27-13.98-11.01-20h0c-2.7-3.33-4.12-7.52-4-11.8,0-3.96,1.26-7.81,3.6-11h0c4.77-6,8.49-12.76,11.01-20,2.2,6.47,5.38,12.58,9.41,18.1,1.59-9.06,4.28-17.89,8.01-26.3-7.39-15.47-16.34-30.15-26.73-43.8h0c-15.36-21.18-15.36-49.82,0-71h0c15.51-19.85,27.59-42.16,35.74-66,8.09,23.86,20.18,46.18,35.74,66h0c5.62,7.54,9.33,16.32,10.81,25.6,9.32-17.32,17.03-35.47,23.02-54.2,2.56,8.26,5.57,16.37,9.01,24.3,1.59-2.88,3.36-5.65,5.31-8.3h0c7.71-10,14.21-20,20.02-29.2-3.89-7.58-6.47-15.76-7.61-24.2-3.6,5.13-6.44,10.75-8.41,16.7-2.6-7.2-6.31-13.95-11.01-20h0c-2.34-3.19-3.6-7.04-3.6-11,0-3.93,1.26-7.75,3.6-10.9h0c4.7-6.04,8.42-12.8,11.01-20,2.36,6.58,5.74,12.76,10.01,18.3,2.09-9.53,6.08-18.54,11.71-26.5-2.33-4.76-3.53-10-3.5-15.3v-4.3l.5-11.1,10.01,4.9,3.3,1.6,4.6,1.7c13.07-19.46,23.48-40.58,30.93-62.8,5.47,17,12.82,33.33,21.92,48.7l1.1-1.7,4.2,3.7c-.24-2.45-.6-4.89-1.1-7.3-3.18-24.95-.61-50.29,7.51-74.1-4.72-3.9-6.55-10.3-4.6-16.1,5.09-13.31,10.97-26.3,17.62-38.9l2.5-2.9,7.61-8.9,4.8,10.6,1.6,3.5c4.5,10,15.12,33.6,16.12,36.6,2.2,5.6,1.49,11.93-1.9,16.9l-.7,1-.9,1.2c5.14,16.79,7.84,34.24,8.01,51.8,2.99-4.63,5.41-9.6,7.21-14.8,2.52,7.24,6.25,14,11.01,20h0c2.31,3.2,3.54,7.05,3.5,11,.05,3.92-1.18,7.74-3.5,10.9h0c-2.2,2.93-4.21,6-6.01,9.2l2.1,1.1c1.2-3.1,1.8-4.9,1.8-4.9.67,2.28,1.47,4.52,2.4,6.7h1c1.36-4.56,3.5-8.86,6.31-12.7h0c11.4-14.58,20.27-30.98,26.23-48.5,6.02,17.51,14.92,33.9,26.33,48.5h0c11.34,15.59,11.34,36.71,0,52.3h0c-11.41,14.6-20.31,30.99-26.33,48.5-3.55-10.5-8.28-20.57-14.11-30-.87,2.2-2.02,4.28-3.4,6.2h0c-1.7,2.2-3.2,4.4-4.6,6.5l2.6,3.6h0c6.69,9.02,10.62,19.79,11.31,31-3.36,9.42-8.23,18.24-14.41,26.1h0c-6.26,8.47-6.26,20.03,0,28.5h0c2.6,3.5,5.01,7.14,7.21,10.9,4.19.73,8.2,2.26,11.81,4.5,2.86-5.43,6.21-10.58,10.01-15.4h0c6.13-8.51,6.13-19.99,0-28.5h0l-2.8-4c7.9-11.67,14.19-24.35,18.72-37.7,5.96,17.52,14.82,33.92,26.23,48.5h0c1.16,1.57,2.23,3.21,3.2,4.9l4.4-6.6c-4.27-7.79-9.09-15.28-14.41-22.4h0c-10.42-14.38-10.42-33.82,0-48.2h0c10.54-13.47,18.73-28.61,24.23-44.8,5.55,16.17,13.73,31.3,24.23,44.8h0c.98,1.23,1.82,2.58,2.5,4,4.48-9.76,8.35-19.77,11.61-30,8.98,27.34,21.18,53.53,36.34,78-4.65,9.66-10.25,18.84-16.72,27.4h0c-4.71,6.45-7.23,14.22-7.21,22.2.04,4.4.82,8.76,2.3,12.9-2.11,4.46-4.69,8.69-7.71,12.6h0c-2.18,2.88-3.34,6.39-3.3,10-.02,3.6,1.14,7.12,3.3,10h0c4.38,5.61,7.77,11.94,10.01,18.7,2.26-6.75,5.64-13.08,10.01-18.7h0c1.58-2.23,2.61-4.8,3-7.5,4.8,7.82,8.66,16.18,11.51,24.9,5.08-14.83,12.59-28.72,22.22-41.1h0c4.3-5.81,6.74-12.78,7.01-20,9.61,15.26,15.34,32.63,16.72,50.6-3.78,10.79-9.26,20.92-16.22,30h0c-7.2,9.86-7.2,23.24,0,33.1h0c7.24,9.26,12.86,19.67,16.62,30.8,1.78-5.45,4.09-10.71,6.91-15.7,2.3,3.6,4.91,7.2,7.61,10.9v110.3c-1.96-3.94-4.24-7.72-6.81-11.3ZM387.4,496.8h0c-4.42-5.82-8.02-12.21-10.71-19h0c1.09,4.51.84,9.23-.7,13.6-2.29,8.35-7.94,15.38-15.62,19.4.4,3.35,1.64,6.55,3.6,9.3h0c5.08,6.54,9.04,13.87,11.71,21.7,2.66-7.87,6.62-15.23,11.71-21.8h0c5-6.96,5-16.34,0-23.3v.1ZM238.15,600c-4.65-6.02-8.24-12.78-10.61-20-2.37,7.22-5.96,13.98-10.61,20-2.17,2.89-3.4,6.39-3.5,10-.05,3.83,1.18,7.56,3.5,10.6,4.65,6.02,8.24,12.78,10.61,20,2.37-7.22,5.96-13.98,10.61-20,2.32-3.04,3.56-6.77,3.5-10.6-.11-3.61-1.33-7.11-3.5-10ZM263.87,492.2c-3.52,4.82-5.38,10.64-5.31,16.6v.6l5.01,2.2v13.3h0c7.25,9.3,12.9,19.74,16.72,30.9,3.76-11.13,9.38-21.54,16.62-30.8h0c7.2-9.86,7.2-23.24,0-33.1h0c-7.24-9.26-12.86-19.67-16.62-30.8-3.83,11.12-9.47,21.53-16.72,30.8l.3.3ZM204.71,315.2c-1.27,1.78-2.29,3.73-3,5.8-1.15,2.15-1.73,4.56-1.7,7,.01,2.28.52,4.54,1.5,6.6.72,2.32,1.8,4.51,3.2,6.5h0c1.94,2.57,3.74,5.24,5.41,8l.1.9c-.35,1.71-.55,3.45-.6,5.2-.05,4.78,1.46,9.45,4.3,13.3h0c4.31,5.58,7.94,11.66,10.81,18.1h5.51c2.9-6.37,6.49-12.41,10.71-18h0c2.84-3.85,4.36-8.52,4.3-13.3.05-4.81-1.46-9.51-4.3-13.4h0c-2.29-3.04-4.39-6.21-6.31-9.5.1-1.3.1-2.6,0-3.9.04-4.67-1.44-9.23-4.2-13h0c-5.64-7.22-10.04-15.34-13.01-24-1.46,4.37-3.33,8.59-5.61,12.6.02-.33.02-.67,0-1-.53,1.75-1.2,3.46-2,5.1-1.53,2.52-3.2,4.96-5.01,7.3l-.1-.3ZM116.02,470c7.2,3.87,13.92,8.56,20.02,14-.57-1.88-1.49-3.65-2.7-5.2h0c-4.97-6.38-8.83-13.54-11.41-21.2-1.5,4.34-3.48,8.5-5.91,12.4ZM168.07,519.4c12.97-7.37,27.31-12.03,42.14-13.7v8.9l2.8-.6c6.61-1.22,13.3-1.89,20.02-2h5.41v-.9c.18-9.55-2.69-18.9-8.21-26.7h0c-11.75-15.03-20.89-31.94-27.03-50-6.14,18.06-15.27,34.97-27.03,50h0c-5.73,7.79-8.79,17.23-8.71,26.9-.06,2.61.15,5.23.6,7.8v.3ZM260.27,697.7c1.9,18.7,13.21,66.4,21.22,98.3l3-4.2h0c10.76-14.93,10.76-35.07,0-50h0c-10.24-13.4-18.41-28.27-24.23-44.1ZM363.98,496.8c-.92,1.31-1.7,2.72-2.3,4.2,3.24-2.99,5.62-6.79,6.91-11-1.3,2.1-2.8,4.4-4.6,6.8ZM319.73,326.8v-16c-1.17,2.58-1.79,5.37-1.8,8.2.06,2.76.68,5.48,1.8,8v-.2ZM362.47,404.4c.97,2.14,1.81,4.35,2.5,6.6,0,0,0-1.6,1.6-4.4-1.3-.8-2.67-1.47-4.1-2v-.2ZM348.46,318.8c.03-4.13-1.27-8.16-3.7-11.5h0l-.6-.8c-2.87,5.27-5.25,10.79-7.11,16.5-2.56-7.34-5.92-14.38-10.01-21v36.3c2.52,4.16,4.57,8.59,6.11,13.2,2.62-7.78,6.54-15.05,11.61-21.5h0c2.37-3.18,3.67-7.03,3.7-11v-.2ZM260.27,221.8c-3.33,4.77-8.16,8.28-13.71,10-1.57,3.31-2.39,6.93-2.4,10.6-.02,5.1,1.59,10.08,4.6,14.2h0c3.78-.36,7.49-1.27,11.01-2.7,1.48-.8,3.12-1.25,4.8-1.3,2.7,0,3.1,1.9,3.1,1.9,0,4.8-3.4,6.2-14.31,8.8,4.03,6.22,7.23,12.95,9.51,20,3.26-9.54,8.1-18.46,14.31-26.4h0c2.59-3.5,4.15-7.66,4.5-12h0c7.51,10.15,12.26,22.07,13.81,34.6,9.26-14.34,16.66-29.8,22.02-46,1.45,4.48,3.12,8.89,5.01,13.2,3.65-5.32,6.9-10.9,9.71-16.7-.8-.37-1.57-.81-2.3-1.3-.71,1.52-1.31,3.09-1.8,4.7-1.06-3.47-2.47-6.82-4.2-10-.5-.54-.96-1.11-1.4-1.7l-1.5-2.4-2.2,1.9c-1.68,1.77-3.83,3.02-6.21,3.6-2.51-6.98-2.51-14.62,0-21.6,3.01-24.43.27-49.22-8.01-72.4,0-1-.5-1.7,0-2s1.7-.9,2.8-.9h1.3l.7-1c1.86-3,2.2-6.71.9-10-1-2.9-14.41-32.6-16.02-36l-1.5-3.5-2.5,3c-6.06,11.88-11.51,24.06-16.32,36.5-1.9,5.4,3.1,9.3,6.41,10.7-.2,1.14-.54,2.24-1,3.3-8.64,23.09-11.76,47.89-9.11,72.4,2.61,6.93,2.61,14.57,0,21.5-2.39-.46-4.57-1.69-6.21-3.5l-2.1-1.9-1.7,2.4ZM194.8,231.1c0,2.62.44,5.22,1.3,7.7,2.1-2.8,4-5.6,5.91-8.4l-3.7-1.4-3.3-1.6-.2,3.7ZM90.79,388c-5.6,7.8-5.6,18.3,0,26.1h0c5.69,7.28,10.13,15.46,13.11,24.2,2.99-8.74,7.42-16.92,13.11-24.2,5.6-7.8,5.6-18.3,0-26.1h0c-5.69-7.28-10.13-15.46-13.11-24.2-2.99,8.74-7.42,16.92-13.11,24.2ZM133.14,501.3h0c1.51-1.95,2.56-4.2,3.1-6.6-6.93-7.56-15.13-13.85-24.23-18.6l-1.8,2.5h0c-5.06,6.72-5.06,15.98,0,22.7h0c5.01,6.33,8.9,13.47,11.51,21.1,2.6-7.62,6.46-14.75,11.41-21.1ZM154.76,804.7c2.25-3.08,3.48-6.79,3.5-10.6,0-3.82-1.22-7.54-3.5-10.6h0c-4.65-6.02-8.24-12.78-10.61-20-2.38,7.24-6.01,14-10.71,20h0c-2.25,3.07-3.41,6.8-3.3,10.6-.02,3.82,1.21,7.54,3.5,10.6h0c4.7,6,8.33,12.76,10.71,20,2.37-7.22,5.96-13.98,10.61-20h-.2ZM230.24,538.2h0c4.06-5.5,6.8-11.87,8.01-18.6h-4.7c-6.35.14-12.67.78-18.92,1.9l-2.7.6-8.41,1.7v-9.5c-11.7,2.25-22.95,6.37-33.33,12.2,1.45,4.15,3.5,8.06,6.11,11.6h0c11.75,15.03,20.89,31.94,27.03,50,6.12-18.02,15.22-34.89,26.93-49.9ZM214.52,709.2h0c5.36,6.85,9.52,14.56,12.31,22.8,2.79-8.24,6.95-15.95,12.31-22.8h0c2.64-3.52,4.05-7.8,4-12.2.07-4.43-1.34-8.76-4-12.3h0c-5.35-6.82-9.51-14.5-12.31-22.7-2.8,8.2-6.97,15.88-12.31,22.7-2.77,3.51-4.28,7.84-4.3,12.3.01,4.42,1.49,8.71,4.2,12.2h.1ZM259.07,838.5c4.06-12.08,9.68-23.58,16.72-34.2-7.41-30-18.52-75.3-22.12-99.4-4.45,9.92-9.99,19.31-16.52,28h0c-2.5,3.4-4.28,7.28-5.21,11.4-4.18,6.68-6.37,14.42-6.31,22.3-.06,9.06,2.82,17.9,8.21,25.2h0c10.95,14.04,19.44,29.83,25.13,46.7h.1ZM387.6,783.4h0c-7.29-9.24-12.94-19.66-16.72-30.8-3.76,11.13-9.38,21.54-16.62,30.8h0c-3.57,4.79-5.47,10.62-5.41,16.6-.07,5.94,1.83,11.74,5.41,16.5h0c7.25,9.21,12.87,19.6,16.62,30.7,3.76-11.12,9.42-21.5,16.72-30.7h0c3.54-4.77,5.4-10.57,5.31-16.5.07-5.98-1.83-11.81-5.41-16.6h.1ZM418.43,637.6c11.62-16.05,11.62-37.75,0-53.8h0c-11.75-15.03-20.89-31.94-27.03-50-6.14,18.06-15.27,34.97-27.03,50h0c-11.75,16.01-11.75,37.79,0,53.8h0c11.75,15.03,20.89,31.94,27.03,50,6.14-18.06,15.27-34.97,27.03-50ZM450.47,336.6c-7.21,9.97-7.21,23.43,0,33.4h0c7.3,9.32,12.98,19.8,16.82,31,3.64-11.18,9.16-21.66,16.32-31h0c7.21-9.97,7.21-23.43,0-33.4h0c-7.3-9.31-12.95-19.79-16.72-31-3.71,11.17-9.26,21.65-16.42,31ZM437.35,440h0c4.97,6.38,8.83,13.54,11.41,21.2,2.66-7.68,6.62-14.86,11.71-21.2h0c4.71-6.83,4.71-15.87,0-22.7h0c-5-6.37-8.89-13.54-11.51-21.2-2.61,7.65-6.46,14.81-11.41,21.2h0c-4.93,6.77-4.93,15.93,0,22.7h-.2ZM493.71,560c7.21-9.97,7.21-23.43,0-33.4h0c-7.3-9.32-12.98-19.8-16.82-31-3.08,9.1-7.43,17.71-12.91,25.6-.61-2.07-1.56-4.03-2.8-5.8-5.01-6.33-8.9-13.47-11.51-21.1-2.6,7.62-6.46,14.75-11.41,21.1h0c-2.42,3.31-3.72,7.3-3.7,11.4-.03,4.1,1.27,8.1,3.7,11.4h0c5.03,6.56,8.89,13.93,11.41,21.8,1.42-4.13,3.23-8.11,5.41-11.9.83,4.34,2.69,8.42,5.41,11.9h0c7.3,9.31,12.95,19.79,16.72,31,3.74-11.18,9.32-21.66,16.52-31ZM57.66,716h0c-8.45-10.83-15.01-23-19.42-36-4.42,12.97-10.98,25.1-19.42,35.9h0c-4.11,5.59-6.29,12.36-6.21,19.3-.05.73-.05,1.47,0,2.2-4.18-6.21-7.54-12.93-10.01-20-.69,2.3-1.56,4.54-2.6,6.7v29.1l21.12,12.2c.55-1.99.85-4.04.9-6.1,2.5,3.6,4.6,7.1,6.41,10l14.21,8.2c3.97-8.38,8.8-16.32,14.41-23.7h0c8.41-11.49,8.41-27.11,0-38.6l.6.8ZM538.16,777.6l2-1.2-.8-2.3-1.2,3.5Z"/>
    <polygon class="cls-3" points="295.21 934.2 290.3 937 285.4 934.2 76.58 813.7 76.58 876.7 290.3 1000 504.02 876.7 504.02 813.7 295.21 934.2"/>
    <path class="cls-2" d="M379.49,455.8v-3.1c0-10-4.5-13.5-8.41-15.2,1.77-1.77,2.96-4.04,3.4-6.5,1.15-8.51-1.4-17.1-7.01-23.6-4.26-2.97-9.23-4.77-14.41-5.2-1.79-.3-3.56-.7-5.31-1.2l-1.9-1c-2.27-.83-4.62-1.43-7.01-1.8,2.82-8.43-1.14-17.64-9.21-21.4h0l-10.01-1.5v-80c-.66-10.81,4.69-21.11,13.91-26.8l5.61-3.1-6.21-1.4c-14.21-3.2-18.22-4.4-18.22-10,0,0,0-1.9,3.1-1.9,1.68.08,3.32.52,4.8,1.3,13.38,3.58,27.2,5.23,41.04,4.9l14.01.7h4.4l-1.7-3.1c-.6-1,1.6-5.7,2.9-8.5,2.84-4.99,4.48-10.57,4.8-16.3v-3.7l-3.4,1.6c-9.02,3.81-18.73,5.72-28.53,5.6-12.56,1.37-25.01-3.39-33.43-12.8l-1.5-2.4-2.2,1.9c-1.68,1.77-3.83,3.02-6.21,3.6-2.51-6.98-2.51-14.62,0-21.6,3.01-24.43.27-49.22-8.01-72.4,0-1-.5-1.7,0-2s1.7-.9,2.8-.9h1.3l.7-1c1.86-3,2.2-6.71.9-10-1-2.9-14.41-32.6-16.02-36l-1.5-3.5-2.5,3c-6.06,11.88-11.51,24.06-16.32,36.5-1.9,5.4,3.1,9.3,6.41,10.7-.2,1.14-.54,2.24-1,3.3-8.69,23.05-11.88,47.8-9.31,72.3,2.61,6.93,2.61,14.57,0,21.5-2.39-.46-4.57-1.69-6.21-3.5l-2.1-1.9-1.6,2.4c-8.38,9.41-20.8,14.17-33.33,12.8-9.83.12-19.57-1.79-28.63-5.6l-3.3-1.6v3.7c.41,5.71,2.05,11.27,4.8,16.3,1.3,2.8,3.5,7.5,3,8.5l-2.7,4.1h4.3l14.11-.7c13.84.33,27.67-1.32,41.04-4.9,1.48-.8,3.12-1.25,4.8-1.3,2.7,0,3.1,1.9,3.1,1.9,0,5.3-4.1,6.5-18.22,10l-6.21,1.4,5.61,3.1c9.19,5.82,14.52,16.15,13.91,27v90c-5.21,3.4-11.91,7.6-17.02,10.7-.02-.3-.02-.6,0-.9l1.2-4.7-4.4,1.8c-5.58,1.46-11.36,2.01-17.12,1.6-10.01,0-19.32-.7-19.32-.7h-2.8v8.6c-12.51-2.98-23.55-10.32-31.13-20.7l-1.9-5.8-1.5,4.9c0,.6-17.42,54.9-67.97,76.6l-5.31,2.3,5.31,2.2c32.63,13.4,50.95,32.1,57.86,59l.9,3.5,2.9-2.2c14.33-9.47,30.75-15.3,47.85-17v8.9l2.8-.6c6.61-1.22,13.3-1.89,20.02-2,4.71-.19,9.42.45,13.91,1.9l4.1,1.6-.8-4.4c-.44-1.95-.77-3.92-1-5.9l14.01,6.1c0,81.4.6,123.6.7,129.2v8.5c.7,14.5,1.6,34.3-4.4,41.7v1.4c-1,17.9,28.03,130,29.23,134.4l2.3,9,2.4-9c5.01-19.4,30.03-117,29.23-134.4v-1.4c-6.01-7.4-5.01-27.2-4.3-41.7v-8.5c0-6.7.5-65.2.7-114.2h4.2c2.19.17,4.4-.07,6.51-.7l3.7-.9c10.01-2.3,9.11-12.3,8.71-17.6v-1.7c1.77.14,3.54.14,5.31,0h0c.93.15,1.87.15,2.8,0,2.24-.06,4.43-.64,6.41-1.7,6.04-3.16,10.47-8.72,12.21-15.3,1.99-5.1,1.15-10.87-2.2-15.2,3.55-.81,6.83-2.53,9.51-5,2.66-3.55,3.82-8.01,3.2-12.4Z"/>
  </g>
</svg>