<?xml version="1.0" encoding="UTF-8"?>
<svg id="Layer_1" data-name="Layer 1" xmlns="http://www.w3.org/2000/svg" viewBox="0 0 580 1000">
  <defs>
    <style>
      .cls-1 {
        fill: #fff;
      }

      .cls-2 {
        fill: #383838;
      }

      .cls-3 {
        fill: #949498;
      }
    </style>
  </defs>
  <g id="Unknown">
    <polygon class="cls-3" points="294.91 934.2 290 937 285.09 934.2 76.06 813.7 76.06 876.7 290 1000 503.94 876.7 503.94 813.7 294.91 934.2"/>
    <polygon class="cls-2" points="580 753.7 290 920.8 0 753.7 0 0 580 0 580 753.7"/>
    <path class="cls-1" d="M241.96,456.42c0-66.06,109.79-91.84,109.79-142.6,0-30.62-26.63-49.95-74.26-49.95-43.59,0-73.46,12.89-102.53,28.2l-16.95-61.23c19.37-11.28,61.35-33.03,125.94-33.03,88.8,0,138.04,41.09,138.04,109.56,0,90.23-111.4,114.4-111.4,157.9,0,12.89,4.03,24.98,12.1,37.86h-65.38c-11.3-14.5-15.34-32.23-15.34-46.72ZM289.59,558.73c30.68,0,50.05,21.75,50.05,49.15,0,28.99-18.57,49.94-50.05,49.94-27.45,0-48.44-19.33-48.44-49.94,0-28.2,20.19-49.15,48.44-49.15Z"/>
  </g>
</svg>