<?xml version="1.0" encoding="UTF-8"?>
<svg id="Layer_1" data-name="Layer 1" xmlns="http://www.w3.org/2000/svg" viewBox="0 0 580 1000">
  <defs>
    <style>
      .cls-1 {
        fill: #fff;
      }

      .cls-2 {
        fill: #1d1d1b;
      }

      .cls-3 {
        fill: #bba86f;
      }
    </style>
  </defs>
  <g id="Zhentarim">
    <polygon class="cls-2" points="294.6 934.2 289.7 937 284.79 934.2 75.98 813.7 75.98 876.7 289.7 1000 503.42 876.7 503.42 813.7 294.6 934.2"/>
    <polygon class="cls-3" points="579.4 753.7 289.7 920.8 0 753.7 0 0 579.4 0 579.4 753.7"/>
    <path class="cls-2" d="M75.18,396.9c1.94-4.54,2.73-9.48,2.3-14.4,0,0-.8-14.3-5.51-16.7,9.15,5.16,16.04,13.54,19.32,23.5l-6.41,2.6c-3.45,1.14-5.68,4.48-5.41,8.1-1.4-.8-2.8-2-4.3-3.1ZM306.82,97.9c-.91-2.55-2.01-5.02-3.3-7.4.4,4.02.4,8.08,0,12.1l3.3-4.7ZM306.32,134.7c2.63-7.96,3.79-16.33,3.4-24.7-2.4-2-4.7-3.8-6.71-5.2,0,2.2-.7,4.3-1.2,6.4,2.3,7.66,3.81,15.53,4.5,23.5ZM367.58,512.9c-.29,2.02-.29,4.08,0,6.1l1.7-2.3c-.36-1.35-.94-2.63-1.7-3.8ZM547.77,356.5c.9,1.7,1.8,3.5,2.6,5.3,3.47-7.4,8.18-14.17,13.91-20-5.01.8-11.11,7.1-17.02,14.7h.5ZM504.02,410.8c-2.09,4.66-4.67,9.09-7.71,13.2,3.83,9.81,8.73,19.17,14.62,27.9,6.29-9.32,11.72-19.2,16.22-29.5-2.5,1.5-3.2,4.6-5.21,6.6,4.91-12.7,12.41-30.6,18.42-45-1.58-3.75-2.82-7.63-3.7-11.6-4.81,7.5-8.21,13.3-8.31,13.3h0c-6.3,10.11-14.78,18.68-24.83,25.1h.5ZM270.98,557.5c-3.8-2.2-7.51-4.1-10.71-6,4.6,22,30.03,37.5,34.74,62.9,3.7-19.5,19.52-33.2,28.73-48.5-7.41-.7-3.5-20-4-21.9-3.94,4.39-8.12,8.56-12.51,12.5-.14-2.98-.44-5.95-.9-8.9-3.02,3.39-6.94,5.85-11.31,7.1,0,0-19.42-3.8-17.72-30,0,0,1-16.6,6.41-19.4-9.92,5.53-17.6,14.33-21.72,24.9,1.8,5.53,3.7,11.13,5.71,16.8,1.3,4.2,2,7.5,3.3,10.5ZM105.61,533.1v-4.5l3.7-2.3h0c-4.96-8.6-10.55-16.82-16.72-24.6-4.97-6.41-9.58-13.09-13.81-20-.8-1.4-2-3.2-3.3-5.5-12.43-18.3-23.12-37.72-31.93-58l-3.8-16.4-11.01-28.8h0c-3.97-12.06-10.18-23.25-18.32-33l-10.01-10v18.1l.7,1.4-.7.5v60c2.2-3.8,4.6-7.5,7.11-11.1v1.1c-.8,28.6,11.21,53.2,27.33,76.9-3.34,7.83-10.09,13.69-18.32,15.9-6.65-1.74-12.4-5.92-16.12-11.7v50.6c7.79,9.53,13.3,20.72,16.12,32.7,4.8-25.1,26.33-42.2,36.84-62.3,7.21,9.5,14.72,19,21.72,28.8h0c1.72,8.51-3.51,16.89-11.91,19.1-8.29-2.38-13.32-10.77-11.51-19.2,0,0,.6-10.8,4.1-12.6-9.17,4.99-15.08,14.38-15.62,24.8-.7,17,19.32,27,23.02,45.6,3.2-16.8,20.02-27,22.72-41.7,12.5,18.4,21.31,39.05,25.93,60.8,3.75-17.94,10.52-35.12,20.02-50.8-25.83-18.3-26.03-20.4-26.23-23.8ZM87.69,398.7c-2.2.9,1.4,6.7,2.7,12.3.59-1.6,1.09-3.24,1.5-4.9-1.67-2.3-3.08-4.78-4.2-7.4ZM2.4,433.7l-2.4,1.4v.9c.64-.92,1.46-1.7,2.4-2.3ZM252.66,499.2c5.22-6.65,10-13.63,14.31-20.9v.7c0,.7,0-1.1,0-1.6s2-3.7,2.9-5.6c7.36,17.1,17.43,32.9,29.83,46.8-7.31-26-15.32-46.1-12.91-86.2,2.9-45.1,56.36-122.4,41.14-178.9-11.31-41.2-25.53-53.7-27.33-80.8-3.72,7.72-9.5,14.26-16.72,18.9,3.6,24.7,13.71,41.9,19.52,75.8,7.31,42.6-53.76,112.6-57.06,164.8-1.36,22.53.81,45.13,6.41,67h-.1ZM50.55,380h0s-22.82-42.3-34.94-44.8c8.94,10.22,15.75,22.12,20.02,35,6.11,15.1,15.22,38,20.72,53.2-2-2-2.6-5.1-5.01-6.7,2.1,9.2,27.53,50,34.34,61.3,10.71,17.8,30.03,37.1,35.94,57.1-2.89-.24-5.71-1.02-8.31-2.3,6.65,6.99,14.19,13.07,22.42,18.1,4.3-7,8.91-13.8,13.71-20.5-7.51-14.2-21.92-24.6-21.52-40,.51-10.92,6.44-20.86,15.82-26.5h0c-2.04,3.94-3.2,8.27-3.4,12.7-1.96,9.32,3.57,18.59,12.71,21.3,3.21-.83,6.09-2.65,8.21-5.2,15.92,21.4,35.14,42.6,40.04,70,1.2-6.18,3.05-12.21,5.51-18,3.34,6.89,5.76,14.18,7.21,21.7,1.36-5.63,3.23-11.12,5.61-16.4-5.25-8.65-9.48-17.88-12.61-27.5.98-3.85,1.22-7.86.7-11.8-1.4,2.1-1.4,5.6-4.2,7.5-26.13-20-41.74-71-41.74-71v1.5c-.43,1.82-1.03,3.6-1.8,5.3-.61.43-1.35.64-2.1.6-12.21-3.42-23.61-9.23-33.53-17.1,0,0-3.4-2.9-8.21-7-1.32.43-2.65.8-4,1.1-9.32-2.38-18-6.79-25.43-12.9,1.07-1.59,2.01-3.26,2.8-5-16.34-6.64-30.03-18.49-38.94-33.7ZM498.12,461c1.74,1.16,3.07,2.84,3.8,4.8l1.1-1.7c-1.55-1.26-3.19-2.39-4.91-3.4v.3ZM48.45,157.9h0ZM363.58,343.2l-3,3.9c-.6,3.4-.8,6.4-.8,6.4-1.4,21.6,14.82,24.7,14.82,24.7,10.28-2.69,16.85-12.71,15.22-23.2h0c-9.43-2.18-18.34-6.19-26.23-11.8ZM553.77,370.8c2.69,6.94,4.76,14.1,6.21,21.4,3.7-17.21,10.48-33.6,20.02-48.4v-6.8l-10.01,10c-6.93,6.8-12.47,14.89-16.32,23.8h.1ZM579.2,83.3h0v144c-4.36-6.55-10.18-12-17.02-15.9,5.21,2.7,6.21,19.1,6.21,19.1,1.6,25.5-17.32,29.5-17.32,29.5,0,0-19.12-3.7-17.52-29.2.24-2.85.64-5.69,1.2-8.5,4.07,3.76,8.65,6.93,13.61,9.4-2.43-9.13-3.54-18.56-3.3-28v-2.7c-6.11-20-24.53-33.7-31.13-50.9-.6,4.9-.8,8.2-.8,8.2-2.89,21.56,3.43,43.33,17.42,60-8.92,7.89-14.21,19.1-14.62,31,.19,7.36,2.41,14.52,6.41,20.7.5,2.9.7,5.2.7,5.2,2.33,10.87-4.13,21.69-14.82,24.8-10.72-3.07-17.2-13.92-14.82-24.8,0,0,.8-13.8,5.31-16.1-11.72,6.44-19.29,18.46-20.02,31.8,0,22,25.23,35.3,30.03,58.9,4.4-23.4,30.03-36.8,30.03-58.5,6.38,7.89,10.9,17.12,13.21,27,2.7-18.3,18.02-32.3,27.43-47.2v60l-16.92,3.1c-7.82,2.68-14.49,7.93-18.92,14.9-2.7-4.8-5.61-9.5-8.61-14.1-.6,5.1-.9,8.6-.9,8.6-.46,5.96-.46,11.94,0,17.9-3.3,5-7.01,10.6-10.91,17.1l-.6,1-1.2,1.8c-4.19,6.6-9.32,12.56-15.22,17.7v-3.4c-.9-15.8-9.91-30.02-23.82-37.6,5.31,2.6,6.31,19,6.31,19,1.6,25.5-17.52,29.3-17.52,29.3,0,0-19.22-3.8-17.52-29.3,0,0,.9-16.4,6.21-19-13.9,7.57-22.88,21.8-23.72,37.6,0,13.7,7.91,24.6,16.72,36-.9.6-1.6,1.3-2.5,2-.87.62-1.7,1.29-2.5,2h0c-7.83,5.77-16.34,10.58-25.33,14.3l-2.6-36.9-11.91,35.1c0,1.2-.7,2.5-1,3.8-3.06,10.47-7.36,20.54-12.81,30-2.07-2.74-3.35-5.99-3.7-9.4-2.54,7.04-5.9,13.75-10.01,20,.9,1.79,1.91,3.52,3,5.2-3.09,3.85-6.43,7.5-10.01,10.9l-10.01-15.4-3.4,18.1c-.78,4.1-.78,8.3,0,12.4-.02.27-.02.53,0,.8-1,2.5-2.5,6.5-4.5,10.7-2.54,3.91-4.82,7.98-6.81,12.2-.83,1.19-1.77,2.29-2.8,3.3-1.31.9-2.68,1.7-4.1,2.4l-3,1.6c-.04-.33-.04-.67,0-1l-.8,1.7c-2.54,1.41-4.65,3.48-6.11,6l-1.2-4.1-3.8.7c-.29-3.33-.29-6.67,0-10,.19-1.93.19-3.87,0-5.8l-2.7-14.2-10.01,10-1.8,2-.9-4v-1.3l-.9-1.3c-2.3-10-4.8-19.1-7.31-27.7-8.2-23.7-11.6-48.78-10.01-73.8,3.44-21.38,9.73-42.2,18.72-61.9,15.02-38.8,32.13-82.8,22.22-119.4-4.16-14.93-9.58-29.49-16.22-43.5-6.56-12.04-10.32-25.41-11.01-39.1-.02-10.2,1.64-20.33,4.91-30,2.24-7.19,3.68-14.6,4.3-22.1,14.83,14.99,23.69,34.86,24.93,55.9,3.85-5.92,9.07-10.82,15.22-14.3-4.7,2.4-5.51,16.7-5.51,16.7-1.5,22.3,15.32,25.6,15.32,25.6,3.16-.82,6.05-2.44,8.41-4.7-6.8-10.49-10.45-22.7-10.51-35.2,1.41-25.55,15.95-48.55,38.44-60.8-8.51,4.3-10.01,30.8-10.01,30.8-2.6,41,28.23,47,28.23,47,4.22-1.07,8.2-2.94,11.71-5.5-10.01-14.5-23.32-27.1-22.82-44.1.41-11.48,5.47-22.31,14.01-30-3.72-5.52-6.97-11.34-9.71-17.4-2.78,5.92-4.79,12.17-6.01,18.6-3.94-16.71-11.64-32.31-22.52-45.6h0c2.41,5.56,3.74,11.54,3.9,17.6.8,30-34.04,47.9-40.04,80-4.91-24.6-26.93-40.6-36.14-60.6l-1.2,1.5c-.6-1.3-1-2.6-1.7-3.9l-16.02-30.7,2.1,34.5c.36,9.73-1.17,19.45-4.5,28.6-9.95,15.26-17.04,32.2-20.92,50-5.1-23-15.1-44.62-29.33-63.4-2.77,7.14-4.62,14.6-5.51,22.2,13.83,13.51,21.84,31.88,22.32,51.2.09,3.75-.18,7.5-.8,11.2,4.07,2.73,8.57,4.76,13.31,6,2.17-.49,4.28-1.19,6.31-2.1,1.97,10.73,4.75,21.29,8.31,31.6,4.69,13.63,8.31,27.61,10.81,41.8,3.4,20-11.71,50-26.33,78.6s-29.33,58-30.93,84.4c-1.44,25.24,1.3,50.55,8.11,74.9-8.97,11.04-16.95,22.85-23.82,35.3-3.32-6.24-6.16-12.73-8.51-19.4.03-.23.03-.47,0-.7.76-4.1.76-8.3,0-12.4l-3-18.1-10.01,15.2h0c-20.02-21-32.63-61-32.83-61.4l-10.01-31.5-4.7,32.6h0c-9.09-3.72-17.67-8.6-25.53-14.5l-2.2-1.5-2.9-2.4c2.94-1.46,5.78-3.09,8.51-4.9-9.21-15.6-24.63-27.8-24.53-45-3.84,5.41-6.56,11.53-8.01,18-4.3-22.9-29.23-35.9-28.73-57.2.72-12.98,8.1-24.66,19.52-30.9-4.3,2.2-5.11,15.7-5.11,15.7-2.42,10.49,3.91,21.01,14.31,23.8,10.54-2.75,16.95-13.41,14.41-24,0,0-.8-13.5-5.11-15.7,11.58,6.14,19.16,17.83,20.02,30.9,0,2.05-.19,4.09-.6,6.1h.6-.7c-.79,3.73-2.17,7.31-4.1,10.6-.36,1.88-.6,3.79-.7,5.7-1.5,22.3,15.32,25.6,15.32,25.6,0,0,16.72-3.3,15.32-25.6,0,0-.9-14.4-5.51-16.7,6.59,3.85,12.05,9.37,15.82,16,.35-5.39.35-10.81,0-16.2-.95-14.71-3.81-29.23-8.51-43.2-9.63,10.99-16.49,24.12-20.02,38.3-4.8-24.9-25.23-42.2-36.64-61.7-13.31,17.3-27.53,35-31.73,57.6-1.08-5.06-2.63-10.02-4.6-14.8-1.59,7.99-2.69,16.07-3.3,24.2-1.21,14.14.39,28.38,4.7,41.9-2.68-3.17-5.15-6.51-7.41-10l-1.1-1.8-.6-1c-17.42-30-28.43-43.3-37.94-45.3L0,324.4v-116c1.17-1.14,2.24-2.38,3.2-3.7-.87-3.2-1.94-6.34-3.2-9.4v-91.9c1.53.62,3.1,1.12,4.7,1.5,5.34-1.28,10.35-3.67,14.72-7-6.61-8.5-13.11-17-19.02-25.5V0h29.03c2.48,4.81,5.57,9.29,9.21,13.3.34-4.61,1.53-9.12,3.5-13.3h11.71c-1.66,10.83,5.05,21.18,15.62,24.1,10.37-3.12,16.83-13.42,15.12-24.1h162.67l-.7,1c6.91,6.2,15.22,10.63,24.23,12.9,9.51-2.43,18.25-7.21,25.43-13.9h171.28c-.55,11.11,6.69,21.12,17.42,24.1,1.75-.48,3.43-1.19,5.01-2.1-4.7-7.6-10.01-14.9-15.22-22h73.18c-3.03,9.23-4.88,18.81-5.51,28.5-1.2,12.88,1.45,25.82,7.61,37.2,3.13-10.56,10.33-19.45,20.02-24.7-4.6,2.3-5.41,16.7-5.41,16.7-2.2,22.3,14.62,25.6,14.62,25.6ZM25.83,264.3c-4.8-6.71-8.86-13.92-12.11-21.5-2.9,3.9-6.01,7.8-8.91,11.8,4.68,7.04,7.24,15.26,7.41,23.7.09,2.72-.18,5.45-.8,8.1,7.96-4.75,13.28-12.91,14.41-22.1ZM54.56,303.7c-2.8-4.5-5.91-8.9-9.01-13.2-3.35,8.5-7.93,16.45-13.61,23.6,1.48,2.87,2.76,5.84,3.8,8.9,5.66-7,11.96-13.47,18.82-19.3ZM83.19,229.1c-6.61-19.4-27.23-31.7-26.83-50.9.15-5.21,1.52-10.31,4-14.9-2.32-5.66-4.92-11.2-7.81-16.6.15-1.23.15-2.47,0-3.7-.67-11.45-7.17-21.76-17.22-27.3,3.8,2,4.5,13.9,4.5,13.9,1.2,18.5-12.71,21.2-12.71,21.2,0,0-13.71-2.7-12.51-20.8,0,0,.8-11.9,4.6-13.9-10.09,5.52-16.63,15.83-17.32,27.3.05,5.47,1.64,10.8,4.6,15.4,10.58,7.26,18.46,17.81,22.42,30,3.49-7.97,8.18-15.36,13.91-21.9-2.42,7.42-3.9,15.11-4.4,22.9-2.7,42.2,29.03,48.4,29.03,48.4,5.91-1.68,11.31-4.81,15.72-9.1ZM91.69,217.5c-1.2,1.81-2.3,3.68-3.3,5.6,1.28-1.75,2.39-3.63,3.3-5.6ZM95.2,179v-2.1c-4.83-8.14-10.18-15.95-16.02-23.4-3.04,6.17-5.62,12.55-7.71,19.1,1.45,6.87,6.63,12.36,13.41,14.2,4.29-1.23,7.97-4.01,10.31-7.8ZM145.25,56.9c6.24,8.26,10.39,17.9,12.11,28.1,3.84-10.7,10.82-20.01,20.02-26.7-7.72-9.26-14.43-19.32-20.02-30-2.99,10.02-7.22,19.63-12.61,28.6h.5ZM186.29,186.9c.16-6.82,2.02-13.48,5.41-19.4-6.86-11.66-14.59-22.79-23.12-33.3-.8,4.33-1.33,8.71-1.6,13.1-1.8,27.7,10.51,40.7,20.02,46.6-.58-2.13-.98-4.3-1.2-6.5l.5-.5ZM106.21,110.6c14.78-4.72,25-18.21,25.53-33.7-8.51,11.7-17.32,23.1-25.93,34.2l.4-.5ZM158.46,233.3c-12.81-16.1-23.12-33.3-22.62-53.3.63-21.11,10.16-40.98,26.23-54.7-2.64-4.3-4.66-8.94-6.01-13.8-7.51,24-30.03,43.5-43.44,68.3.05.47.05.93,0,1.4,8.14,11.32,12.61,24.86,12.81,38.8.03,10.49-2.62,20.82-7.71,30,3.74,7.13,10.32,12.36,18.12,14.4,13.72-3.67,22.99-16.43,22.22-30.6l.4-.5ZM186.59,317.5c.27-10.87,2.37-21.62,6.21-31.8-3.59-8.55-8.09-16.7-13.41-24.3-4.13,12.81-10.88,24.63-19.82,34.7,9.87,7.17,18.84,15.5,26.73,24.8l.3-3.4ZM218.73,77.5v-2c-2.5-3.3-5.01-6.5-7.41-10-6.61,8.93-11.25,19.15-13.61,30-3.24-13.06-9.44-25.21-18.12-35.5-1.9,5.62-3.05,11.47-3.4,17.4-2,30.9,21.22,35.4,21.22,35.4,0,0,22.92-4.1,20.92-35l.4-.3ZM233.84,412.1c-5.91-7.8-11.91-15.4-17.52-23,0,3.3.6,6.7.7,10,.17,17.35-3.81,34.49-11.61,50,.08,1.96.38,3.91.9,5.8,17.04-7.12,27.85-24.07,27.13-42.5l.4-.3ZM231.64,246.5c-2.64,9.37-4.31,18.99-5.01,28.7-3.8,58.9,40.04,67.6,40.04,67.6l2.1-.6c-1.59-8.03-2.26-16.22-2-24.4.03-3.81.26-7.62.7-11.4-8.39-21.89-20.51-42.15-35.84-59.9ZM239.65,104.2h0ZM367.28,65.6c-5.54-9.26-11.73-18.12-18.52-26.5-5.45,9.34-11.43,18.35-17.92,27,2.74,8.42,9.56,14.9,18.12,17.2,8.74-2.37,15.65-9.05,18.32-17.7ZM305.82,417l-4-5.7c-.9,1.2-1.8,2.3-2.6,3.5-.05.8-.05,1.6,0,2.4-.15,2.9-.15,5.8,0,8.7,1.97-3.13,4.18-6.11,6.61-8.9ZM444.36,138.1c1.61-.39,3.16-1,4.6-1.8v-5c-6.81-10-14.41-19.2-21.32-28.5-.5,3.4-.7,6.1-.7,6.1-1.6,25.4,17.42,29.2,17.42,29.2ZM381.59,271.2c3.77,4.51,8.84,7.76,14.52,9.3,10.07-2.66,17.96-10.47,20.72-20.5-3.79-9.63-8.81-18.74-14.92-27.1-3.75,14.15-10.7,27.26-20.32,38.3ZM348.96,238.3c3.55-.93,6.93-2.42,10.01-4.4-7.96-9.64-14.87-20.1-20.62-31.2-3.03,7.97-5.31,16.21-6.81,24.6,4.57,5.33,10.64,9.16,17.42,11ZM342.15,465.1c-8.81-11.9-18.02-23.6-26.83-35.2.04.37.04.73,0,1.1-2.36,14.62,3.11,29.42,14.41,39h.8c4.12-.97,8.04-2.63,11.61-4.9ZM394.91,453.3l-.8.5h0l.8-.5ZM450.07,253.3c-.74-10.08-2.11-20.1-4.1-30-4.4,5.9-8.81,11.8-12.71,18.1,4.57,7.7,7.08,16.45,7.31,25.4.8,31.1-33.53,50.7-42.84,82.6-1.52-2.03-3.19-3.93-5.01-5.7-5.35-11.72-12.29-22.66-20.62-32.5-2.6-5.67-6.9-10.39-12.31-13.5,3.2,1.7,3.8,11.7,3.8,11.7,1,15.6-10.71,17.8-10.71,17.8,0,0-11.71-2.2-10.71-17.8,0,0,.6-10,3.9-11.7-8.53,4.62-14.06,13.32-14.62,23,0,12.6,11.31,21.3,17.72,32.8-2.62,4.83-4.02,10.21-4.1,15.7-.6,21.9,25.13,35.3,30.03,58.9,4.5-23.6,30.03-37,30.03-58.9-.14-6.15-1.9-12.15-5.11-17.4,17.52-7.7,54.46-31.8,49.85-98.4l.2-.1ZM466.68,207.1c.15-5.06.61-10.1,1.4-15.1-2.98,5.52-6.32,10.83-10.01,15.9,3.1,2.6,6.21,5.6,9.41,8.8-.47-3.15-.73-6.32-.8-9.5v-.1ZM478.29,65.9c-8.41-14.7-21.92-26.7-26.63-41.4-3.9,5.9-8.31,11.7-12.81,17.6,3.05,14.18,13.8,25.46,27.83,29.2,4.17-1.07,8.11-2.9,11.61-5.4ZM520.84,111.2c-3.47-5.55-6.42-11.41-8.81-17.5-11.11,17.1-26.53,33.1-36.54,52.2,1.05,4.63,1.65,9.35,1.8,14.1v3.3c9.47-19.39,23.69-36.08,41.34-48.5l2.2-3.6ZM546.77,147c-6.01-7.9-12.11-15.7-17.72-23.5-.31,10.93,6.87,20.66,17.42,23.6l.3-.1ZM565.69,391.6c.31,9.4,3.85,18.4,10.01,25.5-13.1-4.21-24.27-12.93-31.53-24.6-2,4.9-4.2,10-6.21,15.1l-4.3,16.6c-5.02,12.11-11.33,23.64-18.82,34.4,4.91,6.9,10.01,13.8,15.42,20.7,1.97-4.6,2.77-9.62,2.3-14.6,0,0-.9-14.4-5.51-16.7,12.17,6.63,20.05,19.07,20.82,32.9.08,5.63-1.34,11.19-4.1,16.1,7,9.36,13.42,19.15,19.22,29.3-1.2,5.55-5.42,9.95-10.91,11.4-8.36-2.43-13.43-10.89-11.61-19.4,0,0,.6-10.9,4.1-12.6-9.24,4.99-15.19,14.43-15.72,24.9-.5,17.2,20.02,27.7,23.22,46.2,2.5-13.3,13.51-22.4,19.42-32.8,3,7.29,5.28,14.86,6.81,22.6,0-1.4.6-2.9,1-4.3v-198.6c-8.35,6.91-13.31,17.08-13.61,27.9ZM549.07,0c14.13,16.85,24.16,36.74,29.33,58.1.24-1.39.57-2.76,1-4.1V0h-30.33ZM415.03,450.6c0,1-.6,2.1-.8,3.1.04.43.04.87,0,1.3l3.1,2.4c-1.2-2.1-1.98-4.41-2.3-6.8ZM452.87,441.7c-10.05,7.65-21.51,13.22-33.73,16.4-.78.06-1.56-.15-2.2-.6,5.81,4.79,9.71,11.49,11.01,18.9l.9-1.3c4.7,6.5,10.01,13,14.62,20-.97,3.73-1.5,7.55-1.6,11.4.58,13.26,5.67,25.92,14.41,35.9,3.9-3,6.11-5,5.61-5.3-.62.19-1.28.19-1.9,0h-4.1c3.5-9.58,8.46-18.55,14.72-26.6-4.36-5.37-6.89-11.99-7.21-18.9,10.71-15.5,24.93-28.7,24.43-46.6-.1-2.96-.46-5.91-1.1-8.8-7.28,8.46-12.43,18.54-15.02,29.4-1.33-6.31-3.77-12.34-7.21-17.8-3.08,3.93-7.37,6.74-12.21,8-2.44-.6-4.75-1.65-6.81-3.1,3.3-4.3,6.61-8.7,10.01-13l-2.6,2ZM402.82,488.3c9.09-2.71,14.57-11.93,12.61-21.2-.23-3.68-.97-7.32-2.2-10.8-3.28,10.75-7.78,21.08-13.41,30.8,1.01.53,2.09.94,3.2,1.2h-.2ZM374.79,517.7c6.63,13.4,11.44,27.63,14.31,42.3,2.47-12.57,6.37-24.81,11.61-36.5-3.48-6.95-7.78-13.47-12.81-19.4-3.98,4.9-8.36,9.45-13.11,13.6ZM508.83,468.4c-1.4,2.07-2.8,4.27-4.2,6.6.55,2.94.92,5.91,1.1,8.9,2,31-21.32,35.5-21.32,35.5-3.02-.78-5.87-2.1-8.41-3.9-3.74,4.93-7.09,10.15-10.01,15.6l3.5,2.4v4.3c0,2.3,0,4-8.61,10,11.21,12.17,19.34,26.85,23.72,42.8,6.51-33.8,43.44-53,42.64-84.6-.66-14.54-7.33-28.16-18.42-37.6ZM330.74,576.8v-2.1l-1-.9c.5,1,.8,2,1,3ZM341.75,564.7h0c.25.22.46.49.6.8.29-1.66.7-3.29,1.2-4.9l-2.6,1.5.8,2.6Z"/>
    <path class="cls-1" d="M301.71,737.5c0,11.05-8.96,20-20.02,20s-20.02-8.95-20.02-20,8.96-20,20.02-20,20.02,8.95,20.02,20ZM543.16,376.3c-6.41,15-15.82,37.6-21.72,52.7,2-2,2.7-5.1,5.21-6.6-2.4,9.2-28.83,49.5-35.84,60-10.91,17.6-28.63,34.8-35.04,54.7,2,0,4.5,1,6.11,0,2.6,1.8-75.68,53.2-87.19,58.4-6.81,3.1-31.13,19-38.14,14.6,10.01-7.9-12.11-25.2-21.32-24.1-4.15-.12-7.64,3.07-7.91,7.2h0l-.7,11.6s-3.1,22.4-3.2,23c-1.15,5.94-1.15,12.06,0,18,.9,2.8.9,5.8,0,8.6-2.5,5.6-4.5,5.7-6.11,9.5-.38.97-.68,1.98-.9,3-.44,7.07,1.98,14.02,6.71,19.3,0,0,1.3-.7,1.4-3.7,2.98,7.52,2.98,15.88,0,23.4-.26-1.19-.59-2.36-1-3.5-2.2-1.7,1.1,0-6.61-1.5,0,0,1.1-.6,2.1-1.1.43.07.87.07,1.3,0,.7-.6,0-1.7,0-2.3s-4.2,0-5.21,0,3.2-2.1,3.6-2.7c-2.6-1.6-.6,0-2.2-3.1-.7-1.2-2.4-1-3-.9,2.5-2.6,0-3.5-1.3-3.8.82-.68,1.21-1.75,1-2.8-10.01-14.2-13.81-6.6-18.62-3.3-.9,1.4-2.4,0-3.2,3.8s-1.3,5.7-2.6,8.7c-4.7,10.7,0,12.2,6.51,16.7-4.82-.17-9.51-1.58-13.61-4.1-2.25,1.72-5.12,2.41-7.91,1.9-1.71-6.53-2.55-13.25-2.5-20,1.28-5.92,3.73-11.53,7.21-16.5,8.01-10,9.31-22.5,13.31-34.2,1-2.9,3.5-19.1,3.5-19.1.6-4,.6-15.9.5-24.4-1.3-5.4-4.8-6.3-12.11-7.3-9.21-1.3-36.74,14.8-27.03,23-7.11,4.2-31.13-12.3-37.84-15.5-11.41-5.4-88.39-58.8-85.69-60,2.6,1.28,5.42,2.06,8.31,2.3-6.01-20-25.23-39.3-35.94-57.1-6.81-11.2-32.23-52.1-34.34-61.3,2.4,1.6,3,4.7,5.01,6.7-5.51-15.2-14.62-38.1-20.72-53.2-4.27-12.88-11.08-24.78-20.02-35,12.21,2.5,34.84,45.4,34.94,44.8,9.07,15.75,23.17,28,40.04,34.8,0-6.5-5.81-14.7-3.1-15.8,6.51,15.9,36.64,38.5,36.34,38.8,6.21,5.3,31.23,20,35.64,16.5.77-1.7,1.38-3.48,1.8-5.3v-1.5c0-.5,15.62,51,41.74,71,2.8-1.9,2.8-5.4,4.2-7.5.52,3.94.28,7.95-.7,11.8,3.52,11.44,8.97,22.2,16.12,31.8,3.1,3.3,11.11,5.5,12.81,9.3h-3.9c-8.61,8.9,10.61,20,16.82,1.6,9.31,2,5.31-15.1,5.81-17.5,5.03,4.01,10.55,7.37,16.42,10-.9-3-2-6.3-3.3-10-13.31-38.6-24.02-70.9-21.32-115.1,3.9-54,64.97-124,57.66-166.6-7.31-42.6-20.92-58.4-20.82-95.1,0-25.7,23.02-47.8,20.92-81.8,16.12,30.8-3.8,46-3.1,78.6.7,30,15.72,41.3,27.53,84.4,15.22,56.5-38.24,133.8-41.14,178.9-3.1,53.4,11.91,71.2,19.52,115,.45,3.02.76,6.05.9,9.1,4.39-3.94,8.57-8.11,12.51-12.5,0,2.5-4,23.6,5.51,21.9,5.71,18.6,25.13,8,16.72-1.2h-3.9c1.9-3.8,10.01-5.8,13.11-9,7.36-9.45,13.08-20.06,16.92-31.4-.78-3.89-.78-7.91,0-11.8,1.4,2.2,1.2,5.7,4,7.6,20.51-17.57,35.35-40.81,42.64-66.8,0-1,.5-2.1.8-3.1.27,2.39.91,4.71,1.9,6.9,4.3,3.7,30.03-10.6,35.94-15.8,0,0,30.03-22.1,37.34-37.9,2.6,1.2-3.4,9.3-3.5,15.8,17.13-6.38,31.62-18.31,41.14-33.9,0,.7,23.62-41.7,35.94-43.9-9.29,10.11-16.48,21.98-21.12,34.9ZM259.67,688l-1-3c-.36-1.48-.59-2.98-.7-4.5-2.07,2.04-3.28,4.8-3.4,7.7.22,1.58.62,3.12,1.2,4.6l1,.7v-1.4c2.9-.8,2.9-4.1,2.9-4.1Z"/>
  </g>
</svg>