{
    "asset" : {
        "copyright" : "Copyright \u00a9 The Rollsmith",
        "generator" : "Khronos glTF Blender I/O v1.8.19",
        "version" : "2.0"
    },
    "scene" : 0,
    "scenes" : [
        {
            "name" : "Scene",
            "nodes" : [
                0
            ]
        }
    ],
    "nodes" : [
        {
            "mesh" : 0,
            "name" : "dice_12"
        }
    ],
    "materials" : [
        {
            "doubleSided" : true,
            "emissiveFactor" : [
                0.75,
                0.75,
                0.75
            ],
            "emissiveTexture" : {
                "index" : 0
            },
            "name" : "MAT_Lava_d12",
            "normalTexture" : {
                "index" : 1
            },
            "pbrMetallicRoughness" : {
                "baseColorTexture" : {
                    "index" : 2
                },
                "metallicRoughnessTexture" : {
                    "index" : 3
                }
            }
        }
    ],
    "meshes" : [
        {
            "name" : "Mesh_0.013",
            "primitives" : [
                {
                    "attributes" : {
                        "POSITION" : 0,
                        "NORMAL" : 1,
                        "TEXCOORD_0" : 2
                    },
                    "indices" : 3,
                    "material" : 0
                }
            ]
        }
    ],
    "textures" : [
        {
            "sampler" : 0,
            "source" : 0
        },
        {
            "sampler" : 0,
            "source" : 1
        },
        {
            "sampler" : 0,
            "source" : 2
        },
        {
            "sampler" : 0,
            "source" : 3
        }
    ],
    "images" : [
        {
            "mimeType" : "image/webp",
            "name" : "MAT_Lava_d12_Emissive",
            "uri" : "textures/MAT_Lava_d12_Emissive.webp"
        },
        {
            "mimeType" : "image/webp",
            "name" : "MAT_Lava_d12_Normal",
            "uri" : "textures/MAT_Lava_d12_Normal.webp"
        },
        {
            "mimeType" : "image/webp",
            "name" : "MAT_Lava_d12_BaseColor",
            "uri" : "textures/MAT_Lava_d12_BaseColor.webp"
        },
        {
            "mimeType" : "image/webp",
            "name" : "MAT_Lava_d12_Metallic-MAT_Lava_d12_Roughness",
            "uri" : "textures/MAT_Lava_d12_Metallic-MAT_Lava_d12_Roughness.webp"
        }
    ],
    "accessors" : [
        {
            "bufferView" : 0,
            "componentType" : 5126,
            "count" : 525,
            "max" : [
                83.70028686523438,
                83.70027923583984,
                83.70028686523438
            ],
            "min" : [
                -83.70028686523438,
                -83.70027923583984,
                -83.70028686523438
            ],
            "type" : "VEC3"
        },
        {
            "bufferView" : 1,
            "componentType" : 5126,
            "count" : 525,
            "type" : "VEC3"
        },
        {
            "bufferView" : 2,
            "componentType" : 5126,
            "count" : 525,
            "type" : "VEC2"
        },
        {
            "bufferView" : 3,
            "componentType" : 5123,
            "count" : 2268,
            "type" : "SCALAR"
        }
    ],
    "bufferViews" : [
        {
            "buffer" : 0,
            "byteLength" : 6300,
            "byteOffset" : 0
        },
        {
            "buffer" : 0,
            "byteLength" : 6300,
            "byteOffset" : 6300
        },
        {
            "buffer" : 0,
            "byteLength" : 4200,
            "byteOffset" : 12600
        },
        {
            "buffer" : 0,
            "byteLength" : 4536,
            "byteOffset" : 16800
        }
    ],
    "samplers" : [
        {
            "magFilter" : 9729,
            "minFilter" : 9987
        }
    ],
    "buffers" : [
        {
            "byteLength" : 21336,
            "uri" : "dice_12.bin"
        }
    ]
}
