{
    "asset" : {
        "copyright" : "Copyright \u00a9 The Rollsmith",
        "generator" : "Khronos glTF Blender I/O v1.8.19",
        "version" : "2.0"
    },
    "scene" : 0,
    "scenes" : [
        {
            "name" : "Scene",
            "nodes" : [
                0
            ]
        }
    ],
    "nodes" : [
        {
            "mesh" : 0,
            "name" : "dice_4"
        }
    ],
    "materials" : [
        {
            "doubleSided" : true,
            "emissiveFactor" : [
                0.75,
                0.75,
                0.75
            ],
            "emissiveTexture" : {
                "index" : 0
            },
            "name" : "MAT_Lava_d4",
            "normalTexture" : {
                "index" : 1
            },
            "pbrMetallicRoughness" : {
                "baseColorTexture" : {
                    "index" : 2
                },
                "metallicRoughnessTexture" : {
                    "index" : 3
                }
            }
        }
    ],
    "meshes" : [
        {
            "name" : "Mesh_0.009",
            "primitives" : [
                {
                    "attributes" : {
                        "POSITION" : 0,
                        "NORMAL" : 1,
                        "TEXCOORD_0" : 2
                    },
                    "indices" : 3,
                    "material" : 0
                }
            ]
        }
    ],
    "textures" : [
        {
            "sampler" : 0,
            "source" : 0
        },
        {
            "sampler" : 0,
            "source" : 1
        },
        {
            "sampler" : 0,
            "source" : 2
        },
        {
            "sampler" : 0,
            "source" : 3
        }
    ],
    "images" : [
        {
            "mimeType" : "image/webp",
            "name" : "MAT_Lava_d4_Emissive",
            "uri" : "textures/MAT_Lava_d4_Emissive.webp"
        },
        {
            "mimeType" : "image/webp",
            "name" : "MAT_Lava_d4_Normal",
            "uri" : "textures/MAT_Lava_d4_Normal.webp"
        },
        {
            "mimeType" : "image/webp",
            "name" : "MAT_Lava_d4_BaseColor",
            "uri" : "textures/MAT_Lava_d4_BaseColor.webp"
        },
        {
            "mimeType" : "image/webp",
            "name" : "MAT_Lava_d4_Metallic-MAT_Lava_d4_Roughness",
            "uri" : "textures/MAT_Lava_d4_Metallic-MAT_Lava_d4_Roughness.webp"
        }
    ],
    "accessors" : [
        {
            "bufferView" : 0,
            "componentType" : 5126,
            "count" : 103,
            "max" : [
                68.7142333984375,
                68.87213134765625,
                68.20435333251953
            ],
            "min" : [
                -69.4970932006836,
                -69.33802795410156,
                -68.65740966796875
            ],
            "type" : "VEC3"
        },
        {
            "bufferView" : 1,
            "componentType" : 5126,
            "count" : 103,
            "type" : "VEC3"
        },
        {
            "bufferView" : 2,
            "componentType" : 5126,
            "count" : 103,
            "type" : "VEC2"
        },
        {
            "bufferView" : 3,
            "componentType" : 5123,
            "count" : 444,
            "type" : "SCALAR"
        }
    ],
    "bufferViews" : [
        {
            "buffer" : 0,
            "byteLength" : 1236,
            "byteOffset" : 0
        },
        {
            "buffer" : 0,
            "byteLength" : 1236,
            "byteOffset" : 1236
        },
        {
            "buffer" : 0,
            "byteLength" : 824,
            "byteOffset" : 2472
        },
        {
            "buffer" : 0,
            "byteLength" : 888,
            "byteOffset" : 3296
        }
    ],
    "samplers" : [
        {
            "magFilter" : 9729,
            "minFilter" : 9987
        }
    ],
    "buffers" : [
        {
            "byteLength" : 4184,
            "uri" : "dice_4.bin"
        }
    ]
}
